<svg width="1022" height="720" viewBox="0 0 1022 720" fill="none" xmlns="http://www.w3.org/2000/svg">
<rect x="58" y="329" width="95" height="71" fill="#363558"/>
<rect x="58" y="329" width="95" height="71" fill="#CEB045" fill-opacity="0.12"/>
<path fill-rule="evenodd" clip-rule="evenodd" d="M50.473 0.046875L93.4997 0.0494704L92.1827 18.9993L1019 18.9994V60.9994L89.2638 60.9994L47.6344 659.999L1019 659.999V701.999L44.7155 701.999L43.4994 719.497L0.5 719.499L50.473 0.046875Z" fill="#556B8C"/>
<path d="M153 97C153 83.7452 163.745 73 177 73H904V620C904 633.255 893.255 644 880 644H177C163.745 644 153 633.255 153 620V97Z" fill="#363558"/>
<path d="M153 97C153 83.7452 163.745 73 177 73H904V620C904 633.255 893.255 644 880 644H177C163.745 644 153 633.255 153 620V97Z" fill="#CEB045" fill-opacity="0.12"/>
<rect x="202" y="123" width="502" height="473" rx="20" fill="#324A6D"/>
<rect x="202" y="123" width="502" height="473" rx="20" fill="#324A6D"/>
<rect x="920" y="73" width="23" height="173" fill="#363558"/>
<rect x="920" y="73" width="23" height="173" fill="#CEB045" fill-opacity="0.12"/>
<rect x="925" y="432" width="23" height="212" fill="#363558"/>
<rect x="925" y="432" width="23" height="212" fill="#CEB045" fill-opacity="0.12"/>
<rect x="872" y="625" width="76" height="36" fill="#363558"/>
<rect x="872" y="625" width="76" height="36" fill="#CEB045" fill-opacity="0.12"/>
<rect x="871" y="63" width="76" height="36" fill="#363558"/>
<rect x="871" y="63" width="76" height="36" fill="#CEB045" fill-opacity="0.12"/>
<path d="M904 242H926C979.019 242 1022 284.981 1022 338V338C1022 391.019 979.019 434 926 434H904V242Z" fill="#363558"/>
<path d="M904 242H926C979.019 242 1022 284.981 1022 338V338C1022 391.019 979.019 434 926 434H904V242Z" fill="#CEB045" fill-opacity="0.12"/>
<path d="M673 140H589.5V198.5H623.5V292H568.5V358H689.5C689.5 358 689.5 329 673 307.5V140Z" fill="#64A4C9"/>
<path d="M673 580H589.5V536.5H623.5V424.5H568.5V358H689.5C689.5 358 689.5 387.5 673 409V580Z" fill="#64A4C9"/>
<rect x="314" y="198" width="23" height="124" fill="#597FB3"/>
<rect x="314" y="322" width="23" height="77" fill="#597FB3"/>
<rect x="314" y="399" width="23" height="133" fill="#597FB3"/>
<rect x="337" y="198" width="23" height="334" fill="#4069A0"/>
<path fill-rule="evenodd" clip-rule="evenodd" d="M459 198L474 192.5C488.833 219.667 518.5 289.7 518.5 352.5C518.5 415.3 506 477 478.5 537.5L459 532H360V198H459Z" fill="#39A1ED"/>
<path d="M547 382.5H534V394.5L529.5 399V416.5L525 421V448.5H520V469.5H514V488H508V512.5L495 525.5V582H543V483H534V447H536V426H541V413H547V382.5Z" fill="#64A4C9"/>
<path d="M523.5 199.5H499.5V214H509.5V224.5H504.5V239H509.5V264H515.5V297.5H528.5V306L533.5 308.5V322L537.5 342H544V302.5H537.5V275H547.5V260H544V256.5H539.5V248H537.5V220H533.5V210.5H523.5V199.5Z" fill="#64A4C9"/>
<path d="M744 452C744 442.059 752.059 434 762 434H837C856.882 434 873 450.118 873 470V597C873 603.627 867.627 609 861 609H756C749.373 609 744 603.627 744 597V452Z" fill="#266940"/>
<path d="M871 63H729.5C729.5 63 737.889 70.6453 741 77C744.166 83.4674 745 95 745 95V221C745 228.732 751.268 235 759 235H839C856.673 235 871 220.673 871 203V63Z" fill="#266940"/>
<path fill-rule="evenodd" clip-rule="evenodd" d="M877.065 417.946L881 419H926C969.63 419 1005 383.63 1005 340C1005 296.37 969.63 261 926 261H894.327C874.587 285.393 844.969 349.819 877.065 417.946ZM864.058 267H704V411.5H850.452C828.546 351.814 845.254 298.394 864.058 267Z" fill="#877550"/>
<rect x="376" y="139" width="180" height="35" fill="#7A9AC7"/>
<rect x="376" y="136" width="180" height="19" fill="#64A4C9"/>
<path d="M262 139.5V155V429.5H221V139.5H262Z" fill="#64A4C9"/>
<path d="M261.5 455H220.5V582H329V569H261.5V455Z" fill="#64A4C9"/>
<path d="M362 582V565H460V582H362Z" fill="#7A9AC7"/>
<rect x="262" y="139" width="81" height="16" fill="#64A4C9"/>
<path d="M641.5 409H672.5L673 580H659.5C659.5 580 641.5 504.5 641.5 409Z" fill="#8BB9D2"/>
<path d="M642.5 308H673.5L674 140H660.5C660.5 140 642.5 212.5 642.5 308Z" fill="#8BB9D2"/>
<path d="M889 72.5V218M931.5 72.5V252.842C931.5 254.034 932.466 255 933.658 255V255C977.753 255 1013.5 290.747 1013.5 334.842V341C1013.5 388.496 974.996 427 927.5 427H728.697C724.446 427 721 430.446 721 434.697V597C721 610.255 710.255 621 697 621H200.5C187.245 621 176.5 610.255 176.5 597V124.5C176.5 111.245 187.245 100.5 200.5 100.5H697C710.255 100.5 721 111.245 721 124.5V231C721 244.255 731.745 255 745 255H865C878.255 255 889 244.255 889 231V218M936.5 644V435.5M882.5 644V449C882.5 449 811 357.5 882.5 262C889 248.5 889 236.8 889 218M92 346.5H160.5C169.337 346.5 176.5 339.337 176.5 330.5V320M92 381H160.5C169.337 381 176.5 388.163 176.5 397V403" stroke="#C77F57" stroke-width="3"/>
<path d="M88 346L95.5 341.67L95.5 350.33L88 346Z" fill="#C77F57"/>
<path d="M434 100L441.5 95.6699L441.5 104.33L434 100Z" fill="#C77F57"/>
<path d="M889 214L884.67 206.5L893.33 206.5L889 214Z" fill="#C77F57"/>
<path d="M931 69L926.67 76.5L935.33 76.5L931 69Z" fill="#C77F57"/>
<path d="M937 432L932.67 439.5L941.33 439.5L937 432Z" fill="#C77F57"/>
<path d="M885.5 453.332L885.5 444.672L878 449.002L885.5 453.332Z" fill="#C77F57"/>
<path d="M857 427L849.5 422.67L849.5 431.33L857 427Z" fill="#C77F57"/>
<path d="M883 647L887.33 639.5H878.67L883 647Z" fill="#C77F57"/>
<path d="M177.417 398.954L171.294 392.831L179.659 390.589L177.417 398.954Z" fill="#C77F57"/>
<path d="M460.152 304.72H457.24L457.128 308.556H459.312V310.908H457.044V311.216C457.007 312.131 456.857 312.821 456.596 313.288C456.335 313.773 455.915 314.119 455.336 314.324C454.757 314.529 453.927 314.66 452.844 314.716L450.436 314.856L449.624 312.42L452.172 312.28C453.049 312.224 453.647 312.112 453.964 311.944C454.281 311.757 454.468 311.412 454.524 310.908H442.428L443.072 304.72H441.196V302.452H443.324L443.828 297.72C443.249 298.411 442.979 298.737 443.016 298.7L441.308 296.908C442.316 295.825 443.268 294.575 444.164 293.156C445.06 291.719 445.769 290.347 446.292 289.04L448.56 289.768C448.299 290.44 447.963 291.149 447.552 291.896H459.144V294.164H446.292C445.863 294.873 445.377 295.611 444.836 296.376H457.52L457.464 297.776L457.324 302.452H460.152V304.72ZM441.224 295.816C440.664 295.237 439.88 294.547 438.872 293.744C437.883 292.923 437.043 292.288 436.352 291.84L437.752 289.992C438.443 290.421 439.255 291 440.188 291.728C441.121 292.437 441.896 293.072 442.512 293.632L441.224 295.816ZM440.02 302.088C439.46 301.509 438.667 300.809 437.64 299.988C436.613 299.148 435.755 298.504 435.064 298.056L436.464 296.152C437.192 296.6 438.051 297.197 439.04 297.944C440.048 298.691 440.813 299.325 441.336 299.848L440.02 302.088ZM446.208 298.644L445.788 302.452H451.248C450.072 301.369 449.008 300.52 448.056 299.904L448.952 298.644H446.208ZM454.972 302.452L455.056 300.604L455.14 298.644H450.072C451.248 299.465 452.153 300.165 452.788 300.744L451.752 302.452H454.972ZM441.084 304.944C440.86 305.896 440.347 307.557 439.544 309.928C438.741 312.299 438.153 313.885 437.78 314.688L435.372 313.82C435.764 313.036 436.38 311.468 437.22 309.116C438.079 306.745 438.629 305.075 438.872 304.104L441.084 304.944ZM445.508 304.72L445.088 308.556H450.772C450.324 308.145 449.783 307.688 449.148 307.184C448.513 306.68 447.991 306.297 447.58 306.036L448.56 304.72H445.508ZM454.664 308.556L454.72 307.464C454.795 306.4 454.841 305.485 454.86 304.72H449.512C450.016 305.056 450.539 305.439 451.08 305.868C451.64 306.279 452.079 306.633 452.396 306.932L451.332 308.556H454.664ZM460.264 345.12V347.668H452.312V353.744H449.68V347.668H441.84V345.12H449.68V341.592H443.548V339.1H449.68V335.488H443.352V332.968H447.244C446.964 332.445 446.572 331.783 446.068 330.98C445.564 330.159 445.2 329.599 444.976 329.3L447.076 328.012C447.505 328.591 448.261 329.767 449.344 331.54L449.652 332.044L448.168 332.968H451.836C452.321 332.221 452.835 331.381 453.376 330.448C453.936 329.515 454.375 328.731 454.692 328.096L457.128 329.216C456.512 330.336 455.756 331.587 454.86 332.968H459.144V335.488H452.312V339.1H458.528V341.592H452.312V345.12H460.264ZM441.56 335.152C441.019 334.573 440.253 333.901 439.264 333.136C438.275 332.352 437.397 331.717 436.632 331.232L438.032 329.216C438.779 329.683 439.647 330.28 440.636 331.008C441.644 331.736 442.419 332.352 442.96 332.856L441.56 335.152ZM440.552 341.676C439.917 341.041 439.059 340.304 437.976 339.464C436.893 338.605 435.988 337.943 435.26 337.476L436.66 335.404C437.425 335.871 438.34 336.487 439.404 337.252C440.468 338.017 441.308 338.689 441.924 339.268L440.552 341.676ZM441.924 344.336C441.663 345.325 441.131 346.903 440.328 349.068C439.525 351.215 438.9 352.727 438.452 353.604L435.932 352.68C436.305 351.915 436.921 350.384 437.78 348.088C438.639 345.792 439.189 344.187 439.432 343.272L441.924 344.336ZM458.724 380.872H449.624V389.188C449.624 390.047 449.503 390.7 449.26 391.148C449.017 391.596 448.625 391.923 448.084 392.128C447.561 392.333 446.796 392.473 445.788 392.548L444.052 392.688L443.24 390.084L445.032 389.916C445.573 389.879 445.965 389.813 446.208 389.72C446.469 389.627 446.637 389.487 446.712 389.3C446.805 389.095 446.852 388.787 446.852 388.376V380.872H437.388L438.536 369.532C441.616 369.439 444.827 369.252 448.168 368.972C451.528 368.673 454.412 368.319 456.82 367.908L457.352 370.512C455.131 370.848 452.536 371.156 449.568 371.436C446.6 371.716 443.753 371.931 441.028 372.08L440.328 378.324H446.852V372.78L449.624 372.864V378.324H458.724V380.872ZM443.576 383.532C442.829 384.727 441.84 386.08 440.608 387.592C439.395 389.104 438.181 390.476 436.968 391.708L434.952 389.972C436.184 388.777 437.379 387.461 438.536 386.024C439.712 384.587 440.645 383.28 441.336 382.104L443.576 383.532ZM453.6 382.104C454.627 383.205 455.747 384.456 456.96 385.856C458.192 387.237 459.247 388.488 460.124 389.608L458.108 391.68C457.231 390.467 456.157 389.095 454.888 387.564C453.619 386.033 452.517 384.773 451.584 383.784L453.6 382.104ZM436.8 431.744V407.496H458.696V431.744H456.26V430.512H439.348V431.744H436.8ZM439.348 409.932V428.216H456.26V409.932H439.348ZM441.644 412.368H453.852V414.524H441.644V412.368ZM455.308 422.392C455.289 422.747 455.224 423.344 455.112 424.184C454.963 425.08 454.711 425.696 454.356 426.032C454.001 426.368 453.404 426.545 452.564 426.564H450.576C449.736 426.545 449.148 426.34 448.812 425.948C448.476 425.556 448.308 424.893 448.308 423.96V419.2H446.04C445.984 420.637 445.797 421.832 445.48 422.784C445.181 423.736 444.696 424.585 444.024 425.332C443.352 426.06 442.4 426.835 441.168 427.656L439.656 425.612C440.739 424.996 441.569 424.399 442.148 423.82C442.727 423.223 443.128 422.579 443.352 421.888C443.595 421.179 443.735 420.283 443.772 419.2H440.356V417.072H455.112V419.2H450.492V423.456C450.492 423.848 450.548 424.128 450.66 424.296C450.772 424.445 450.987 424.52 451.304 424.52H452.116C452.489 424.501 452.732 424.436 452.844 424.324C452.975 424.193 453.077 423.876 453.152 423.372C453.264 422.756 453.32 422.215 453.32 421.748L455.308 422.392Z" fill="#203C63"/>
<path d="M344.088 316.84V312.712H353.592V316.84H344.088ZM352.088 314.008H345.592V315.576H352.088V314.008ZM343.576 323.336V318.056H354.104V323.272H352.632V319.432H345.064V323.336H343.576ZM341.88 325.272C343.779 324.92 345.203 324.488 346.152 323.976C347.112 323.464 347.688 322.787 347.88 321.944C348.008 321.464 348.099 320.835 348.152 320.056L349.656 320.12C349.635 320.365 349.587 320.739 349.512 321.24C349.448 321.741 349.379 322.163 349.304 322.504C349.101 323.411 348.429 324.232 347.288 324.968C346.157 325.693 344.525 326.28 342.392 326.728L341.88 325.272ZM349.784 322.776C352.205 323.725 354.104 324.541 355.48 325.224L354.936 326.712C352.995 325.699 351.085 324.808 349.208 324.04L349.784 322.776ZM349.672 336.872V346.152H355.8V347.576H341.896V346.152H348.008V336.872H342.984V335.368H354.728V336.872H349.672ZM344.024 359.064V360.936H342.568V357.8H348.296C348.136 357.235 347.981 356.76 347.832 356.376L349.4 356.152C349.699 357.016 349.885 357.565 349.96 357.8H355.096V360.008H353.656V359.064H344.024ZM346.36 359.96C346.051 360.803 345.656 361.635 345.176 362.456V370.632H343.736V364.632C343.213 365.315 342.675 365.949 342.12 366.536L341.432 365.096C342.125 364.403 342.813 363.544 343.496 362.52C344.179 361.496 344.691 360.509 345.032 359.56L346.36 359.96ZM355.496 361.688H351.464C351.357 362.093 351.229 362.557 351.08 363.08H354.52V370.504H353.112V369.8H348.328V370.552H346.92V363.08H349.56C349.667 362.707 349.789 362.243 349.928 361.688H346.328V360.456H355.496V361.688ZM348.328 365.848H353.112V364.28H348.328V365.848ZM348.328 367.032V368.616H353.112V367.032H348.328ZM352.568 383.112H349.608V384.6H355.128V385.864H349.608V387.32H353.864V392.6H352.392V391.896H345.256V392.6H343.784V387.32H348.104V385.864H342.52V384.6H348.104V383.112H345.128V382.296C344.264 382.787 343.283 383.267 342.184 383.736L341.576 382.328C344.488 381.261 346.701 379.827 348.216 378.024H349.496C350.232 378.899 351.165 379.693 352.296 380.408C353.427 381.123 354.691 381.731 356.088 382.232L355.464 383.64C354.483 383.235 353.517 382.765 352.568 382.232V383.112ZM345.848 381.864H351.928C350.573 381.043 349.549 380.2 348.856 379.336C348.131 380.211 347.128 381.053 345.848 381.864ZM345.256 390.648H352.392V388.616H345.256V390.648Z" fill="#203C63"/>
<path d="M332.368 344.536L332.256 347.288C332.117 351.203 332.027 353.416 331.984 353.928C331.952 354.451 331.845 354.856 331.664 355.144C331.483 355.443 331.221 355.661 330.88 355.8C330.539 355.939 330.08 356.029 329.504 356.072L328.256 356.168L327.808 354.808L329.104 354.712C329.509 354.68 329.813 354.627 330.016 354.552C330.229 354.467 330.384 354.333 330.48 354.152C330.587 353.96 330.651 353.677 330.672 353.304C330.715 352.408 330.773 351.171 330.848 349.592C330.933 348.003 330.992 346.771 331.024 345.896H330.32C330.085 347.485 329.787 348.845 329.424 349.976C329.072 351.107 328.555 352.184 327.872 353.208C327.2 354.232 326.277 355.267 325.104 356.312L324.16 355.256C325.248 354.317 326.112 353.379 326.752 352.44C327.392 351.501 327.883 350.525 328.224 349.512C328.576 348.499 328.875 347.293 329.12 345.896H328.048C327.739 347.421 327.259 348.781 326.608 349.976C325.957 351.16 325.045 352.323 323.872 353.464L322.976 352.392C324.021 351.475 324.848 350.504 325.456 349.48C326.075 348.456 326.533 347.261 326.832 345.896H325.776C325.307 346.877 324.821 347.736 324.32 348.472L323.216 347.64C323.749 346.936 324.251 346.067 324.72 345.032C325.2 343.997 325.579 342.973 325.856 341.96L327.168 342.344C326.912 343.155 326.651 343.885 326.384 344.536H332.368ZM324.16 350.296C323.605 350.541 323.067 350.771 322.544 350.984V356.52H321.248V351.512C320.373 351.875 319.573 352.195 318.848 352.472L318.464 351.064C319.061 350.872 319.989 350.531 321.248 350.04V346.584H320.256C320.096 347.747 319.936 348.712 319.776 349.48L318.528 349.256C318.72 348.445 318.891 347.512 319.04 346.456C319.189 345.4 319.291 344.387 319.344 343.416L320.576 343.528C320.555 343.848 320.501 344.413 320.416 345.224H321.248V342.088L322.544 342.152V345.224H323.888V346.584H322.544V349.528L323.968 348.936L324.064 349.608L324.16 350.296ZM328.336 376.456H332.864V377.88H318.864V376.456H323.408V364.264L324.944 364.328V376.456H326.784V364.264L328.336 364.312V376.456ZM321.872 373.992C321.552 372.979 321.136 371.843 320.624 370.584C320.123 369.315 319.68 368.291 319.296 367.512L320.688 366.872C321.051 367.587 321.504 368.605 322.048 369.928C322.603 371.24 323.019 372.317 323.296 373.16L321.872 373.992ZM332.448 367.48C332.149 368.419 331.733 369.523 331.2 370.792C330.677 372.061 330.181 373.144 329.712 374.04L328.336 373.352C328.837 372.424 329.333 371.357 329.824 370.152C330.325 368.947 330.72 367.859 331.008 366.888L332.448 367.48Z" fill="#203C63"/>
<path d="M320.688 220.456C320.272 220.957 319.835 221.427 319.376 221.864L318.576 220.648C319.227 220.115 319.867 219.416 320.496 218.552C321.136 217.688 321.648 216.829 322.032 215.976L323.328 216.456C323.232 216.659 323.003 217.085 322.64 217.736H325.952C325.824 217.256 325.675 216.792 325.504 216.344L326.864 216.088C327.109 216.781 327.285 217.331 327.392 217.736H331.968V218.808H327.312V219.704H331.568V220.696H327.312V221.576H331.568V222.6H327.312V223.496H332.256V224.6H320.688V220.456ZM322.048 219.704H325.952V218.808H322.048V219.704ZM322.048 221.576H325.952V220.696H322.048V221.576ZM322.048 223.496H325.952V222.6H322.048V223.496ZM332.512 230.328C331.125 229.901 329.957 229.485 329.008 229.08C328.059 228.685 327.232 228.232 326.528 227.72V230.6H325.136V227.784C324.4 228.317 323.547 228.787 322.576 229.192C321.616 229.597 320.496 229.997 319.216 230.392L318.656 229.096C321.291 228.456 323.243 227.699 324.512 226.824H319.248V225.656H325.136V224.792L326.528 224.84V225.656H332.512V226.824H327.184C328.699 227.752 330.656 228.493 333.056 229.048L332.512 230.328ZM319.568 252.632V238.808H332.112V252.632H330.624V251.816H321.056V252.632H319.568ZM321.056 240.168V250.536H330.624V240.168H321.056ZM330.048 242.312V243.576H328.288V248.024C328.288 248.483 328.224 248.835 328.096 249.08C327.979 249.325 327.776 249.501 327.488 249.608C327.211 249.715 326.8 249.789 326.256 249.832L325.008 249.928L324.56 248.6L325.968 248.504C326.331 248.472 326.571 248.392 326.688 248.264C326.805 248.136 326.869 247.907 326.88 247.576V244.504C325.696 246.168 324.091 247.651 322.064 248.952L321.2 247.784C323.248 246.611 324.832 245.208 325.952 243.576H321.792V242.312H326.88V240.664L328.288 240.728V242.312H330.048Z" fill="#203C63"/>
<path d="M254.196 261.258V263.15H247.948V266.01H252.942V280.024H251.006V278.66H238.532V280.002H236.552V266.01H241.37V263.15H235.386V261.258H254.196ZM243.306 266.01H245.968V263.15H243.306V266.01ZM238.532 267.946V273.622C239.383 273.065 240.006 272.544 240.402 272.06C240.798 271.561 241.055 271.019 241.172 270.432C241.289 269.845 241.355 269.017 241.37 267.946H238.532ZM238.532 276.768H251.006V273.908H248.762C247.735 273.908 247.009 273.71 246.584 273.314C246.173 272.903 245.968 272.199 245.968 271.202V267.946H243.306C243.291 269.237 243.181 270.293 242.976 271.114C242.785 271.921 242.426 272.647 241.898 273.292C241.37 273.923 240.6 274.546 239.588 275.162L238.532 273.93V276.768ZM251.006 267.946H247.948V270.542C247.948 271.129 248.043 271.517 248.234 271.708C248.425 271.884 248.821 271.972 249.422 271.972H251.006V267.946ZM238.862 294.458V308.428H254.328V310.364H236.75V292.456H253.888V294.458H238.862ZM239.126 306.03C240.989 304.739 242.895 303.126 244.846 301.19C242.705 299.049 241.099 297.501 240.028 296.548L241.458 295.03C242.778 296.189 244.413 297.721 246.364 299.628C247.86 298 249.143 296.401 250.214 294.832L251.93 296.13C250.757 297.773 249.407 299.423 247.882 301.08C249.994 303.192 251.578 304.813 252.634 305.942L251.182 307.856C249.847 306.36 248.234 304.644 246.342 302.708C244.333 304.717 242.367 306.419 240.446 307.812L239.126 306.03Z" fill="#203C63"/>
<path d="M236.2 478.274V473.368H253.58V478.186H251.402V475.304H238.29V478.274H236.2ZM241.04 479.902L240.82 482.256H252.48C252.451 483.092 252.399 484.177 252.326 485.512C252.253 486.832 252.194 487.837 252.15 488.526C252.091 489.362 251.93 490.007 251.666 490.462C251.417 490.917 251.028 491.247 250.5 491.452C249.987 491.672 249.253 491.819 248.3 491.892L246.254 492.046L245.638 490.132L247.706 490C248.307 489.956 248.762 489.875 249.07 489.758C249.378 489.641 249.605 489.457 249.752 489.208C249.899 488.944 249.994 488.555 250.038 488.042C250.097 487.397 250.155 486.641 250.214 485.776C250.273 484.896 250.302 484.346 250.302 484.126H238.532L239.302 476.162L241.392 476.25L241.216 478.076H251.05V479.902H241.04ZM235.562 486.348H248.872V488.218H235.562V486.348ZM238.092 507.624V510.594H236.046V505.688H243.856C243.607 504.779 243.387 504.053 243.196 503.51L245.396 503.158C245.572 503.686 245.829 504.529 246.166 505.688H253.58V510.616H251.512V507.624H238.092ZM254.35 515.104V517.04H245.924V520.164C245.924 520.927 245.851 521.491 245.704 521.858C245.557 522.239 245.301 522.503 244.934 522.65C244.567 522.811 243.995 522.921 243.218 522.98L241.458 523.112L240.82 521.154L242.514 521.022C242.925 520.993 243.218 520.941 243.394 520.868C243.585 520.78 243.709 520.648 243.768 520.472C243.841 520.281 243.878 519.988 243.878 519.592V517.04H235.188V515.104H243.878V513.938L247.376 511.672H238.774V509.758H250.852V511.716L245.924 514.796V515.104H254.35ZM240.71 545.73C240.299 545.129 239.881 544.571 239.456 544.058V554.244H237.718V544.432C237.058 546.207 236.332 547.747 235.54 549.052L234.242 547.666C234.785 546.786 235.379 545.642 236.024 544.234C236.669 542.811 237.205 541.469 237.63 540.208H235.32V538.338H237.718V534.444L239.456 534.51V538.338H241.392V540.208H239.456V542.474L239.83 542.078C240.329 542.562 240.827 543.119 241.326 543.75L241.216 543.508C242.947 542.789 244.487 541.814 245.836 540.582H241.788V538.888H246.65V534.422L248.476 534.488V538.888H253.778V540.582H249.356C250.764 541.858 252.524 542.877 254.636 543.64L253.976 545.4C252.759 544.857 251.71 544.315 250.83 543.772C249.95 543.215 249.165 542.599 248.476 541.924V544.564H246.65V542.034C245.403 543.295 243.878 544.381 242.074 545.29L241.744 544.608L240.71 545.73ZM243.328 534.818C243.665 535.155 244.069 535.625 244.538 536.226C245.022 536.813 245.396 537.319 245.66 537.744L244.384 538.888C244.135 538.463 243.775 537.942 243.306 537.326C242.851 536.695 242.455 536.204 242.118 535.852L243.328 534.818ZM253.074 535.808C252.781 536.248 252.377 536.783 251.864 537.414C251.351 538.045 250.925 538.536 250.588 538.888L249.334 537.766C249.671 537.429 250.089 536.959 250.588 536.358C251.087 535.757 251.475 535.251 251.754 534.84L253.074 535.808ZM247.178 544.828C247.017 545.283 246.855 545.671 246.694 545.994H254.35V547.754H251.776C251.219 549.015 250.581 550.02 249.862 550.768C250.933 551.193 252.333 551.78 254.064 552.528L253.25 554.2C251.989 553.555 250.346 552.807 248.322 551.956C247.515 552.425 246.525 552.851 245.352 553.232C244.179 553.628 242.727 554.009 240.996 554.376L240.358 552.638C243.071 552.125 245.037 551.611 246.254 551.098L242.426 549.624C242.91 548.905 243.313 548.282 243.636 547.754H240.93V545.994H244.648C244.985 545.319 245.235 544.777 245.396 544.366L247.178 544.828ZM245.792 547.754C245.601 548.106 245.367 548.502 245.088 548.942C245.631 549.133 246.621 549.499 248.058 550.042C248.425 549.749 248.733 549.419 248.982 549.052C249.246 548.685 249.495 548.253 249.73 547.754H245.792Z" fill="#203C63"/>
<path d="M627.6 513.472V509.904H640.24V513.408H638.656V511.312H629.12V513.472H627.6ZM631.12 514.656L630.96 516.368H639.44C639.419 516.976 639.381 517.765 639.328 518.736C639.275 519.696 639.232 520.427 639.2 520.928C639.157 521.536 639.04 522.005 638.848 522.336C638.667 522.667 638.384 522.907 638 523.056C637.627 523.216 637.093 523.323 636.4 523.376L634.912 523.488L634.464 522.096L635.968 522C636.405 521.968 636.736 521.909 636.96 521.824C637.184 521.739 637.349 521.605 637.456 521.424C637.563 521.232 637.632 520.949 637.664 520.576C637.707 520.107 637.749 519.557 637.792 518.928C637.835 518.288 637.856 517.888 637.856 517.728H629.296L629.856 511.936L631.376 512L631.248 513.328H638.4V514.656H631.12ZM627.136 519.344H636.816V520.704H627.136V519.344ZM628.976 534.272V536.432H627.488V532.864H633.168C632.987 532.203 632.827 531.675 632.688 531.28L634.288 531.024C634.416 531.408 634.603 532.021 634.848 532.864H640.24V536.448H638.736V534.272H628.976ZM640.8 539.712V541.12H634.672V543.392C634.672 543.947 634.619 544.357 634.512 544.624C634.405 544.901 634.219 545.093 633.952 545.2C633.685 545.317 633.269 545.397 632.704 545.44L631.424 545.536L630.96 544.112L632.192 544.016C632.491 543.995 632.704 543.957 632.832 543.904C632.971 543.84 633.061 543.744 633.104 543.616C633.157 543.477 633.184 543.264 633.184 542.976V541.12H626.864V539.712H633.184V538.864L635.728 537.216H629.472V535.824H638.256V537.248L634.672 539.488V539.712H640.8ZM630.88 561.44C630.581 561.003 630.277 560.597 629.968 560.224V567.632H628.704V560.496C628.224 561.787 627.696 562.907 627.12 563.856L626.176 562.848C626.571 562.208 627.003 561.376 627.472 560.352C627.941 559.317 628.331 558.341 628.64 557.424H626.96V556.064H628.704V553.232L629.968 553.28V556.064H631.376V557.424H629.968V559.072L630.24 558.784C630.603 559.136 630.965 559.541 631.328 560L631.248 559.824C632.507 559.301 633.627 558.592 634.608 557.696H631.664V556.464H635.2V553.216L636.528 553.264V556.464H640.384V557.696H637.168C638.192 558.624 639.472 559.365 641.008 559.92L640.528 561.2C639.643 560.805 638.88 560.411 638.24 560.016C637.6 559.611 637.029 559.163 636.528 558.672V560.592H635.2V558.752C634.293 559.669 633.184 560.459 631.872 561.12L631.632 560.624L630.88 561.44ZM632.784 553.504C633.029 553.749 633.323 554.091 633.664 554.528C634.016 554.955 634.288 555.323 634.48 555.632L633.552 556.464C633.371 556.155 633.109 555.776 632.768 555.328C632.437 554.869 632.149 554.512 631.904 554.256L632.784 553.504ZM639.872 554.224C639.659 554.544 639.365 554.933 638.992 555.392C638.619 555.851 638.309 556.208 638.064 556.464L637.152 555.648C637.397 555.403 637.701 555.061 638.064 554.624C638.427 554.187 638.709 553.819 638.912 553.52L639.872 554.224ZM635.584 560.784C635.467 561.115 635.349 561.397 635.232 561.632H640.8V562.912H638.928C638.523 563.829 638.059 564.56 637.536 565.104C638.315 565.413 639.333 565.84 640.592 566.384L640 567.6C639.083 567.131 637.888 566.587 636.416 565.968C635.829 566.309 635.109 566.619 634.256 566.896C633.403 567.184 632.347 567.461 631.088 567.728L630.624 566.464C632.597 566.091 634.027 565.717 634.912 565.344L632.128 564.272C632.48 563.749 632.773 563.296 633.008 562.912H631.04V561.632H633.744C633.989 561.141 634.171 560.747 634.288 560.448L635.584 560.784ZM634.576 562.912C634.437 563.168 634.267 563.456 634.064 563.776C634.459 563.915 635.179 564.181 636.224 564.576C636.491 564.363 636.715 564.123 636.896 563.856C637.088 563.589 637.269 563.275 637.44 562.912H634.576Z" fill="#203C63"/>
<path d="M667.128 433.784H661.928V438.536C661.928 439.027 661.859 439.4 661.72 439.656C661.581 439.912 661.357 440.099 661.048 440.216C660.749 440.333 660.312 440.413 659.736 440.456L658.744 440.536L658.28 439.048L659.304 438.952C659.613 438.931 659.837 438.893 659.976 438.84C660.125 438.787 660.221 438.707 660.264 438.6C660.317 438.483 660.344 438.307 660.344 438.072V433.784H654.936L655.592 427.304C657.352 427.251 659.187 427.144 661.096 426.984C663.016 426.813 664.664 426.611 666.04 426.376L666.344 427.864C665.075 428.056 663.592 428.232 661.896 428.392C660.2 428.552 658.573 428.675 657.016 428.76L656.616 432.328H660.344V429.16L661.928 429.208V432.328H667.128V433.784ZM658.472 435.304C658.045 435.987 657.48 436.76 656.776 437.624C656.083 438.488 655.389 439.272 654.696 439.976L653.544 438.984C654.248 438.301 654.931 437.549 655.592 436.728C656.264 435.907 656.797 435.16 657.192 434.488L658.472 435.304ZM664.2 434.488C664.787 435.117 665.427 435.832 666.12 436.632C666.824 437.421 667.427 438.136 667.928 438.776L666.776 439.96C666.275 439.267 665.661 438.483 664.936 437.608C664.211 436.733 663.581 436.013 663.048 435.448L664.2 434.488ZM661.688 455.128C662.125 456.472 662.856 457.619 663.88 458.568C664.904 459.507 666.275 460.355 667.992 461.112L667.144 462.664C665.459 461.779 664.12 460.893 663.128 460.008C662.136 459.112 661.389 458.083 660.888 456.92C659.885 459.075 657.789 460.973 654.6 462.616L653.704 461.208C655.517 460.344 656.936 459.416 657.96 458.424C658.984 457.432 659.624 456.333 659.88 455.128H654.2V453.72H659.992V450.584H655.048V449.16H666.552V450.584H661.544V453.72H667.4V455.128H661.688ZM667.72 472.312H661.48C661.341 472.931 661.187 473.565 661.016 474.216H666.056V484.536H664.616V483.624H657.096V484.552H655.656V474.216H659.384C659.512 473.811 659.683 473.176 659.896 472.312H653.944V470.904H667.72V472.312ZM657.096 478.216H664.616V475.64H657.096V478.216ZM657.096 479.608V482.232H664.616V479.608H657.096ZM656.44 495.944C655.832 496.477 655.192 496.995 654.52 497.496L653.832 496.264C654.664 495.667 655.443 495 656.168 494.264C656.904 493.517 657.523 492.765 658.024 492.008L659.128 492.728C658.755 493.315 658.333 493.896 657.864 494.472V498.872H656.44V495.944ZM658.2 495.784C659.171 495.549 660.131 495.277 661.08 494.968V492.264L662.552 492.328V494.44C663.789 493.971 665.059 493.368 666.36 492.632L666.968 493.896C665.581 494.696 664.109 495.384 662.552 495.96V496.344C662.552 496.685 662.611 496.915 662.728 497.032C662.856 497.139 663.075 497.203 663.384 497.224C663.704 497.256 664.029 497.272 664.36 497.272C664.701 497.272 665.021 497.256 665.32 497.224C665.661 497.203 665.891 497.144 666.008 497.048C666.136 496.952 666.227 496.76 666.28 496.472C666.355 496.163 666.397 495.795 666.408 495.368L667.768 495.848C667.725 496.296 667.661 496.717 667.576 497.112C667.491 497.496 667.379 497.784 667.24 497.976C667.101 498.168 666.909 498.307 666.664 498.392C666.419 498.477 666.067 498.531 665.608 498.552C664.989 498.573 664.509 498.584 664.168 498.584C663.827 498.584 663.347 498.573 662.728 498.552C662.131 498.52 661.704 498.381 661.448 498.136C661.203 497.891 661.08 497.453 661.08 496.824V496.456C660.227 496.733 659.411 496.968 658.632 497.16L658.2 495.784ZM665.928 499.544V503.72H664.472V500.824H657.336V503.72H655.864V499.544H665.928ZM661.672 501.32C661.597 502.056 661.533 502.541 661.48 502.776C661.331 503.405 661.043 503.944 660.616 504.392C660.189 504.829 659.485 505.245 658.504 505.64C657.533 506.035 656.168 506.419 654.408 506.792L653.816 505.4C655.288 505.123 656.461 504.835 657.336 504.536C658.211 504.227 658.845 503.901 659.24 503.56C659.635 503.219 659.88 502.835 659.976 502.408C660.051 502.12 660.099 501.725 660.12 501.224L661.672 501.32ZM661.976 503.304C662.84 503.571 663.784 503.901 664.808 504.296C665.843 504.68 666.808 505.064 667.704 505.448L667.24 506.936C666.44 506.531 665.501 506.104 664.424 505.656C663.357 505.219 662.36 504.84 661.432 504.52L661.976 503.304Z" fill="#203C63"/>
<path d="M664.592 216.2L664.352 226.264C664.331 227.011 664.139 227.539 663.776 227.848C663.413 228.168 662.811 228.365 661.968 228.44L660.976 228.52L660.512 227.112L661.616 227.032C662.021 227 662.315 226.947 662.496 226.872C662.688 226.797 662.821 226.675 662.896 226.504C662.971 226.323 663.013 226.035 663.024 225.64C663.056 224.691 663.088 223.347 663.12 221.608C663.163 219.869 663.189 218.52 663.2 217.56H658.88C658.485 218.381 658.117 219.085 657.776 219.672L656.688 219V224.296H655.456V216.472H652.816V224.36H651.568V215.128H656.688V218.824C657.125 218.109 657.531 217.325 657.904 216.472C658.288 215.608 658.597 214.781 658.832 213.992L660.128 214.296C659.947 214.936 659.728 215.571 659.472 216.2H664.592ZM654.768 217.608V222.472C654.768 223.421 654.661 224.232 654.448 224.904C654.235 225.576 653.899 226.2 653.44 226.776C652.981 227.352 652.336 227.987 651.504 228.68L650.56 227.624C651.328 227.091 651.92 226.579 652.336 226.088C652.763 225.597 653.072 225.043 653.264 224.424C653.456 223.805 653.552 223.043 653.552 222.136V217.544L654.768 217.608ZM661.856 225.576C661.845 225.512 661.76 225.208 661.6 224.664C660.597 224.749 659.493 224.867 658.288 225.016L657.376 225.176L656.96 223.88C657.184 223.763 657.371 223.549 657.52 223.24C657.744 222.792 658.027 222.093 658.368 221.144C658.709 220.184 658.992 219.315 659.216 218.536L660.464 218.904C660.229 219.715 659.936 220.6 659.584 221.56C659.232 222.52 658.933 223.229 658.688 223.688L661.184 223.448C660.811 222.371 660.453 221.485 660.112 220.792L661.232 220.312C661.509 220.92 661.824 221.693 662.176 222.632C662.528 223.56 662.789 224.323 662.96 224.92L661.856 225.576ZM655.056 224.696C655.941 225.56 656.683 226.381 657.28 227.16L656.416 228.264C655.797 227.347 655.067 226.451 654.224 225.576L655.056 224.696ZM664.368 238.536L664.256 241.288C664.117 245.203 664.027 247.416 663.984 247.928C663.952 248.451 663.845 248.856 663.664 249.144C663.483 249.443 663.221 249.661 662.88 249.8C662.539 249.939 662.08 250.029 661.504 250.072L660.256 250.168L659.808 248.808L661.104 248.712C661.509 248.68 661.813 248.627 662.016 248.552C662.229 248.467 662.384 248.333 662.48 248.152C662.587 247.96 662.651 247.677 662.672 247.304C662.715 246.408 662.773 245.171 662.848 243.592C662.933 242.003 662.992 240.771 663.024 239.896H662.32C662.085 241.485 661.787 242.845 661.424 243.976C661.072 245.107 660.555 246.184 659.872 247.208C659.2 248.232 658.277 249.267 657.104 250.312L656.16 249.256C657.248 248.317 658.112 247.379 658.752 246.44C659.392 245.501 659.883 244.525 660.224 243.512C660.576 242.499 660.875 241.293 661.12 239.896H660.048C659.739 241.421 659.259 242.781 658.608 243.976C657.957 245.16 657.045 246.323 655.872 247.464L654.976 246.392C656.021 245.475 656.848 244.504 657.456 243.48C658.075 242.456 658.533 241.261 658.832 239.896H657.776C657.307 240.877 656.821 241.736 656.32 242.472L655.216 241.64C655.749 240.936 656.251 240.067 656.72 239.032C657.2 237.997 657.579 236.973 657.856 235.96L659.168 236.344C658.912 237.155 658.651 237.885 658.384 238.536H664.368ZM656.16 244.296C655.605 244.541 655.067 244.771 654.544 244.984V250.52H653.248V245.512C652.373 245.875 651.573 246.195 650.848 246.472L650.464 245.064C651.061 244.872 651.989 244.531 653.248 244.04V240.584H652.256C652.096 241.747 651.936 242.712 651.776 243.48L650.528 243.256C650.72 242.445 650.891 241.512 651.04 240.456C651.189 239.4 651.291 238.387 651.344 237.416L652.576 237.528C652.555 237.848 652.501 238.413 652.416 239.224H653.248V236.088L654.544 236.152V239.224H655.888V240.584H654.544V243.528L655.968 242.936L656.064 243.608L656.16 244.296ZM658.624 261.016H663.92V268.008H658.624V272.584H657.088V268.008H651.744V261.016H657.088V258.072L658.624 258.136V261.016ZM653.28 262.488V266.568H657.088V262.488H653.28ZM658.624 266.568H662.4V262.488H658.624V266.568ZM657.072 280.136C658.171 281.48 659.307 283.075 660.48 284.92L659.232 285.944C658.283 284.259 657.184 282.605 655.936 280.984L657.072 280.136ZM654.576 283.496L656.144 283.576V291.64C656.144 292.003 656.208 292.253 656.336 292.392C656.464 292.52 656.725 292.605 657.12 292.648C657.408 292.68 657.733 292.696 658.096 292.696C658.523 292.696 658.901 292.68 659.232 292.648C659.541 292.616 659.771 292.563 659.92 292.488C660.08 292.413 660.187 292.312 660.24 292.184C660.304 292.056 660.357 291.864 660.4 291.608C660.485 291.107 660.549 290.531 660.592 289.88L662.096 290.392C662.043 291.021 661.963 291.624 661.856 292.2C661.76 292.691 661.632 293.064 661.472 293.32C661.312 293.587 661.083 293.779 660.784 293.896C660.496 294.024 660.091 294.104 659.568 294.136C659.184 294.168 658.72 294.184 658.176 294.184C657.643 294.184 657.152 294.168 656.704 294.136C656.171 294.104 655.749 294.013 655.44 293.864C655.141 293.725 654.923 293.496 654.784 293.176C654.645 292.867 654.576 292.44 654.576 291.896V283.496ZM662.576 284.456C663.013 285.277 663.461 286.216 663.92 287.272C664.389 288.317 664.816 289.347 665.2 290.36L663.824 291.096C663.44 290.008 663.019 288.931 662.56 287.864C662.112 286.797 661.68 285.864 661.264 285.064L662.576 284.456ZM650.528 291C650.848 290.157 651.168 289.16 651.488 288.008C651.819 286.856 652.091 285.773 652.304 284.76L653.76 285.112C653.536 286.168 653.269 287.272 652.96 288.424C652.651 289.565 652.331 290.579 652 291.464L650.528 291Z" fill="#203C63"/>
<path d="M640.584 169.344H635.896V173.536C635.896 174.037 635.837 174.411 635.72 174.656C635.603 174.912 635.405 175.093 635.128 175.2C634.861 175.307 634.456 175.381 633.912 175.424L632.904 175.52L632.456 174.08L633.512 174C633.8 173.979 634.008 173.947 634.136 173.904C634.264 173.851 634.349 173.771 634.392 173.664C634.435 173.557 634.456 173.381 634.456 173.136V169.344H629.32V167.904C629.971 167.029 630.675 165.888 631.432 164.48H628.216V163.088H632.168C632.573 162.299 632.915 161.563 633.192 160.88L634.648 161.472C634.467 161.909 634.221 162.448 633.912 163.088H641.336V164.48H633.192C632.819 165.195 632.44 165.872 632.056 166.512C631.672 167.141 631.357 167.621 631.112 167.952H634.456V165.232L635.896 165.296V167.952H640.584V169.344ZM632.568 170.976C632.077 171.659 631.464 172.379 630.728 173.136C629.992 173.883 629.256 174.555 628.52 175.152L627.512 173.952C628.237 173.397 628.952 172.768 629.656 172.064C630.36 171.36 630.941 170.672 631.4 170L632.568 170.976ZM638.104 170.032C638.68 170.523 639.315 171.109 640.008 171.792C640.712 172.475 641.363 173.141 641.96 173.792L640.968 175.04C640.339 174.315 639.672 173.595 638.968 172.88C638.275 172.165 637.651 171.573 637.096 171.104L638.104 170.032ZM630.536 185.424V195.584H641.784V196.992H629V183.968H641.464V185.424H630.536ZM630.728 193.84C632.083 192.901 633.469 191.728 634.888 190.32C633.331 188.763 632.163 187.637 631.384 186.944L632.424 185.84C633.384 186.683 634.573 187.797 635.992 189.184C637.08 188 638.013 186.837 638.792 185.696L640.04 186.64C639.187 187.835 638.205 189.035 637.096 190.24C638.632 191.776 639.784 192.955 640.552 193.776L639.496 195.168C638.525 194.08 637.352 192.832 635.976 191.424C634.515 192.885 633.085 194.123 631.688 195.136L630.728 193.84Z" fill="#203C63"/>
<path d="M904.674 344.862H909.558V349.306C909.558 350.142 909.389 350.736 909.052 351.088C908.715 351.455 908.084 351.675 907.16 351.748L906.346 351.814L905.752 350.054L906.764 349.988C907.189 349.959 907.461 349.871 907.578 349.724C907.695 349.563 907.754 349.24 907.754 348.756V346.644H904.674V353.178H902.914V346.644H900.12V351.572H898.338V344.862H902.914V343.014H898.844V335.182H902.1C902.423 334.155 902.621 333.473 902.694 333.136L904.674 333.51L904.146 335.182H908.876V343.014H904.674V344.862ZM895.72 333.818C895.515 334.405 895.221 335.101 894.84 335.908L897.92 335.952V337.712H893.938C893.542 338.445 893.124 339.149 892.684 339.824H897.458V341.628H895.192V344.114H897.7V345.896H895.192V349.46L897.458 347.854L897.876 349.856C897.583 350.017 897.077 350.333 896.358 350.802C895.639 351.271 895.023 351.689 894.51 352.056L894.136 352.342L893.674 352.716L892.728 351.044C892.977 350.912 893.139 350.765 893.212 350.604C893.285 350.428 893.322 350.193 893.322 349.9V345.896H891.166V344.114H893.322V341.628H892.332V340.352L891.87 340.99L890.374 339.648C891.137 338.636 891.819 337.573 892.42 336.458C893.021 335.329 893.461 334.243 893.74 333.202L895.72 333.818ZM907.028 338.306V336.81H900.692V338.306H907.028ZM907.028 339.912H900.692V341.43H907.028V339.912ZM932.49 348.382L932.424 348.866C932.292 349.614 932.175 350.215 932.072 350.67C931.896 351.55 931.632 352.159 931.28 352.496C930.928 352.848 930.518 353.024 930.048 353.024C929.594 353.024 929.168 352.855 928.772 352.518C928.391 352.195 928.01 351.616 927.628 350.78C927.467 350.428 927.306 350.017 927.144 349.548C926.25 350.78 925.201 351.961 923.998 353.09L922.678 351.748C924.248 350.325 925.516 348.866 926.484 347.37C925.883 344.994 925.443 342.061 925.164 338.57H920.984V341.408H924.592C924.563 342.288 924.526 343.454 924.482 344.906C924.438 346.343 924.394 347.509 924.35 348.404C924.336 349.005 924.255 349.475 924.108 349.812C923.962 350.135 923.72 350.377 923.382 350.538C923.06 350.685 922.59 350.787 921.974 350.846L921.182 350.934L920.588 348.976L921.49 348.888C921.842 348.844 922.092 348.793 922.238 348.734C922.385 348.661 922.488 348.543 922.546 348.382C922.605 348.206 922.656 347.905 922.7 347.48C922.73 347.201 922.759 346.578 922.788 345.61C922.832 344.627 922.854 343.865 922.854 343.322H920.984C920.97 344.818 920.867 346.101 920.676 347.172C920.5 348.243 920.207 349.255 919.796 350.208C919.4 351.147 918.836 352.195 918.102 353.354L916.32 352.474C917.112 351.359 917.699 350.355 918.08 349.46C918.476 348.551 918.748 347.561 918.894 346.49C919.041 345.405 919.114 343.989 919.114 342.244V336.678H925.032L924.79 333.268L926.66 333.356C926.66 334.016 926.712 335.123 926.814 336.678H929.476C928.948 335.945 928.259 335.153 927.408 334.302L928.618 333.136C928.941 333.415 929.308 333.781 929.718 334.236C930.144 334.676 930.503 335.079 930.796 335.446L929.63 336.678H931.742V338.57H926.946C927.137 341.107 927.401 343.278 927.738 345.082C928.413 343.689 929.007 342.017 929.52 340.066L931.192 340.55C930.371 343.425 929.425 345.801 928.354 347.678C928.574 348.441 928.816 349.123 929.08 349.724C929.403 350.531 929.718 350.934 930.026 350.934C930.158 350.934 930.268 350.824 930.356 350.604C930.459 350.384 930.562 350.025 930.664 349.526C930.782 349.027 930.884 348.433 930.972 347.744L932.49 348.382ZM918.212 347.304L918.3 348.404C915.851 349.269 913.959 349.915 912.624 350.34L912.25 348.316C913.116 348.096 913.959 347.861 914.78 347.612V340.616H912.844V338.702H914.78V333.532L916.65 333.62V338.702H918.432V340.616H916.65V346.974L918.146 346.402L918.212 347.304ZM953.619 335.974V337.888H938.966V341.43C938.966 343.293 938.871 344.855 938.681 346.116C938.49 347.377 938.182 348.536 937.757 349.592C937.331 350.633 936.723 351.829 935.931 353.178L934.038 352.166C934.831 350.934 935.425 349.841 935.821 348.888C936.231 347.92 936.517 346.886 936.679 345.786C936.855 344.671 936.943 343.285 936.943 341.628V335.974H944.709C944.371 334.801 944.115 334.001 943.939 333.576L945.963 333.224C946.285 334.06 946.586 334.977 946.865 335.974H953.619ZM966.299 340.528H974.461C974.402 341.613 974.307 343.271 974.175 345.5C974.057 347.729 973.977 349.145 973.933 349.746C973.874 350.494 973.742 351.059 973.537 351.44C973.331 351.821 973.001 352.093 972.547 352.254C972.107 352.415 971.432 352.533 970.523 352.606L969.291 352.716L968.675 350.758L970.105 350.648C970.647 350.604 971.036 350.538 971.271 350.45C971.52 350.362 971.696 350.215 971.799 350.01C971.916 349.805 971.997 349.482 972.041 349.042C972.129 348.235 972.283 346.013 972.503 342.376H970.567C970.229 344.899 969.635 346.981 968.785 348.624C967.934 350.252 966.643 351.799 964.913 353.266L963.329 352.034C964.443 351.11 965.345 350.201 966.035 349.306C966.724 348.397 967.281 347.399 967.707 346.314C968.132 345.229 968.491 343.916 968.785 342.376H966.871C966.46 344.136 965.815 345.727 964.935 347.15C964.055 348.558 962.874 349.863 961.393 351.066L959.919 349.856C960.667 349.269 961.334 348.653 961.921 348.008C960.41 348.565 958.489 349.225 956.157 349.988L955.739 348.03C956.736 347.751 957.697 347.465 958.621 347.172V340.308H956.333V338.372H958.621V333.224L960.579 333.312V338.372H962.735V340.308H960.579V346.512C961.429 346.219 962.009 346.006 962.317 345.874L962.405 346.798L962.471 347.392C963.101 346.629 963.622 345.845 964.033 345.038C964.443 344.217 964.781 343.329 965.045 342.376H962.801V340.704L969.731 336.348H963.417V334.412H973.141V336.392L966.299 340.528Z" fill="#203C63"/>
<path d="M410.364 679.452L409.792 677.67C409.983 677.597 410.137 677.509 410.254 677.406C410.386 677.289 410.518 677.142 410.65 676.966C411.002 676.482 411.471 675.661 412.058 674.502C412.659 673.329 413.151 672.236 413.532 671.224L415.16 671.906C414.749 672.874 414.243 673.93 413.642 675.074C413.055 676.203 412.593 676.995 412.256 677.45C412.52 677.421 413.29 677.369 414.566 677.296C415.197 676.137 415.644 675.265 415.908 674.678L417.382 675.58C416.883 676.651 416.201 677.927 415.336 679.408C414.471 680.875 413.781 681.982 413.268 682.73L416.612 682.158L416.634 684.028C416.077 684.116 415.343 684.241 414.434 684.402C413.539 684.549 412.747 684.681 412.058 684.798C411.691 684.842 411.303 684.923 410.892 685.04L410.342 683.17C410.797 683.009 411.149 682.737 411.398 682.356C412.014 681.505 412.711 680.435 413.488 679.144L411.376 679.298C410.965 679.327 410.628 679.379 410.364 679.452ZM417.646 676.328L417.36 674.502L419.384 674.194C419.135 673.211 418.915 672.295 418.724 671.444L420.55 671.268C420.77 672.339 420.975 673.219 421.166 673.908L428.14 672.83L428.382 674.612L421.716 675.668C421.907 676.196 422.178 676.797 422.53 677.472L422.706 677.802C424.349 677.039 425.72 676.196 426.82 675.272L427.722 676.614C426.549 677.611 425.221 678.484 423.74 679.232C424.444 679.936 425.17 680.288 425.918 680.288C426.343 680.288 426.637 680.215 426.798 680.068C426.974 679.921 427.121 679.679 427.238 679.342C427.326 679.107 427.399 678.858 427.458 678.594C427.531 678.33 427.59 678.132 427.634 678L429.064 678.902C428.873 679.533 428.661 680.083 428.426 680.552C428.177 681.124 427.861 681.527 427.48 681.762C427.113 681.997 426.571 682.114 425.852 682.114C425.207 682.114 424.547 681.938 423.872 681.586C423.212 681.219 422.596 680.699 422.024 680.024C420.543 680.655 418.944 681.197 417.228 681.652L416.634 679.87C418.174 679.518 419.641 679.063 421.034 678.506L420.902 678.264C420.506 677.472 420.183 676.702 419.934 675.954L417.646 676.328ZM429.284 686.932C429.269 687.475 429.189 688.098 429.042 688.802C428.939 689.286 428.815 689.653 428.668 689.902C428.521 690.166 428.309 690.357 428.03 690.474C427.766 690.591 427.377 690.665 426.864 690.694C426.453 690.723 426.153 690.738 425.962 690.738C425.771 690.738 425.471 690.723 425.06 690.694C424.312 690.665 423.784 690.481 423.476 690.144C423.183 689.807 423.036 689.235 423.036 688.428V684.512H420.924L420.902 684.666C420.799 685.957 420.601 686.983 420.308 687.746C420.015 688.509 419.567 689.161 418.966 689.704C418.379 690.247 417.521 690.811 416.392 691.398L415.314 689.814C416.385 689.359 417.191 688.905 417.734 688.45C418.277 687.995 418.651 687.475 418.856 686.888C419.076 686.301 419.193 685.539 419.208 684.6V684.512H417.294V682.708H428.712V684.512H424.774V687.878C424.774 688.201 424.796 688.435 424.84 688.582C424.899 688.729 424.979 688.824 425.082 688.868C425.199 688.912 425.383 688.941 425.632 688.956C425.94 688.971 426.248 688.971 426.556 688.956C426.82 688.941 427.003 688.912 427.106 688.868C427.209 688.824 427.282 688.751 427.326 688.648C427.37 688.531 427.421 688.318 427.48 688.01C427.583 687.423 427.634 686.851 427.634 686.294L429.284 686.932ZM417.206 687.152L417.25 688.076C416.487 688.237 415.336 688.472 413.796 688.78C412.256 689.073 410.936 689.315 409.836 689.506L409.572 687.768C410.393 687.636 411.633 687.401 413.29 687.064C414.962 686.727 416.26 686.448 417.184 686.228L417.206 687.152ZM495.49 686.382L495.424 686.866C495.292 687.614 495.175 688.215 495.072 688.67C494.896 689.55 494.632 690.159 494.28 690.496C493.928 690.848 493.518 691.024 493.048 691.024C492.594 691.024 492.168 690.855 491.772 690.518C491.391 690.195 491.01 689.616 490.628 688.78C490.467 688.428 490.306 688.017 490.144 687.548C489.25 688.78 488.201 689.961 486.998 691.09L485.678 689.748C487.248 688.325 488.516 686.866 489.484 685.37C488.883 682.994 488.443 680.061 488.164 676.57H483.984V679.408H487.592C487.563 680.288 487.526 681.454 487.482 682.906C487.438 684.343 487.394 685.509 487.35 686.404C487.336 687.005 487.255 687.475 487.108 687.812C486.962 688.135 486.72 688.377 486.382 688.538C486.06 688.685 485.59 688.787 484.974 688.846L484.182 688.934L483.588 686.976L484.49 686.888C484.842 686.844 485.092 686.793 485.238 686.734C485.385 686.661 485.488 686.543 485.546 686.382C485.605 686.206 485.656 685.905 485.7 685.48C485.73 685.201 485.759 684.578 485.788 683.61C485.832 682.627 485.854 681.865 485.854 681.322H483.984C483.97 682.818 483.867 684.101 483.676 685.172C483.5 686.243 483.207 687.255 482.796 688.208C482.4 689.147 481.836 690.195 481.102 691.354L479.32 690.474C480.112 689.359 480.699 688.355 481.08 687.46C481.476 686.551 481.748 685.561 481.894 684.49C482.041 683.405 482.114 681.989 482.114 680.244V674.678H488.032L487.79 671.268L489.66 671.356C489.66 672.016 489.712 673.123 489.814 674.678H492.476C491.948 673.945 491.259 673.153 490.408 672.302L491.618 671.136C491.941 671.415 492.308 671.781 492.718 672.236C493.144 672.676 493.503 673.079 493.796 673.446L492.63 674.678H494.742V676.57H489.946C490.137 679.107 490.401 681.278 490.738 683.082C491.413 681.689 492.007 680.017 492.52 678.066L494.192 678.55C493.371 681.425 492.425 683.801 491.354 685.678C491.574 686.441 491.816 687.123 492.08 687.724C492.403 688.531 492.718 688.934 493.026 688.934C493.158 688.934 493.268 688.824 493.356 688.604C493.459 688.384 493.562 688.025 493.664 687.526C493.782 687.027 493.884 686.433 493.972 685.744L495.49 686.382ZM481.212 685.304L481.3 686.404C478.851 687.269 476.959 687.915 475.624 688.34L475.25 686.316C476.116 686.096 476.959 685.861 477.78 685.612V678.616H475.844V676.702H477.78V671.532L479.65 671.62V676.702H481.432V678.616H479.65V684.974L481.146 684.402L481.212 685.304ZM560.707 673.116V674.722H541.545V673.116H550.191C550.015 672.5 549.846 671.965 549.685 671.51L551.665 671.18C551.738 671.4 551.951 672.045 552.303 673.116H560.707ZM544.713 680.332V676.042H557.539V680.332H544.713ZM546.671 678.902H555.537V677.45H546.671V678.902ZM542.887 691.112V681.608H559.365V688.494C559.365 689.125 559.291 689.594 559.145 689.902C559.013 690.225 558.771 690.459 558.419 690.606C558.067 690.767 557.546 690.885 556.857 690.958L555.515 691.112L554.921 689.33L556.153 689.198C556.534 689.154 556.805 689.103 556.967 689.044C557.128 688.985 557.238 688.89 557.297 688.758C557.355 688.611 557.385 688.384 557.385 688.076V683.126H544.845V691.112H542.887ZM546.869 684.358H555.361V688.846H546.869V684.358ZM548.805 687.35H553.469V685.876H548.805V687.35ZM612.393 685.876C613.39 685.392 614.329 684.827 615.209 684.182C616.103 683.522 616.859 682.833 617.475 682.114H613.493V676.614H618.113V675.074H612.767V673.292H618.113V671.378L620.071 671.444V673.292H625.549V675.074H620.071V676.614H624.801V682.114H620.071V688.362H618.113V683.962C616.969 685.267 615.443 686.477 613.537 687.592L612.393 685.876ZM610.391 677.142C610.156 676.57 609.76 675.837 609.203 674.942C608.66 674.047 608.183 673.351 607.773 672.852L609.335 671.796C609.716 672.265 610.178 672.918 610.721 673.754C611.263 674.575 611.696 675.287 612.019 675.888L610.391 677.142ZM618.113 678.242H615.341V680.486H618.113V678.242ZM622.975 680.486V678.242H620.071V680.486H622.975ZM619.939 688.934C622.227 688.934 624.456 688.868 626.627 688.736L626.143 690.65C623.913 690.767 621.728 690.826 619.587 690.826L617.541 690.804C616.294 690.775 615.289 690.687 614.527 690.54C613.779 690.408 613.097 690.159 612.481 689.792C611.879 689.44 611.271 688.905 610.655 688.186L609.951 688.978C609.819 689.125 609.555 689.418 609.159 689.858C608.777 690.298 608.389 690.701 607.993 691.068L606.739 689.44L609.687 686.514V680.772H607.333V678.814H611.623V686.492C612.136 687.137 612.657 687.629 613.185 687.966C613.713 688.303 614.314 688.538 614.989 688.67C615.663 688.802 616.543 688.883 617.629 688.912C618.142 688.927 618.912 688.934 619.939 688.934ZM621.237 682.554C621.911 682.994 622.681 683.529 623.547 684.16C624.412 684.776 625.138 685.333 625.725 685.832L624.779 687.548C624.177 686.991 623.407 686.345 622.469 685.612C621.53 684.879 620.767 684.321 620.181 683.94L621.237 682.554Z" fill="#253D5E"/>
<path d="M138.674 44.862H143.558V49.306C143.558 50.142 143.389 50.736 143.052 51.088C142.715 51.4547 142.084 51.6747 141.16 51.748L140.346 51.814L139.752 50.054L140.764 49.988C141.189 49.9587 141.461 49.8707 141.578 49.724C141.695 49.5627 141.754 49.24 141.754 48.756V46.644H138.674V53.178H136.914V46.644H134.12V51.572H132.338V44.862H136.914V43.014H132.844V35.182H136.1C136.423 34.1553 136.621 33.4733 136.694 33.136L138.674 33.51L138.146 35.182H142.876V43.014H138.674V44.862ZM129.72 33.818C129.515 34.4047 129.221 35.1013 128.84 35.908L131.92 35.952V37.712H127.938C127.542 38.4453 127.124 39.1493 126.684 39.824H131.458V41.628H129.192V44.114H131.7V45.896H129.192V49.46L131.458 47.854L131.876 49.856C131.583 50.0173 131.077 50.3327 130.358 50.802C129.639 51.2713 129.023 51.6893 128.51 52.056L128.136 52.342L127.674 52.716L126.728 51.044C126.977 50.912 127.139 50.7653 127.212 50.604C127.285 50.428 127.322 50.1933 127.322 49.9V45.896H125.166V44.114H127.322V41.628H126.332V40.352L125.87 40.99L124.374 39.648C125.137 38.636 125.819 37.5727 126.42 36.458C127.021 35.3287 127.461 34.2433 127.74 33.202L129.72 33.818ZM141.028 38.306V36.81H134.692V38.306H141.028ZM141.028 39.912H134.692V41.43H141.028V39.912ZM210.468 48.58C210.424 49.68 210.358 50.472 210.27 50.956C210.168 51.6307 209.948 52.0853 209.61 52.32C209.273 52.5693 208.701 52.7087 207.894 52.738C207.689 52.7527 207.366 52.76 206.926 52.76C206.486 52.76 206.156 52.7527 205.936 52.738C205.203 52.7087 204.675 52.54 204.352 52.232C204.044 51.9387 203.89 51.4033 203.89 50.626V45.236H201.954C201.94 45.3827 201.932 45.588 201.932 45.852C201.859 47.0987 201.668 48.14 201.36 48.976C201.067 49.812 200.598 50.5673 199.952 51.242C199.322 51.9167 198.42 52.6427 197.246 53.42L195.948 51.814C197.048 51.2127 197.87 50.6553 198.412 50.142C198.955 49.614 199.336 49.0273 199.556 48.382C199.776 47.7367 199.93 46.8567 200.018 45.742L200.04 45.236H197.84V40.264L196.872 41.276C196.403 40.352 195.882 39.4427 195.31 38.548V53.068H193.44V33.334L195.31 33.422V37.404L196.036 36.81C196.667 37.6607 197.268 38.5773 197.84 39.56V37.624H200.502C200.238 37.1253 199.908 36.5533 199.512 35.908C199.131 35.248 198.808 34.72 198.544 34.324L200.04 33.4C200.319 33.7813 200.686 34.3313 201.14 35.05C201.61 35.754 201.991 36.3627 202.284 36.876L201.338 37.624H203.67C204.462 36.3773 205.254 34.9547 206.046 33.356L207.806 34.192C207.249 35.2333 206.604 36.3773 205.87 37.624H208.488V45.236H205.804V49.988C205.804 50.384 205.856 50.6407 205.958 50.758C206.076 50.8607 206.325 50.9267 206.706 50.956C206.985 50.9853 207.271 50.9853 207.564 50.956C207.858 50.9267 208.063 50.89 208.18 50.846C208.312 50.7873 208.4 50.7067 208.444 50.604C208.488 50.4867 208.532 50.2887 208.576 50.01C208.635 49.658 208.679 48.9907 208.708 48.008L210.468 48.58ZM190.184 44.73C190.404 43.6593 190.639 42.354 190.888 40.814C191.138 39.2593 191.314 37.9467 191.416 36.876L193.044 37.074C192.942 38.2033 192.773 39.5527 192.538 41.122C192.304 42.6767 192.076 43.9747 191.856 45.016L190.184 44.73ZM206.574 39.494H199.754V43.388H206.574V39.494ZM275.509 34.258V36.15H269.261V39.01H274.255V53.024H272.319V51.66H259.845V53.002H257.865V39.01H262.683V36.15H256.699V34.258H275.509ZM264.619 39.01H267.281V36.15H264.619V39.01ZM259.845 40.946V46.622C260.695 46.0647 261.319 45.544 261.715 45.06C262.111 44.5613 262.367 44.0187 262.485 43.432C262.602 42.8453 262.668 42.0167 262.683 40.946H259.845ZM259.845 49.768H272.319V46.908H270.075C269.048 46.908 268.322 46.71 267.897 46.314C267.486 45.9033 267.281 45.1993 267.281 44.202V40.946H264.619C264.604 42.2367 264.494 43.2927 264.289 44.114C264.098 44.9207 263.739 45.6467 263.211 46.292C262.683 46.9227 261.913 47.546 260.901 48.162L259.845 46.93V49.768ZM272.319 40.946H269.261V43.542C269.261 44.1287 269.356 44.5173 269.547 44.708C269.737 44.884 270.133 44.972 270.735 44.972H272.319V40.946ZM341.407 42.904L340.681 44.73C338.539 43.982 336.772 43.124 335.379 42.156C334.073 43.124 332.394 44.004 330.341 44.796L329.461 43.014C331.206 42.398 332.68 41.7013 333.883 40.924C333.164 40.22 332.497 39.3987 331.881 38.46C331.543 38.8853 331.089 39.384 330.517 39.956L329.439 38.46C330.216 37.6533 330.942 36.7587 331.617 35.776C332.291 34.7787 332.812 33.8107 333.179 32.872L334.983 33.356C334.792 33.8547 334.543 34.39 334.235 34.962H339.889V36.722C339.067 38.3793 338.041 39.7947 336.809 40.968C338.011 41.7307 339.544 42.376 341.407 42.904ZM330.055 50.67C326.725 51.2127 323.975 51.6307 321.805 51.924L321.585 50.054L322.751 49.922V42.508L324.467 42.574V49.68L326.007 49.46V41.056H323.059V34.214H329.417V41.056H327.767V44.026H329.901V45.83H327.767V49.174L330.011 48.778L330.055 50.67ZM327.723 35.996H324.753V39.274H327.723V35.996ZM335.335 39.868C336.361 38.9733 337.227 37.9173 337.931 36.7H333.223L333.025 36.986C333.67 38.1007 334.44 39.0613 335.335 39.868ZM332.673 52.914H330.847V44.862H339.361V52.914H337.535V51.858H332.673V52.914ZM337.535 50.142V46.644H332.673V50.142H337.535Z" fill="#253D5E"/>
<path d="M64.7586 232.264L64.6318 234.064L46.834 232.81L46.9608 231.01L52.2277 231.381C51.6061 230.397 50.9055 229.384 50.126 228.344L51.8273 227.361C52.1129 227.69 52.5293 228.249 53.0766 229.037C53.6238 229.826 54.0293 230.435 54.2931 230.865L53.4128 231.465L57.2532 231.735C57.7 231.238 58.2292 230.613 58.8408 229.862C59.4524 229.111 59.9774 228.443 60.4157 227.856L62.1237 228.969C61.5832 229.754 60.7936 230.735 59.755 231.912L64.7586 232.264ZM61.9157 245.694L64.3736 245.867L64.2499 247.622L45.2889 246.286L45.4126 244.531L47.9144 244.707L48.3397 238.672C47.5187 239.055 47.0095 239.291 46.8121 239.38L45.9498 237.533C47.1604 237.045 48.454 236.423 49.8305 235.667C51.2081 234.897 52.302 234.187 53.1123 233.539L54.2784 235.143C52.9596 236.123 51.3001 237.138 49.3 238.188L61.9187 239.077C60.0667 237.609 58.3664 236.386 56.8179 235.41L58.0092 233.84C59.2587 234.678 60.4984 235.552 61.7281 236.462C62.9735 237.358 63.9774 238.135 64.7398 238.791L63.6694 240.524C62.9342 239.899 62.497 239.53 62.358 239.417L61.9157 245.694ZM52.2895 240.207L50.1169 240.054L49.7798 244.839L51.9524 244.992L52.2895 240.207ZM53.7739 245.12L56.0343 245.279L56.3714 240.495L54.111 240.336L53.7739 245.12ZM57.8777 245.409L60.0723 245.564L60.4094 240.78L58.2148 240.625L57.8777 245.409ZM55.2281 328.4L57.1766 328.604L55.822 347.828L53.8689 347.69L54.4596 339.307L52.8677 339.989C52.6359 339.105 52.3251 338.091 51.9353 336.946C51.5455 335.801 51.1683 334.789 50.8038 333.911L49.8807 347.012L47.9275 346.875L48.4888 338.908L47.0067 339.598C46.4154 337.557 45.784 335.667 45.1125 333.929L45.046 334.872C44.8841 337.169 44.6362 339.019 44.3021 340.422C43.968 341.825 43.4707 343.039 42.8103 344.066C42.1498 345.093 41.202 346.129 39.9668 347.174L38.3416 345.824C39.5465 344.792 40.4526 343.826 41.0599 342.928C41.6818 342.031 42.1395 340.961 42.433 339.717C42.7411 338.474 42.9699 336.792 43.1194 334.671L43.6189 327.582L45.5454 327.784L45.1558 333.314L46.5643 332.73C46.9068 333.504 47.2614 334.418 47.6281 335.473C47.9949 336.529 48.2947 337.491 48.5275 338.36L49.2233 328.484L51.1703 328.71L50.8115 333.801L52.4238 333.143C52.7788 333.947 53.146 334.892 53.5253 335.977C53.9193 337.064 54.2394 338.049 54.4859 338.934L55.2281 328.4ZM42.4796 332.795C42.2245 333.703 41.8447 334.816 41.3402 336.133C40.8367 337.436 40.3623 338.534 39.917 339.429L38.2924 338.697C38.767 337.804 39.2378 336.757 39.7048 335.555C40.1718 334.353 40.5427 333.261 40.8177 332.281L42.4796 332.795ZM50.6289 445.946L49.1715 447.85C47.1962 446.461 45.5511 444.978 44.236 443.4C42.9366 441.809 41.9941 440.162 41.4083 438.459C40.5718 440.106 39.3862 441.595 37.8514 442.928C36.3176 444.246 34.4943 445.5 32.3815 446.689L31.0723 444.612C36.6394 441.975 39.7355 438.62 40.3606 434.548L32.5919 434L32.7357 431.959L40.5483 432.51L40.9055 427.44L43.0939 427.683L42.7429 432.664L50.6872 433.224L50.5434 435.265L42.5771 434.704L42.5039 435.118C42.8844 437.438 43.7494 439.455 45.0991 441.167C46.4498 442.865 48.293 444.458 50.6289 445.946ZM35.2961 532.718C35.5619 532.076 35.7506 531.589 35.8621 531.259L30.5074 530.881L30.6249 529.214L34.202 529.466C33.7602 528.64 33.3651 527.988 33.0167 527.507L34.5378 526.578C35.129 527.37 35.6245 528.162 36.0244 528.954L35.2334 529.538L37.8889 529.725C38.2542 529.339 38.6697 528.869 39.1352 528.313C39.6007 527.758 39.9629 527.313 40.2217 526.978L41.8685 528.021C41.6233 528.371 41.0941 528.995 40.2809 529.894L44.0995 530.163L43.9819 531.831L37.9469 531.406C37.653 532.238 37.479 532.725 37.4248 532.868L42.2748 533.21L41.5465 543.547L30.9029 542.797L31.6312 532.46L35.2961 532.718ZM28.2753 532.511C28.024 531.905 27.6298 531.134 27.0928 530.2C26.5569 529.25 26.0938 528.519 25.7035 528.007L27.3436 526.953C27.7077 527.42 28.1525 528.098 28.6779 528.988C29.218 529.879 29.6492 530.644 29.9717 531.285L28.2753 532.511ZM33.4195 535.564L40.069 536.032L40.171 534.584L33.5215 534.115L33.4195 535.564ZM36.6541 544.746C39.1266 544.92 41.4345 545.031 43.5778 545.079L43.0717 546.94C40.9285 546.892 38.6425 546.782 36.2139 546.611C34.9118 546.52 33.9394 546.444 33.2967 546.384C32.2746 546.282 31.4463 546.143 30.8119 545.966C30.1774 545.789 29.6092 545.506 29.1072 545.118C28.6053 544.73 28.1157 544.166 27.6385 543.427L26.6691 544.351C25.9112 545.091 25.313 545.652 24.8745 546.033L23.7411 544.277L26.7573 541.534L27.1547 535.894L24.8285 535.73L24.9723 533.689L29.1859 533.986L28.6478 541.623C29.0392 542.327 29.4567 542.871 29.9001 543.255C30.3582 543.64 30.8747 543.927 31.4496 544.114C32.0402 544.288 32.7953 544.422 33.7149 544.517C34.3576 544.577 35.3374 544.653 36.6541 544.746ZM39.9638 537.524L33.3143 537.056L33.2138 538.482L39.8633 538.951L39.9638 537.524ZM33.1087 539.975L33.0081 541.401L39.6577 541.87L39.7582 540.443L33.1087 539.975Z" fill="#253D5E"/>
<path d="M751.674 44.862H756.558V49.306C756.558 50.142 756.389 50.736 756.052 51.088C755.715 51.4547 755.084 51.6747 754.16 51.748L753.346 51.814L752.752 50.054L753.764 49.988C754.189 49.9587 754.461 49.8707 754.578 49.724C754.695 49.5627 754.754 49.24 754.754 48.756V46.644H751.674V53.178H749.914V46.644H747.12V51.572H745.338V44.862H749.914V43.014H745.844V35.182H749.1C749.423 34.1553 749.621 33.4733 749.694 33.136L751.674 33.51L751.146 35.182H755.876V43.014H751.674V44.862ZM742.72 33.818C742.515 34.4047 742.221 35.1013 741.84 35.908L744.92 35.952V37.712H740.938C740.542 38.4453 740.124 39.1493 739.684 39.824H744.458V41.628H742.192V44.114H744.7V45.896H742.192V49.46L744.458 47.854L744.876 49.856C744.583 50.0173 744.077 50.3327 743.358 50.802C742.639 51.2713 742.023 51.6893 741.51 52.056L741.136 52.342L740.674 52.716L739.728 51.044C739.977 50.912 740.139 50.7653 740.212 50.604C740.285 50.428 740.322 50.1933 740.322 49.9V45.896H738.166V44.114H740.322V41.628H739.332V40.352L738.87 40.99L737.374 39.648C738.137 38.636 738.819 37.5727 739.42 36.458C740.021 35.3287 740.461 34.2433 740.74 33.202L742.72 33.818ZM754.028 38.306V36.81H747.692V38.306H754.028ZM754.028 39.912H747.692V41.43H754.028V39.912ZM823.468 48.58C823.424 49.68 823.358 50.472 823.27 50.956C823.168 51.6307 822.948 52.0853 822.61 52.32C822.273 52.5693 821.701 52.7087 820.894 52.738C820.689 52.7527 820.366 52.76 819.926 52.76C819.486 52.76 819.156 52.7527 818.936 52.738C818.203 52.7087 817.675 52.54 817.352 52.232C817.044 51.9387 816.89 51.4033 816.89 50.626V45.236H814.954C814.94 45.3827 814.932 45.588 814.932 45.852C814.859 47.0987 814.668 48.14 814.36 48.976C814.067 49.812 813.598 50.5673 812.952 51.242C812.322 51.9167 811.42 52.6427 810.246 53.42L808.948 51.814C810.048 51.2127 810.87 50.6553 811.412 50.142C811.955 49.614 812.336 49.0273 812.556 48.382C812.776 47.7367 812.93 46.8567 813.018 45.742L813.04 45.236H810.84V40.264L809.872 41.276C809.403 40.352 808.882 39.4427 808.31 38.548V53.068H806.44V33.334L808.31 33.422V37.404L809.036 36.81C809.667 37.6607 810.268 38.5773 810.84 39.56V37.624H813.502C813.238 37.1253 812.908 36.5533 812.512 35.908C812.131 35.248 811.808 34.72 811.544 34.324L813.04 33.4C813.319 33.7813 813.686 34.3313 814.14 35.05C814.61 35.754 814.991 36.3627 815.284 36.876L814.338 37.624H816.67C817.462 36.3773 818.254 34.9547 819.046 33.356L820.806 34.192C820.249 35.2333 819.604 36.3773 818.87 37.624H821.488V45.236H818.804V49.988C818.804 50.384 818.856 50.6407 818.958 50.758C819.076 50.8607 819.325 50.9267 819.706 50.956C819.985 50.9853 820.271 50.9853 820.564 50.956C820.858 50.9267 821.063 50.89 821.18 50.846C821.312 50.7873 821.4 50.7067 821.444 50.604C821.488 50.4867 821.532 50.2887 821.576 50.01C821.635 49.658 821.679 48.9907 821.708 48.008L823.468 48.58ZM803.184 44.73C803.404 43.6593 803.639 42.354 803.888 40.814C804.138 39.2593 804.314 37.9467 804.416 36.876L806.044 37.074C805.942 38.2033 805.773 39.5527 805.538 41.122C805.304 42.6767 805.076 43.9747 804.856 45.016L803.184 44.73ZM819.574 39.494H812.754V43.388H819.574V39.494ZM889.169 44.202L888.487 46.292C886.536 45.7493 884.798 45.1847 883.273 44.598C881.747 44.0113 880.369 43.3587 879.137 42.64C876.746 43.9453 873.644 45.2287 869.831 46.49L869.038 44.51C872.177 43.6007 874.913 42.574 877.245 41.43C876.042 40.5793 874.957 39.6187 873.989 38.548C873.079 39.5307 872.038 40.4987 870.865 41.452L869.677 39.868C870.821 38.9587 871.95 37.8513 873.065 36.546C874.194 35.2407 875.067 34.0307 875.683 32.916L877.641 33.708C877.186 34.4267 876.885 34.896 876.739 35.116H886.331L886.353 36.942C884.827 38.6873 883.06 40.2127 881.051 41.518C882.987 42.486 885.693 43.3807 889.169 44.202ZM879.115 40.44C881.051 39.296 882.539 38.1153 883.581 36.898H875.419C875.404 36.9273 875.367 36.9713 875.309 37.03C876.453 38.394 877.721 39.5307 879.115 40.44ZM875.023 44.598C876.167 44.8033 877.604 45.104 879.335 45.5C881.08 45.896 882.481 46.2553 883.537 46.578L883.207 48.58C882.077 48.2133 880.655 47.832 878.939 47.436C877.237 47.04 875.793 46.7467 874.605 46.556L875.023 44.598ZM872.669 48.492C874.253 48.7267 876.291 49.108 878.785 49.636C881.293 50.164 883.346 50.648 884.945 51.088L884.615 53.222C883.06 52.7233 881.021 52.188 878.499 51.616C875.976 51.044 873.901 50.6407 872.273 50.406L872.669 48.492ZM954.407 42.904L953.681 44.73C951.539 43.982 949.772 43.124 948.379 42.156C947.073 43.124 945.394 44.004 943.341 44.796L942.461 43.014C944.206 42.398 945.68 41.7013 946.883 40.924C946.164 40.22 945.497 39.3987 944.881 38.46C944.543 38.8853 944.089 39.384 943.517 39.956L942.439 38.46C943.216 37.6533 943.942 36.7587 944.617 35.776C945.291 34.7787 945.812 33.8107 946.179 32.872L947.983 33.356C947.792 33.8547 947.543 34.39 947.235 34.962H952.889V36.722C952.067 38.3793 951.041 39.7947 949.809 40.968C951.011 41.7307 952.544 42.376 954.407 42.904ZM943.055 50.67C939.725 51.2127 936.975 51.6307 934.805 51.924L934.585 50.054L935.751 49.922V42.508L937.467 42.574V49.68L939.007 49.46V41.056H936.059V34.214H942.417V41.056H940.767V44.026H942.901V45.83H940.767V49.174L943.011 48.778L943.055 50.67ZM940.723 35.996H937.753V39.274H940.723V35.996ZM948.335 39.868C949.361 38.9733 950.227 37.9173 950.931 36.7H946.223L946.025 36.986C946.67 38.1007 947.44 39.0613 948.335 39.868ZM945.673 52.914H943.847V44.862H952.361V52.914H950.535V51.858H945.673V52.914ZM950.535 50.142V46.644H945.673V50.142H950.535Z" fill="#253D5E"/>
<path d="M295.04 144.072V140.168L296.544 140.232V154.456H295.04V151.576C293.909 152.131 292.629 152.707 291.2 153.304L290.608 151.8C291.109 151.619 291.824 151.325 292.752 150.92C293.68 150.515 294.443 150.163 295.04 149.864V145.576H291.28V144.072H295.04ZM304.864 150.248C304.864 150.845 304.811 151.533 304.704 152.312C304.64 152.781 304.539 153.133 304.4 153.368C304.261 153.613 304.059 153.784 303.792 153.88C303.536 153.987 303.168 154.045 302.688 154.056H300.624C300.112 154.045 299.717 153.976 299.44 153.848C299.173 153.731 298.981 153.533 298.864 153.256C298.747 152.979 298.688 152.584 298.688 152.072V140.184L300.208 140.248V145.112C301.52 144.333 302.704 143.507 303.76 142.632L304.656 143.992C304.08 144.408 303.365 144.893 302.512 145.448C301.669 146.003 300.901 146.483 300.208 146.888V151.832C300.208 152.131 300.256 152.333 300.352 152.44C300.459 152.547 300.661 152.605 300.96 152.616H302.304C302.549 152.605 302.731 152.579 302.848 152.536C302.965 152.483 303.051 152.408 303.104 152.312C303.157 152.205 303.205 152.045 303.248 151.832C303.28 151.597 303.307 151.272 303.328 150.856C303.349 150.429 303.36 150.061 303.36 149.752L304.864 150.248ZM309.286 142.424V152.584H320.534V153.992H307.75V140.968H320.214V142.424H309.286ZM309.478 150.84C310.833 149.901 312.219 148.728 313.638 147.32C312.081 145.763 310.913 144.637 310.134 143.944L311.174 142.84C312.134 143.683 313.323 144.797 314.742 146.184C315.83 145 316.763 143.837 317.542 142.696L318.79 143.64C317.937 144.835 316.955 146.035 315.846 147.24C317.382 148.776 318.534 149.955 319.302 150.776L318.246 152.168C317.275 151.08 316.102 149.832 314.726 148.424C313.265 149.885 311.835 151.123 310.438 152.136L309.478 150.84Z" fill="#203C63"/>
<path d="M411.6 142.472V138.904H424.24V142.408H422.656V140.312H413.12V142.472H411.6ZM415.12 143.656L414.96 145.368H423.44C423.419 145.976 423.381 146.765 423.328 147.736C423.275 148.696 423.232 149.427 423.2 149.928C423.157 150.536 423.04 151.005 422.848 151.336C422.667 151.667 422.384 151.907 422 152.056C421.627 152.216 421.093 152.323 420.4 152.376L418.912 152.488L418.464 151.096L419.968 151C420.405 150.968 420.736 150.909 420.96 150.824C421.184 150.739 421.349 150.605 421.456 150.424C421.563 150.232 421.632 149.949 421.664 149.576C421.707 149.107 421.749 148.557 421.792 147.928C421.835 147.288 421.856 146.888 421.856 146.728H413.296L413.856 140.936L415.376 141L415.248 142.328H422.4V143.656H415.12ZM411.136 148.344H420.816V149.704H411.136V148.344ZM428.726 141.272V143.432H427.238V139.864H432.918C432.737 139.203 432.577 138.675 432.438 138.28L434.038 138.024C434.166 138.408 434.353 139.021 434.598 139.864H439.99V143.448H438.486V141.272H428.726ZM440.55 146.712V148.12H434.422V150.392C434.422 150.947 434.369 151.357 434.262 151.624C434.155 151.901 433.969 152.093 433.702 152.2C433.435 152.317 433.019 152.397 432.454 152.44L431.174 152.536L430.71 151.112L431.942 151.016C432.241 150.995 432.454 150.957 432.582 150.904C432.721 150.84 432.811 150.744 432.854 150.616C432.907 150.477 432.934 150.264 432.934 149.976V148.12H426.614V146.712H432.934V145.864L435.478 144.216H429.222V142.824H438.006V144.248L434.422 146.488V146.712H440.55ZM446.38 146.44C446.081 146.003 445.777 145.597 445.468 145.224V152.632H444.204V145.496C443.724 146.787 443.196 147.907 442.62 148.856L441.676 147.848C442.071 147.208 442.503 146.376 442.972 145.352C443.441 144.317 443.831 143.341 444.14 142.424H442.46V141.064H444.204V138.232L445.468 138.28V141.064H446.876V142.424H445.468V144.072L445.74 143.784C446.103 144.136 446.465 144.541 446.828 145L446.748 144.824C448.007 144.301 449.127 143.592 450.108 142.696H447.164V141.464H450.7V138.216L452.028 138.264V141.464H455.884V142.696H452.668C453.692 143.624 454.972 144.365 456.508 144.92L456.028 146.2C455.143 145.805 454.38 145.411 453.74 145.016C453.1 144.611 452.529 144.163 452.028 143.672V145.592H450.7V143.752C449.793 144.669 448.684 145.459 447.372 146.12L447.132 145.624L446.38 146.44ZM448.284 138.504C448.529 138.749 448.823 139.091 449.164 139.528C449.516 139.955 449.788 140.323 449.98 140.632L449.052 141.464C448.871 141.155 448.609 140.776 448.268 140.328C447.937 139.869 447.649 139.512 447.404 139.256L448.284 138.504ZM455.372 139.224C455.159 139.544 454.865 139.933 454.492 140.392C454.119 140.851 453.809 141.208 453.564 141.464L452.652 140.648C452.897 140.403 453.201 140.061 453.564 139.624C453.927 139.187 454.209 138.819 454.412 138.52L455.372 139.224ZM451.084 145.784C450.967 146.115 450.849 146.397 450.732 146.632H456.3V147.912H454.428C454.023 148.829 453.559 149.56 453.036 150.104C453.815 150.413 454.833 150.84 456.092 151.384L455.5 152.6C454.583 152.131 453.388 151.587 451.916 150.968C451.329 151.309 450.609 151.619 449.756 151.896C448.903 152.184 447.847 152.461 446.588 152.728L446.124 151.464C448.097 151.091 449.527 150.717 450.412 150.344L447.628 149.272C447.98 148.749 448.273 148.296 448.508 147.912H446.54V146.632H449.244C449.489 146.141 449.671 145.747 449.788 145.448L451.084 145.784ZM450.076 147.912C449.937 148.168 449.767 148.456 449.564 148.776C449.959 148.915 450.679 149.181 451.724 149.576C451.991 149.363 452.215 149.123 452.396 148.856C452.588 148.589 452.769 148.275 452.94 147.912H450.076Z" fill="#203C63"/>
<path d="M389.6 571.472V567.904H402.24V571.408H400.656V569.312H391.12V571.472H389.6ZM393.12 572.656L392.96 574.368H401.44C401.419 574.976 401.381 575.765 401.328 576.736C401.275 577.696 401.232 578.427 401.2 578.928C401.157 579.536 401.04 580.005 400.848 580.336C400.667 580.667 400.384 580.907 400 581.056C399.627 581.216 399.093 581.323 398.4 581.376L396.912 581.488L396.464 580.096L397.968 580C398.405 579.968 398.736 579.909 398.96 579.824C399.184 579.739 399.349 579.605 399.456 579.424C399.563 579.232 399.632 578.949 399.664 578.576C399.707 578.107 399.749 577.557 399.792 576.928C399.835 576.288 399.856 575.888 399.856 575.728H391.296L391.856 569.936L393.376 570L393.248 571.328H400.4V572.656H393.12ZM389.136 577.344H398.816V578.704H389.136V577.344ZM406.726 570.272V572.432H405.238V568.864H410.918C410.737 568.203 410.577 567.675 410.438 567.28L412.038 567.024C412.166 567.408 412.353 568.021 412.598 568.864H417.99V572.448H416.486V570.272H406.726ZM418.55 575.712V577.12H412.422V579.392C412.422 579.947 412.369 580.357 412.262 580.624C412.155 580.901 411.969 581.093 411.702 581.2C411.435 581.317 411.019 581.397 410.454 581.44L409.174 581.536L408.71 580.112L409.942 580.016C410.241 579.995 410.454 579.957 410.582 579.904C410.721 579.84 410.811 579.744 410.854 579.616C410.907 579.477 410.934 579.264 410.934 578.976V577.12H404.614V575.712H410.934V574.864L413.478 573.216H407.222V571.824H416.006V573.248L412.422 575.488V575.712H418.55ZM424.38 575.44C424.081 575.003 423.777 574.597 423.468 574.224V581.632H422.204V574.496C421.724 575.787 421.196 576.907 420.62 577.856L419.676 576.848C420.071 576.208 420.503 575.376 420.972 574.352C421.441 573.317 421.831 572.341 422.14 571.424H420.46V570.064H422.204V567.232L423.468 567.28V570.064H424.876V571.424H423.468V573.072L423.74 572.784C424.103 573.136 424.465 573.541 424.828 574L424.748 573.824C426.007 573.301 427.127 572.592 428.108 571.696H425.164V570.464H428.7V567.216L430.028 567.264V570.464H433.884V571.696H430.668C431.692 572.624 432.972 573.365 434.508 573.92L434.028 575.2C433.143 574.805 432.38 574.411 431.74 574.016C431.1 573.611 430.529 573.163 430.028 572.672V574.592H428.7V572.752C427.793 573.669 426.684 574.459 425.372 575.12L425.132 574.624L424.38 575.44ZM426.284 567.504C426.529 567.749 426.823 568.091 427.164 568.528C427.516 568.955 427.788 569.323 427.98 569.632L427.052 570.464C426.871 570.155 426.609 569.776 426.268 569.328C425.937 568.869 425.649 568.512 425.404 568.256L426.284 567.504ZM433.372 568.224C433.159 568.544 432.865 568.933 432.492 569.392C432.119 569.851 431.809 570.208 431.564 570.464L430.652 569.648C430.897 569.403 431.201 569.061 431.564 568.624C431.927 568.187 432.209 567.819 432.412 567.52L433.372 568.224ZM429.084 574.784C428.967 575.115 428.849 575.397 428.732 575.632H434.3V576.912H432.428C432.023 577.829 431.559 578.56 431.036 579.104C431.815 579.413 432.833 579.84 434.092 580.384L433.5 581.6C432.583 581.131 431.388 580.587 429.916 579.968C429.329 580.309 428.609 580.619 427.756 580.896C426.903 581.184 425.847 581.461 424.588 581.728L424.124 580.464C426.097 580.091 427.527 579.717 428.412 579.344L425.628 578.272C425.98 577.749 426.273 577.296 426.508 576.912H424.54V575.632H427.244C427.489 575.141 427.671 574.747 427.788 574.448L429.084 574.784ZM428.076 576.912C427.937 577.168 427.767 577.456 427.564 577.776C427.959 577.915 428.679 578.181 429.724 578.576C429.991 578.363 430.215 578.123 430.396 577.856C430.588 577.589 430.769 577.275 430.94 576.912H428.076Z" fill="#203C63"/>
<path d="M482.776 157.376C483.128 157.6 483.587 157.931 484.152 158.368C484.717 158.795 485.171 159.163 485.512 159.472L484.76 160.768C484.461 160.448 484.019 160.048 483.432 159.568C482.856 159.088 482.381 158.725 482.008 158.48L482.776 157.376ZM495.88 157.824V159.136H492.248V160.848H495.064V171.456H493.768V170.768H487.112V171.456H485.816V160.848H488.488V159.136H485.352V157.824H495.88ZM489.72 160.848H491.016V159.136H489.72V160.848ZM482.424 160.752C482.861 161.061 483.357 161.445 483.912 161.904C484.477 162.352 484.92 162.736 485.24 163.056L484.456 164.352C484.061 163.957 483.576 163.509 483 163.008C482.424 162.496 481.96 162.112 481.608 161.856L482.424 160.752ZM487.112 162.144V165.312C487.517 165.013 487.811 164.747 487.992 164.512C488.173 164.277 488.296 163.989 488.36 163.648C488.435 163.307 488.477 162.805 488.488 162.144H487.112ZM492.456 165.648C492.083 165.648 491.795 165.605 491.592 165.52C491.389 165.424 491.24 165.264 491.144 165.04C491.059 164.805 491.016 164.459 491.016 164V162.144H489.72C489.699 162.944 489.629 163.584 489.512 164.064C489.405 164.533 489.224 164.933 488.968 165.264C488.723 165.595 488.355 165.957 487.864 166.352L487.112 165.488V166.848H493.768V165.648H492.456ZM493.768 162.144H492.248V163.6C492.248 163.899 492.296 164.101 492.392 164.208C492.488 164.304 492.653 164.352 492.888 164.352H493.768V162.144ZM484.584 165.52L485.08 165.648C484.888 166.544 484.637 167.515 484.328 168.56C484.029 169.595 483.715 170.539 483.384 171.392L481.976 171.008C482.307 170.155 482.632 169.211 482.952 168.176C483.272 167.141 483.528 166.176 483.72 165.28L484.584 165.52ZM487.112 168.112V169.504H493.768V168.112H487.112ZM511.454 158.704V160.288H500.638V163.44C500.638 164.827 500.585 165.968 500.478 166.864C500.371 167.749 500.185 168.549 499.918 169.264C499.662 169.968 499.283 170.731 498.782 171.552L497.31 170.88C497.822 170.101 498.206 169.381 498.462 168.72C498.729 168.059 498.91 167.339 499.006 166.56C499.113 165.771 499.166 164.773 499.166 163.568L499.182 158.704H504.718C504.558 158.171 504.425 157.765 504.318 157.488L505.838 157.232C505.977 157.573 506.153 158.064 506.366 158.704H511.454ZM504.782 160.672L506.286 160.736V161.968H511.23V163.328H506.286V165.264H510.286V171.52H508.782V170.704H503.166V171.52H501.694V165.264H504.782V160.672ZM503.166 169.36H508.782V166.672H503.166V169.36ZM516.036 159.424V169.584H527.284V170.992H514.5V157.968H526.964V159.424H516.036ZM516.228 167.84C517.583 166.901 518.969 165.728 520.388 164.32C518.831 162.763 517.663 161.637 516.884 160.944L517.924 159.84C518.884 160.683 520.073 161.797 521.492 163.184C522.58 162 523.513 160.837 524.292 159.696L525.54 160.64C524.687 161.835 523.705 163.035 522.596 164.24C524.132 165.776 525.284 166.955 526.052 167.776L524.996 169.168C524.025 168.08 522.852 166.832 521.476 165.424C520.015 166.885 518.585 168.123 517.188 169.136L516.228 167.84Z" fill="#203C63"/>
<path d="M354.84 263.304V266.6C354.84 267.859 354.781 268.931 354.664 269.816C354.547 270.701 354.355 271.517 354.088 272.264C353.832 273 353.469 273.811 353 274.696L351.656 274.024C352.147 273.192 352.515 272.435 352.76 271.752C353.016 271.069 353.192 270.339 353.288 269.56C353.395 268.781 353.448 267.811 353.448 266.648V261.912H359.064C358.893 261.293 358.712 260.723 358.52 260.2L359.992 259.944C360.227 260.52 360.451 261.176 360.664 261.912H365.656V263.304H354.84ZM359.96 270.536C359.821 269.619 359.629 268.563 359.384 267.368C359.149 266.173 358.936 265.235 358.744 264.552L360.104 264.28C360.285 264.941 360.499 265.848 360.744 267C360.989 268.141 361.192 269.171 361.352 270.088L359.96 270.536ZM365.96 272.456V273.816H354.664V272.456H361.016C361.464 271.293 361.923 269.987 362.392 268.536C362.872 267.075 363.261 265.789 363.56 264.68L364.92 265.048C364.664 265.997 364.296 267.187 363.816 268.616C363.347 270.035 362.893 271.315 362.456 272.456H365.96ZM357.192 271.432C356.957 270.525 356.643 269.443 356.248 268.184C355.864 266.925 355.533 265.928 355.256 265.192L356.504 264.776C356.792 265.491 357.133 266.456 357.528 267.672C357.923 268.888 358.248 269.96 358.504 270.888L357.192 271.432ZM369.47 264.728L368.638 265.336L367.774 264.248C368.681 263.64 369.507 262.973 370.254 262.248C371.001 261.512 371.614 260.76 372.094 259.992L373.566 260.392C373.363 260.68 373.145 260.979 372.91 261.288H378.478V262.392L378.174 262.728L377.054 263.928H380.062V269.56H374.798C375.363 270.221 375.859 270.872 376.286 271.512L375.31 272.408C375.086 272.056 374.803 271.651 374.462 271.192C374.121 270.723 373.822 270.344 373.566 270.056L374.238 269.56H369.07V268.36H378.718V267.304H369.646V266.168H378.718V265.144H369.47V264.728ZM371.886 262.52C371.459 262.989 370.979 263.459 370.446 263.928H375.262C375.721 263.448 376.142 262.979 376.526 262.52H371.886ZM379.422 269.928C379.753 270.323 380.142 270.845 380.59 271.496C381.038 272.136 381.401 272.691 381.678 273.16L380.542 274.024C380.275 273.544 379.923 272.973 379.486 272.312C379.059 271.651 378.675 271.107 378.334 270.68L379.422 269.928ZM367.326 273.352C368.041 272.403 368.665 271.368 369.198 270.248L370.43 270.776C369.769 272.067 369.113 273.192 368.462 274.152L367.326 273.352ZM376.99 271.16L378.302 271.704C378.259 272.184 378.195 272.616 378.11 273C378.046 273.352 377.939 273.619 377.79 273.8C377.651 273.981 377.454 274.109 377.198 274.184C376.953 274.259 376.601 274.312 376.142 274.344C375.79 274.365 375.267 274.376 374.574 274.376C373.87 274.376 373.342 274.365 372.99 274.344C372.521 274.312 372.158 274.237 371.902 274.12C371.657 274.013 371.475 273.827 371.358 273.56C371.241 273.304 371.182 272.936 371.182 272.456V270.328L372.638 270.392V272.168C372.638 272.509 372.691 272.739 372.798 272.856C372.915 272.973 373.155 273.048 373.518 273.08C373.774 273.101 374.153 273.112 374.654 273.112C375.166 273.112 375.545 273.101 375.79 273.08C376.067 273.059 376.27 273.027 376.398 272.984C376.537 272.941 376.633 272.877 376.686 272.792C376.75 272.696 376.803 272.552 376.846 272.36C376.889 272.136 376.937 271.736 376.99 271.16ZM388.292 266.888L388.436 267.704C388.137 267.821 387.583 268.024 386.772 268.312V272.792C386.772 273.229 386.719 273.555 386.612 273.768C386.516 273.981 386.34 274.131 386.084 274.216C385.839 274.312 385.46 274.381 384.948 274.424L384.164 274.504L383.716 273.096L384.484 273.032C384.825 273 385.049 272.941 385.156 272.856C385.263 272.771 385.316 272.589 385.316 272.312V268.808C384.569 269.064 383.924 269.261 383.38 269.4L383.076 267.944C383.513 267.837 384.26 267.613 385.316 267.272V264.312H383.54V262.92H385.316V260.216L386.772 260.28V262.92H388.372V264.312H386.772V266.76C387.391 266.547 387.855 266.376 388.164 266.248L388.292 266.888ZM397.236 263.624C397.225 263.827 397.177 264.152 397.092 264.6C396.996 265.027 396.884 265.347 396.756 265.56C396.628 265.773 396.441 265.923 396.196 266.008C395.951 266.093 395.593 266.152 395.124 266.184C394.185 266.227 393.46 266.248 392.948 266.248C392.457 266.248 391.732 266.227 390.772 266.184C390.281 266.152 389.897 266.083 389.62 265.976C389.353 265.859 389.156 265.667 389.028 265.4C388.911 265.123 388.852 264.733 388.852 264.232V260.28L390.276 260.344V262.392C391.14 262.2 392.132 261.955 393.252 261.656C394.372 261.347 395.311 261.064 396.068 260.808L396.436 262.12C395.647 262.365 394.681 262.632 393.54 262.92C392.399 263.208 391.311 263.469 390.276 263.704V263.992C390.276 264.333 390.324 264.563 390.42 264.68C390.527 264.787 390.745 264.851 391.076 264.872C391.865 264.915 392.452 264.936 392.836 264.936C393.241 264.936 393.828 264.915 394.596 264.872C394.905 264.851 395.129 264.819 395.268 264.776C395.417 264.723 395.524 264.643 395.588 264.536C395.663 264.419 395.721 264.237 395.764 263.992C395.807 263.736 395.828 263.459 395.828 263.16L397.236 263.624ZM390.26 274.568H388.868V267.224H396.308V274.536H394.852V273.816H390.26V274.568ZM394.852 269.944V268.472H390.26V269.944H394.852ZM390.26 271.192V272.632H394.852V271.192H390.26ZM403.962 267.672C403.429 267.907 402.922 268.115 402.442 268.296V272.776C402.442 273.213 402.389 273.539 402.282 273.752C402.175 273.976 401.999 274.136 401.754 274.232C401.509 274.339 401.141 274.413 400.65 274.456L399.898 274.52L399.482 273.096L400.282 273.048C400.602 273.016 400.81 272.957 400.906 272.872C401.002 272.776 401.05 272.573 401.05 272.264V268.824C400.154 269.144 399.519 269.357 399.146 269.464L398.826 268.04C399.423 267.837 400.165 267.576 401.05 267.256V264.424H399.37V262.968H401.05V260.2L402.442 260.248V262.968H403.818V264.424H402.442V266.712L403.658 266.2L403.834 267.08L403.962 267.672ZM411.242 262.296H405.546V263.688H404.138V260.952H412.65V263.688H411.242V262.296ZM413.21 270.856V272.216H409.37V274.568H407.93V272.216H403.37V270.856H407.93V269.304H404.314V267.992C404.741 267.384 405.221 266.6 405.754 265.64H403.994V264.328H406.458C406.81 263.635 407.098 263.016 407.322 262.472L408.538 263L408.394 263.336L407.946 264.328H412.522V265.64H407.29C406.842 266.504 406.389 267.288 405.93 267.992H407.93V266.12L409.37 266.168V267.992H412.362V269.304H409.37V270.856H413.21ZM422.624 263.016H427.92V270.008H422.624V274.584H421.088V270.008H415.744V263.016H421.088V260.072L422.624 260.136V263.016ZM417.28 264.488V268.568H421.088V264.488H417.28ZM422.624 268.568H426.4V264.488H422.624V268.568ZM436.822 260.136C437.921 261.48 439.057 263.075 440.23 264.92L438.982 265.944C438.033 264.259 436.934 262.605 435.686 260.984L436.822 260.136ZM434.326 263.496L435.894 263.576V271.64C435.894 272.003 435.958 272.253 436.086 272.392C436.214 272.52 436.475 272.605 436.87 272.648C437.158 272.68 437.483 272.696 437.846 272.696C438.273 272.696 438.651 272.68 438.982 272.648C439.291 272.616 439.521 272.563 439.67 272.488C439.83 272.413 439.937 272.312 439.99 272.184C440.054 272.056 440.107 271.864 440.15 271.608C440.235 271.107 440.299 270.531 440.342 269.88L441.846 270.392C441.793 271.021 441.713 271.624 441.606 272.2C441.51 272.691 441.382 273.064 441.222 273.32C441.062 273.587 440.833 273.779 440.534 273.896C440.246 274.024 439.841 274.104 439.318 274.136C438.934 274.168 438.47 274.184 437.926 274.184C437.393 274.184 436.902 274.168 436.454 274.136C435.921 274.104 435.499 274.013 435.19 273.864C434.891 273.725 434.673 273.496 434.534 273.176C434.395 272.867 434.326 272.44 434.326 271.896V263.496ZM442.326 264.456C442.763 265.277 443.211 266.216 443.67 267.272C444.139 268.317 444.566 269.347 444.95 270.36L443.574 271.096C443.19 270.008 442.769 268.931 442.31 267.864C441.862 266.797 441.43 265.864 441.014 265.064L442.326 264.456ZM430.278 271C430.598 270.157 430.918 269.16 431.238 268.008C431.569 266.856 431.841 265.773 432.054 264.76L433.51 265.112C433.286 266.168 433.019 267.272 432.71 268.424C432.401 269.565 432.081 270.579 431.75 271.464L430.278 271Z" fill="#203C63"/>
<path d="M517.776 226.376C518.128 226.6 518.587 226.931 519.152 227.368C519.717 227.795 520.171 228.163 520.512 228.472L519.76 229.768C519.461 229.448 519.019 229.048 518.432 228.568C517.856 228.088 517.381 227.725 517.008 227.48L517.776 226.376ZM530.88 226.824V228.136H527.248V229.848H530.064V240.456H528.768V239.768H522.112V240.456H520.816V229.848H523.488V228.136H520.352V226.824H530.88ZM524.72 229.848H526.016V228.136H524.72V229.848ZM517.424 229.752C517.861 230.061 518.357 230.445 518.912 230.904C519.477 231.352 519.92 231.736 520.24 232.056L519.456 233.352C519.061 232.957 518.576 232.509 518 232.008C517.424 231.496 516.96 231.112 516.608 230.856L517.424 229.752ZM522.112 231.144V234.312C522.517 234.013 522.811 233.747 522.992 233.512C523.173 233.277 523.296 232.989 523.36 232.648C523.435 232.307 523.477 231.805 523.488 231.144H522.112ZM527.456 234.648C527.083 234.648 526.795 234.605 526.592 234.52C526.389 234.424 526.24 234.264 526.144 234.04C526.059 233.805 526.016 233.459 526.016 233V231.144H524.72C524.699 231.944 524.629 232.584 524.512 233.064C524.405 233.533 524.224 233.933 523.968 234.264C523.723 234.595 523.355 234.957 522.864 235.352L522.112 234.488V235.848H528.768V234.648H527.456ZM528.768 231.144H527.248V232.6C527.248 232.899 527.296 233.101 527.392 233.208C527.488 233.304 527.653 233.352 527.888 233.352H528.768V231.144ZM519.584 234.52L520.08 234.648C519.888 235.544 519.637 236.515 519.328 237.56C519.029 238.595 518.715 239.539 518.384 240.392L516.976 240.008C517.307 239.155 517.632 238.211 517.952 237.176C518.272 236.141 518.528 235.176 518.72 234.28L519.584 234.52ZM522.112 237.112V238.504H528.768V237.112H522.112ZM530.704 249.704V251.288H519.888V254.44C519.888 255.827 519.835 256.968 519.728 257.864C519.621 258.749 519.435 259.549 519.168 260.264C518.912 260.968 518.533 261.731 518.032 262.552L516.56 261.88C517.072 261.101 517.456 260.381 517.712 259.72C517.979 259.059 518.16 258.339 518.256 257.56C518.363 256.771 518.416 255.773 518.416 254.568L518.432 249.704H523.968C523.808 249.171 523.675 248.765 523.568 248.488L525.088 248.232C525.227 248.573 525.403 249.064 525.616 249.704H530.704ZM524.032 251.672L525.536 251.736V252.968H530.48V254.328H525.536V256.264H529.536V262.52H528.032V261.704H522.416V262.52H520.944V256.264H524.032V251.672ZM522.416 260.36H528.032V257.672H522.416V260.36ZM519.536 272.424V282.584H530.784V283.992H518V270.968H530.464V272.424H519.536ZM519.728 280.84C521.083 279.901 522.469 278.728 523.888 277.32C522.331 275.763 521.163 274.637 520.384 273.944L521.424 272.84C522.384 273.683 523.573 274.797 524.992 276.184C526.08 275 527.013 273.837 527.792 272.696L529.04 273.64C528.187 274.835 527.205 276.035 526.096 277.24C527.632 278.776 528.784 279.955 529.552 280.776L528.496 282.168C527.525 281.08 526.352 279.832 524.976 278.424C523.515 279.885 522.085 281.123 520.688 282.136L519.728 280.84Z" fill="#203C63"/>
<path d="M514.776 509.376C515.128 509.6 515.587 509.931 516.152 510.368C516.717 510.795 517.171 511.163 517.512 511.472L516.76 512.768C516.461 512.448 516.019 512.048 515.432 511.568C514.856 511.088 514.381 510.725 514.008 510.48L514.776 509.376ZM527.88 509.824V511.136H524.248V512.848H527.064V523.456H525.768V522.768H519.112V523.456H517.816V512.848H520.488V511.136H517.352V509.824H527.88ZM521.72 512.848H523.016V511.136H521.72V512.848ZM514.424 512.752C514.861 513.061 515.357 513.445 515.912 513.904C516.477 514.352 516.92 514.736 517.24 515.056L516.456 516.352C516.061 515.957 515.576 515.509 515 515.008C514.424 514.496 513.96 514.112 513.608 513.856L514.424 512.752ZM519.112 514.144V517.312C519.517 517.013 519.811 516.747 519.992 516.512C520.173 516.277 520.296 515.989 520.36 515.648C520.435 515.307 520.477 514.805 520.488 514.144H519.112ZM524.456 517.648C524.083 517.648 523.795 517.605 523.592 517.52C523.389 517.424 523.24 517.264 523.144 517.04C523.059 516.805 523.016 516.459 523.016 516V514.144H521.72C521.699 514.944 521.629 515.584 521.512 516.064C521.405 516.533 521.224 516.933 520.968 517.264C520.723 517.595 520.355 517.957 519.864 518.352L519.112 517.488V518.848H525.768V517.648H524.456ZM525.768 514.144H524.248V515.6C524.248 515.899 524.296 516.101 524.392 516.208C524.488 516.304 524.653 516.352 524.888 516.352H525.768V514.144ZM516.584 517.52L517.08 517.648C516.888 518.544 516.637 519.515 516.328 520.56C516.029 521.595 515.715 522.539 515.384 523.392L513.976 523.008C514.307 522.155 514.632 521.211 514.952 520.176C515.272 519.141 515.528 518.176 515.72 517.28L516.584 517.52ZM519.112 520.112V521.504H525.768V520.112H519.112ZM527.704 532.704V534.288H516.888V537.44C516.888 538.827 516.835 539.968 516.728 540.864C516.621 541.749 516.435 542.549 516.168 543.264C515.912 543.968 515.533 544.731 515.032 545.552L513.56 544.88C514.072 544.101 514.456 543.381 514.712 542.72C514.979 542.059 515.16 541.339 515.256 540.56C515.363 539.771 515.416 538.773 515.416 537.568L515.432 532.704H520.968C520.808 532.171 520.675 531.765 520.568 531.488L522.088 531.232C522.227 531.573 522.403 532.064 522.616 532.704H527.704ZM521.032 534.672L522.536 534.736V535.968H527.48V537.328H522.536V539.264H526.536V545.52H525.032V544.704H519.416V545.52H517.944V539.264H521.032V534.672ZM519.416 543.36H525.032V540.672H519.416V543.36ZM516.536 555.424V565.584H527.784V566.992H515V553.968H527.464V555.424H516.536ZM516.728 563.84C518.083 562.901 519.469 561.728 520.888 560.32C519.331 558.763 518.163 557.637 517.384 556.944L518.424 555.84C519.384 556.683 520.573 557.797 521.992 559.184C523.08 558 524.013 556.837 524.792 555.696L526.04 556.64C525.187 557.835 524.205 559.035 523.096 560.24C524.632 561.776 525.784 562.955 526.552 563.776L525.496 565.168C524.525 564.08 523.352 562.832 521.976 561.424C520.515 562.885 519.085 564.123 517.688 565.136L516.728 563.84Z" fill="#203C63"/>
<path d="M321.088 415.84V411.712H330.592V415.84H321.088ZM329.088 413.008H322.592V414.576H329.088V413.008ZM320.576 422.336V417.056H331.104V422.272H329.632V418.432H322.064V422.336H320.576ZM318.88 424.272C320.779 423.92 322.203 423.488 323.152 422.976C324.112 422.464 324.688 421.787 324.88 420.944C325.008 420.464 325.099 419.835 325.152 419.056L326.656 419.12C326.635 419.365 326.587 419.739 326.512 420.24C326.448 420.741 326.379 421.163 326.304 421.504C326.101 422.411 325.429 423.232 324.288 423.968C323.157 424.693 321.525 425.28 319.392 425.728L318.88 424.272ZM326.784 421.776C329.205 422.725 331.104 423.541 332.48 424.224L331.936 425.712C329.995 424.699 328.085 423.808 326.208 423.04L326.784 421.776ZM326.672 429.872V439.152H332.8V440.576H318.896V439.152H325.008V429.872H319.984V428.368H331.728V429.872H326.672ZM322.24 446.96C321.899 446.64 321.424 446.245 320.816 445.776C320.219 445.307 319.733 444.955 319.36 444.72L320.144 443.552C320.528 443.776 321.024 444.112 321.632 444.56C322.24 444.997 322.709 445.36 323.04 445.648L322.24 446.96ZM332.912 449.232H328.432V451.344H331.68V457.6H330.176V456.784H325.2V457.6H323.696V451.344H326.928V449.232H322.96V447.792H326.928V445.52C325.531 445.627 324.395 445.696 323.52 445.728L323.392 444.336C324.704 444.293 326.165 444.197 327.776 444.048C329.397 443.899 330.704 443.739 331.696 443.568L331.968 444.96C330.912 445.12 329.733 445.264 328.432 445.392V447.792H332.912V449.232ZM321.696 450.816C321.301 450.453 320.784 450.021 320.144 449.52C319.504 449.008 318.981 448.619 318.576 448.352L319.408 447.168C319.877 447.467 320.421 447.845 321.04 448.304C321.659 448.752 322.144 449.136 322.496 449.456L321.696 450.816ZM321.936 451.888L322.56 452.112C322.432 452.613 322.128 453.504 321.648 454.784C321.168 456.064 320.811 456.944 320.576 457.424L319.152 456.928C319.376 456.491 319.728 455.632 320.208 454.352C320.688 453.061 321.003 452.149 321.152 451.616L321.936 451.888ZM325.2 455.424H330.176V452.784H325.2V455.424ZM332.352 462.096C332.341 462.832 332.256 465.211 332.096 469.232L332.032 471.152C332.011 471.675 331.931 472.064 331.792 472.32C331.653 472.587 331.424 472.779 331.104 472.896C330.795 473.013 330.32 473.104 329.68 473.168L328.704 473.264L328.224 471.824L329.184 471.744C329.621 471.701 329.936 471.648 330.128 471.584C330.32 471.509 330.453 471.392 330.528 471.232C330.603 471.072 330.651 470.811 330.672 470.448C330.715 469.552 330.757 468.405 330.8 467.008C330.853 465.6 330.896 464.432 330.928 463.504H328.576C328.491 465.648 328.389 467.227 328.272 468.24C328.155 469.253 327.915 470.187 327.552 471.04C327.189 471.893 326.597 472.832 325.776 473.856L324.48 472.96C325.003 472.352 325.408 471.819 325.696 471.36L324.704 472C324.523 471.456 324.432 471.184 324.432 471.184C323.184 471.365 321.877 471.568 320.512 471.792C320.331 471.813 320.133 471.851 319.92 471.904C319.707 471.947 319.557 471.979 319.472 472L318.928 470.496C319.109 470.411 319.237 470.325 319.312 470.24C319.387 470.144 319.483 469.984 319.6 469.76C319.792 469.397 320.043 468.816 320.352 468.016C320.661 467.205 320.933 466.427 321.168 465.68H318.848V464.256H325.824V465.68H322.688C322.432 466.544 322.133 467.44 321.792 468.368C321.461 469.285 321.189 469.92 320.976 470.272L323.936 469.824C323.499 468.715 323.147 467.867 322.88 467.28L324.192 466.784C324.448 467.328 324.741 468.016 325.072 468.848C325.403 469.669 325.675 470.4 325.888 471.04C326.219 470.464 326.469 469.856 326.64 469.216C326.811 468.565 326.928 467.829 326.992 467.008C327.067 466.176 327.131 465.008 327.184 463.504H325.424V462.096H327.216L327.28 459.12L328.672 459.184L328.624 462.096H332.352ZM319.632 460.288H325.296V461.68H319.632V460.288ZM326.624 478.016H331.92V485.008H326.624V489.584H325.088V485.008H319.744V478.016H325.088V475.072L326.624 475.136V478.016ZM321.28 479.488V483.568H325.088V479.488H321.28ZM326.624 483.568H330.4V479.488H326.624V483.568ZM325.072 491.136C326.171 492.48 327.307 494.075 328.48 495.92L327.232 496.944C326.283 495.259 325.184 493.605 323.936 491.984L325.072 491.136ZM322.576 494.496L324.144 494.576V502.64C324.144 503.003 324.208 503.253 324.336 503.392C324.464 503.52 324.725 503.605 325.12 503.648C325.408 503.68 325.733 503.696 326.096 503.696C326.523 503.696 326.901 503.68 327.232 503.648C327.541 503.616 327.771 503.563 327.92 503.488C328.08 503.413 328.187 503.312 328.24 503.184C328.304 503.056 328.357 502.864 328.4 502.608C328.485 502.107 328.549 501.531 328.592 500.88L330.096 501.392C330.043 502.021 329.963 502.624 329.856 503.2C329.76 503.691 329.632 504.064 329.472 504.32C329.312 504.587 329.083 504.779 328.784 504.896C328.496 505.024 328.091 505.104 327.568 505.136C327.184 505.168 326.72 505.184 326.176 505.184C325.643 505.184 325.152 505.168 324.704 505.136C324.171 505.104 323.749 505.013 323.44 504.864C323.141 504.725 322.923 504.496 322.784 504.176C322.645 503.867 322.576 503.44 322.576 502.896V494.496ZM330.576 495.456C331.013 496.277 331.461 497.216 331.92 498.272C332.389 499.317 332.816 500.347 333.2 501.36L331.824 502.096C331.44 501.008 331.019 499.931 330.56 498.864C330.112 497.797 329.68 496.864 329.264 496.064L330.576 495.456ZM318.528 502C318.848 501.157 319.168 500.16 319.488 499.008C319.819 497.856 320.091 496.773 320.304 495.76L321.76 496.112C321.536 497.168 321.269 498.272 320.96 499.424C320.651 500.565 320.331 501.579 320 502.464L318.528 502Z" fill="#203C63"/>
<rect x="703" y="267" width="41" height="145" fill="#A7634E"/>
<rect x="744" y="267" width="8" height="145" fill="#6A5427"/>
<rect x="760" y="267" width="8" height="145" fill="#CE9E57"/>
<path d="M337 255L339.919 263.983H349.364L341.723 269.534L344.641 278.517L337 272.966L329.359 278.517L332.277 269.534L324.636 263.983H334.081L337 255Z" fill="#E74F4F"/>
</svg>
