<svg width="1022" height="720" viewBox="0 0 1022 720" fill="none" xmlns="http://www.w3.org/2000/svg">
<rect x="58" y="328.953" width="95" height="71" fill="#363558"/>
<rect x="58" y="328.953" width="95" height="71" fill="#CEB045" fill-opacity="0.12"/>
<path fill-rule="evenodd" clip-rule="evenodd" d="M50.473 0L93.4997 0.00259565L92.1827 18.9524L1019 18.9525V60.9525L89.2638 60.9525L47.6344 659.952L1019 659.952V701.953L44.7155 701.952L43.4994 719.45L0.5 719.452L50.473 0Z" fill="#556B8C"/>
<path d="M153 96.9531C153 83.6983 163.745 72.9531 177 72.9531H904V619.953C904 633.208 893.255 643.953 880 643.953H177C163.745 643.953 153 633.208 153 619.953V96.9531Z" fill="#363558"/>
<path d="M153 96.9531C153 83.6983 163.745 72.9531 177 72.9531H904V619.953C904 633.208 893.255 643.953 880 643.953H177C163.745 643.953 153 633.208 153 619.953V96.9531Z" fill="#CEB045" fill-opacity="0.12"/>
<rect x="202" y="122.953" width="502" height="473" rx="20" fill="#324A6D"/>
<rect x="202" y="122.953" width="502" height="473" rx="20" fill="#324A6D"/>
<rect x="920" y="72.9531" width="23" height="173" fill="#363558"/>
<rect x="920" y="72.9531" width="23" height="173" fill="#CEB045" fill-opacity="0.12"/>
<rect x="925" y="431.953" width="23" height="212" fill="#363558"/>
<rect x="925" y="431.953" width="23" height="212" fill="#CEB045" fill-opacity="0.12"/>
<rect x="872" y="624.953" width="76" height="36" fill="#363558"/>
<rect x="872" y="624.953" width="76" height="36" fill="#CEB045" fill-opacity="0.12"/>
<rect x="871" y="62.9531" width="76" height="36" fill="#363558"/>
<rect x="871" y="62.9531" width="76" height="36" fill="#CEB045" fill-opacity="0.12"/>
<path d="M904 241.953H926C979.019 241.953 1022 284.934 1022 337.953V337.953C1022 390.972 979.019 433.953 926 433.953H904V241.953Z" fill="#363558"/>
<path d="M904 241.953H926C979.019 241.953 1022 284.934 1022 337.953V337.953C1022 390.972 979.019 433.953 926 433.953H904V241.953Z" fill="#CEB045" fill-opacity="0.12"/>
<path d="M673 139.953H589.5V198.453H623.5V291.953H568.5V357.953H689.5C689.5 357.953 689.5 328.953 673 307.453V139.953Z" fill="#64A4C9"/>
<path d="M673 579.953H589.5V536.453H623.5V424.453H568.5V357.953H689.5C689.5 357.953 689.5 387.453 673 408.953V579.953Z" fill="#64A4C9"/>
<rect x="314" y="197.953" width="23" height="124" fill="#597FB3"/>
<rect x="314" y="321.953" width="23" height="77" fill="#02F7FA"/>
<rect x="314" y="398.953" width="23" height="133" fill="#597FB3"/>
<rect x="337" y="197.953" width="23" height="334" fill="#4069A0"/>
<path fill-rule="evenodd" clip-rule="evenodd" d="M459 197.953L474 192.453C488.833 219.62 518.5 289.653 518.5 352.453C518.5 415.253 506 476.953 478.5 537.453L459 531.953H360V197.953H459Z" fill="#39A1ED"/>
<path d="M547 382.453H534V394.453L529.5 398.953V416.453L525 420.953V448.453H520V469.453H514V487.953H508V512.453L495 525.453V581.953H543V482.953H534V446.953H536V425.953H541V412.953H547V382.453Z" fill="#64A4C9"/>
<path d="M523.5 199.453H499.5V213.953H509.5V224.453H504.5V238.953H509.5V263.953H515.5V297.453H528.5V305.953L533.5 308.453V321.953L537.5 341.953H544V302.453H537.5V274.953H547.5V259.953H544V256.453H539.5V247.953H537.5V219.953H533.5V210.453H523.5V199.453Z" fill="#64A4C9"/>
<path d="M744 451.953C744 442.012 752.059 433.953 762 433.953H837C856.882 433.953 873 450.071 873 469.953V596.953C873 603.581 867.627 608.953 861 608.953H756C749.373 608.953 744 603.581 744 596.953V451.953Z" fill="#266940"/>
<path d="M871 62.9531H729.5C729.5 62.9531 737.889 70.5984 741 76.9531C744.166 83.4206 745 94.9531 745 94.9531V220.953C745 228.685 751.268 234.953 759 234.953H839C856.673 234.953 871 220.626 871 202.953V62.9531Z" fill="#266940"/>
<path fill-rule="evenodd" clip-rule="evenodd" d="M877.065 417.899L881 418.953H926C969.63 418.953 1005 383.584 1005 339.953C1005 296.323 969.63 260.953 926 260.953H894.327C874.587 285.346 844.969 349.772 877.065 417.899ZM864.058 266.953H704V411.453H850.452C828.546 351.767 845.254 298.347 864.058 266.953Z" fill="#877550"/>
<rect x="376" y="138.953" width="180" height="35" fill="#7A9AC7"/>
<rect x="376" y="135.953" width="180" height="19" fill="#64A4C9"/>
<path d="M262 139.453V154.953V429.453H221V139.453H262Z" fill="#64A4C9"/>
<path d="M261.5 454.953H220.5V581.953H329V568.953H261.5V454.953Z" fill="#64A4C9"/>
<path d="M362 581.953V564.953H460V581.953H362Z" fill="#7A9AC7"/>
<rect x="262" y="138.953" width="81" height="16" fill="#64A4C9"/>
<path d="M641.5 408.953H672.5L673 579.953H659.5C659.5 579.953 641.5 504.453 641.5 408.953Z" fill="#8BB9D2"/>
<path d="M642.5 307.953H673.5L674 139.953H660.5C660.5 139.953 642.5 212.453 642.5 307.953Z" fill="#8BB9D2"/>
<path d="M889 72.4531V217.953M931.5 72.4531V252.795C931.5 253.987 932.466 254.953 933.658 254.953V254.953C977.753 254.953 1013.5 290.7 1013.5 334.795V340.953C1013.5 388.45 974.996 426.953 927.5 426.953H728.697C724.446 426.953 721 430.399 721 434.651V596.953C721 610.208 710.255 620.953 697 620.953H200.5C187.245 620.953 176.5 610.208 176.5 596.953V124.453C176.5 111.198 187.245 100.453 200.5 100.453H697C710.255 100.453 721 111.198 721 124.453V230.953C721 244.208 731.745 254.953 745 254.953H865C878.255 254.953 889 244.208 889 230.953V217.953M936.5 643.953V435.453M882.5 643.953V448.953C882.5 448.953 811 357.453 882.5 261.953C889 248.453 889 236.753 889 217.953M92 346.453H160.5C169.337 346.453 176.5 339.29 176.5 330.453V319.953M92 380.953H160.5C169.337 380.953 176.5 388.117 176.5 396.953V402.953" stroke="#C77F57" stroke-width="3"/>
<path d="M88 345.953L95.5 341.623L95.5 350.283L88 345.953Z" fill="#C77F57"/>
<path d="M434 99.9531L441.5 95.623L441.5 104.283L434 99.9531Z" fill="#C77F57"/>
<path d="M889 213.953L884.67 206.453L893.33 206.453L889 213.953Z" fill="#C77F57"/>
<path d="M931 68.9531L926.67 76.4531L935.33 76.4531L931 68.9531Z" fill="#C77F57"/>
<path d="M937 431.953L932.67 439.453L941.33 439.453L937 431.953Z" fill="#C77F57"/>
<path d="M885.5 453.285L885.5 444.625L878 448.955L885.5 453.285Z" fill="#C77F57"/>
<path d="M857 426.953L849.5 422.623L849.5 431.283L857 426.953Z" fill="#C77F57"/>
<path d="M883 646.953L887.33 639.453H878.67L883 646.953Z" fill="#C77F57"/>
<path d="M177.417 398.907L171.294 392.784L179.659 390.542L177.417 398.907Z" fill="#C77F57"/>
<path d="M460.152 304.673H457.24L457.128 308.509H459.312V310.861H457.044V311.169C457.007 312.084 456.857 312.774 456.596 313.241C456.335 313.726 455.915 314.072 455.336 314.277C454.757 314.482 453.927 314.613 452.844 314.669L450.436 314.809L449.624 312.373L452.172 312.233C453.049 312.177 453.647 312.065 453.964 311.897C454.281 311.71 454.468 311.365 454.524 310.861H442.428L443.072 304.673H441.196V302.405H443.324L443.828 297.673C443.249 298.364 442.979 298.69 443.016 298.653L441.308 296.861C442.316 295.778 443.268 294.528 444.164 293.109C445.06 291.672 445.769 290.3 446.292 288.993L448.56 289.721C448.299 290.393 447.963 291.102 447.552 291.849H459.144V294.117H446.292C445.863 294.826 445.377 295.564 444.836 296.329H457.52L457.464 297.729L457.324 302.405H460.152V304.673ZM441.224 295.769C440.664 295.19 439.88 294.5 438.872 293.697C437.883 292.876 437.043 292.241 436.352 291.793L437.752 289.945C438.443 290.374 439.255 290.953 440.188 291.681C441.121 292.39 441.896 293.025 442.512 293.585L441.224 295.769ZM440.02 302.041C439.46 301.462 438.667 300.762 437.64 299.941C436.613 299.101 435.755 298.457 435.064 298.009L436.464 296.105C437.192 296.553 438.051 297.15 439.04 297.897C440.048 298.644 440.813 299.278 441.336 299.801L440.02 302.041ZM446.208 298.597L445.788 302.405H451.248C450.072 301.322 449.008 300.473 448.056 299.857L448.952 298.597H446.208ZM454.972 302.405L455.056 300.557L455.14 298.597H450.072C451.248 299.418 452.153 300.118 452.788 300.697L451.752 302.405H454.972ZM441.084 304.897C440.86 305.849 440.347 307.51 439.544 309.881C438.741 312.252 438.153 313.838 437.78 314.641L435.372 313.773C435.764 312.989 436.38 311.421 437.22 309.069C438.079 306.698 438.629 305.028 438.872 304.057L441.084 304.897ZM445.508 304.673L445.088 308.509H450.772C450.324 308.098 449.783 307.641 449.148 307.137C448.513 306.633 447.991 306.25 447.58 305.989L448.56 304.673H445.508ZM454.664 308.509L454.72 307.417C454.795 306.353 454.841 305.438 454.86 304.673H449.512C450.016 305.009 450.539 305.392 451.08 305.821C451.64 306.232 452.079 306.586 452.396 306.885L451.332 308.509H454.664ZM460.264 345.073V347.621H452.312V353.697H449.68V347.621H441.84V345.073H449.68V341.545H443.548V339.053H449.68V335.441H443.352V332.921H447.244C446.964 332.398 446.572 331.736 446.068 330.933C445.564 330.112 445.2 329.552 444.976 329.253L447.076 327.965C447.505 328.544 448.261 329.72 449.344 331.493L449.652 331.997L448.168 332.921H451.836C452.321 332.174 452.835 331.334 453.376 330.401C453.936 329.468 454.375 328.684 454.692 328.049L457.128 329.169C456.512 330.289 455.756 331.54 454.86 332.921H459.144V335.441H452.312V339.053H458.528V341.545H452.312V345.073H460.264ZM441.56 335.105C441.019 334.526 440.253 333.854 439.264 333.089C438.275 332.305 437.397 331.67 436.632 331.185L438.032 329.169C438.779 329.636 439.647 330.233 440.636 330.961C441.644 331.689 442.419 332.305 442.96 332.809L441.56 335.105ZM440.552 341.629C439.917 340.994 439.059 340.257 437.976 339.417C436.893 338.558 435.988 337.896 435.26 337.429L436.66 335.357C437.425 335.824 438.34 336.44 439.404 337.205C440.468 337.97 441.308 338.642 441.924 339.221L440.552 341.629ZM441.924 344.289C441.663 345.278 441.131 346.856 440.328 349.021C439.525 351.168 438.9 352.68 438.452 353.557L435.932 352.633C436.305 351.868 436.921 350.337 437.78 348.041C438.639 345.745 439.189 344.14 439.432 343.225L441.924 344.289ZM458.724 380.825H449.624V389.141C449.624 390 449.503 390.653 449.26 391.101C449.017 391.549 448.625 391.876 448.084 392.081C447.561 392.286 446.796 392.426 445.788 392.501L444.052 392.641L443.24 390.037L445.032 389.869C445.573 389.832 445.965 389.766 446.208 389.673C446.469 389.58 446.637 389.44 446.712 389.253C446.805 389.048 446.852 388.74 446.852 388.329V380.825H437.388L438.536 369.485C441.616 369.392 444.827 369.205 448.168 368.925C451.528 368.626 454.412 368.272 456.82 367.861L457.352 370.465C455.131 370.801 452.536 371.109 449.568 371.389C446.6 371.669 443.753 371.884 441.028 372.033L440.328 378.277H446.852V372.733L449.624 372.817V378.277H458.724V380.825ZM443.576 383.485C442.829 384.68 441.84 386.033 440.608 387.545C439.395 389.057 438.181 390.429 436.968 391.661L434.952 389.925C436.184 388.73 437.379 387.414 438.536 385.977C439.712 384.54 440.645 383.233 441.336 382.057L443.576 383.485ZM453.6 382.057C454.627 383.158 455.747 384.409 456.96 385.809C458.192 387.19 459.247 388.441 460.124 389.561L458.108 391.633C457.231 390.42 456.157 389.048 454.888 387.517C453.619 385.986 452.517 384.726 451.584 383.737L453.6 382.057ZM436.8 431.697V407.449H458.696V431.697H456.26V430.465H439.348V431.697H436.8ZM439.348 409.885V428.169H456.26V409.885H439.348ZM441.644 412.321H453.852V414.477H441.644V412.321ZM455.308 422.345C455.289 422.7 455.224 423.297 455.112 424.137C454.963 425.033 454.711 425.649 454.356 425.985C454.001 426.321 453.404 426.498 452.564 426.517H450.576C449.736 426.498 449.148 426.293 448.812 425.901C448.476 425.509 448.308 424.846 448.308 423.913V419.153H446.04C445.984 420.59 445.797 421.785 445.48 422.737C445.181 423.689 444.696 424.538 444.024 425.285C443.352 426.013 442.4 426.788 441.168 427.609L439.656 425.565C440.739 424.949 441.569 424.352 442.148 423.773C442.727 423.176 443.128 422.532 443.352 421.841C443.595 421.132 443.735 420.236 443.772 419.153H440.356V417.025H455.112V419.153H450.492V423.409C450.492 423.801 450.548 424.081 450.66 424.249C450.772 424.398 450.987 424.473 451.304 424.473H452.116C452.489 424.454 452.732 424.389 452.844 424.277C452.975 424.146 453.077 423.829 453.152 423.325C453.264 422.709 453.32 422.168 453.32 421.701L455.308 422.345Z" fill="#203C63"/>
<path d="M344.088 316.793V312.665H353.592V316.793H344.088ZM352.088 313.961H345.592V315.529H352.088V313.961ZM343.576 323.289V318.009H354.104V323.225H352.632V319.385H345.064V323.289H343.576ZM341.88 325.225C343.779 324.873 345.203 324.441 346.152 323.929C347.112 323.417 347.688 322.74 347.88 321.897C348.008 321.417 348.099 320.788 348.152 320.009L349.656 320.073C349.635 320.318 349.587 320.692 349.512 321.193C349.448 321.694 349.379 322.116 349.304 322.457C349.101 323.364 348.429 324.185 347.288 324.921C346.157 325.646 344.525 326.233 342.392 326.681L341.88 325.225ZM349.784 322.729C352.205 323.678 354.104 324.494 355.48 325.177L354.936 326.665C352.995 325.652 351.085 324.761 349.208 323.993L349.784 322.729ZM349.672 336.825V346.105H355.8V347.529H341.896V346.105H348.008V336.825H342.984V335.321H354.728V336.825H349.672ZM344.024 359.017V360.889H342.568V357.753H348.296C348.136 357.188 347.981 356.713 347.832 356.329L349.4 356.105C349.699 356.969 349.885 357.518 349.96 357.753H355.096V359.961H353.656V359.017H344.024ZM346.36 359.913C346.051 360.756 345.656 361.588 345.176 362.409V370.585H343.736V364.585C343.213 365.268 342.675 365.902 342.12 366.489L341.432 365.049C342.125 364.356 342.813 363.497 343.496 362.473C344.179 361.449 344.691 360.462 345.032 359.513L346.36 359.913ZM355.496 361.641H351.464C351.357 362.046 351.229 362.51 351.08 363.033H354.52V370.457H353.112V369.753H348.328V370.505H346.92V363.033H349.56C349.667 362.66 349.789 362.196 349.928 361.641H346.328V360.409H355.496V361.641ZM348.328 365.801H353.112V364.233H348.328V365.801ZM348.328 366.985V368.569H353.112V366.985H348.328ZM352.568 383.065H349.608V384.553H355.128V385.817H349.608V387.273H353.864V392.553H352.392V391.849H345.256V392.553H343.784V387.273H348.104V385.817H342.52V384.553H348.104V383.065H345.128V382.249C344.264 382.74 343.283 383.22 342.184 383.689L341.576 382.281C344.488 381.214 346.701 379.78 348.216 377.977H349.496C350.232 378.852 351.165 379.646 352.296 380.361C353.427 381.076 354.691 381.684 356.088 382.185L355.464 383.593C354.483 383.188 353.517 382.718 352.568 382.185V383.065ZM345.848 381.817H351.928C350.573 380.996 349.549 380.153 348.856 379.289C348.131 380.164 347.128 381.006 345.848 381.817ZM345.256 390.601H352.392V388.569H345.256V390.601Z" fill="#203C63"/>
<path d="M332.368 344.489L332.256 347.241C332.117 351.156 332.027 353.369 331.984 353.881C331.952 354.404 331.845 354.809 331.664 355.097C331.483 355.396 331.221 355.614 330.88 355.753C330.539 355.892 330.08 355.982 329.504 356.025L328.256 356.121L327.808 354.761L329.104 354.665C329.509 354.633 329.813 354.58 330.016 354.505C330.229 354.42 330.384 354.286 330.48 354.105C330.587 353.913 330.651 353.63 330.672 353.257C330.715 352.361 330.773 351.124 330.848 349.545C330.933 347.956 330.992 346.724 331.024 345.849H330.32C330.085 347.438 329.787 348.798 329.424 349.929C329.072 351.06 328.555 352.137 327.872 353.161C327.2 354.185 326.277 355.22 325.104 356.265L324.16 355.209C325.248 354.27 326.112 353.332 326.752 352.393C327.392 351.454 327.883 350.478 328.224 349.465C328.576 348.452 328.875 347.246 329.12 345.849H328.048C327.739 347.374 327.259 348.734 326.608 349.929C325.957 351.113 325.045 352.276 323.872 353.417L322.976 352.345C324.021 351.428 324.848 350.457 325.456 349.433C326.075 348.409 326.533 347.214 326.832 345.849H325.776C325.307 346.83 324.821 347.689 324.32 348.425L323.216 347.593C323.749 346.889 324.251 346.02 324.72 344.985C325.2 343.95 325.579 342.926 325.856 341.913L327.168 342.297C326.912 343.108 326.651 343.838 326.384 344.489H332.368ZM324.16 350.249C323.605 350.494 323.067 350.724 322.544 350.937V356.473H321.248V351.465C320.373 351.828 319.573 352.148 318.848 352.425L318.464 351.017C319.061 350.825 319.989 350.484 321.248 349.993V346.537H320.256C320.096 347.7 319.936 348.665 319.776 349.433L318.528 349.209C318.72 348.398 318.891 347.465 319.04 346.409C319.189 345.353 319.291 344.34 319.344 343.369L320.576 343.481C320.555 343.801 320.501 344.366 320.416 345.177H321.248V342.041L322.544 342.105V345.177H323.888V346.537H322.544V349.481L323.968 348.889L324.064 349.561L324.16 350.249ZM328.336 376.409H332.864V377.833H318.864V376.409H323.408V364.217L324.944 364.281V376.409H326.784V364.217L328.336 364.265V376.409ZM321.872 373.945C321.552 372.932 321.136 371.796 320.624 370.537C320.123 369.268 319.68 368.244 319.296 367.465L320.688 366.825C321.051 367.54 321.504 368.558 322.048 369.881C322.603 371.193 323.019 372.27 323.296 373.113L321.872 373.945ZM332.448 367.433C332.149 368.372 331.733 369.476 331.2 370.745C330.677 372.014 330.181 373.097 329.712 373.993L328.336 373.305C328.837 372.377 329.333 371.31 329.824 370.105C330.325 368.9 330.72 367.812 331.008 366.841L332.448 367.433Z" fill="#203C63"/>
<path d="M320.688 220.409C320.272 220.91 319.835 221.38 319.376 221.817L318.576 220.601C319.227 220.068 319.867 219.369 320.496 218.505C321.136 217.641 321.648 216.782 322.032 215.929L323.328 216.409C323.232 216.612 323.003 217.038 322.64 217.689H325.952C325.824 217.209 325.675 216.745 325.504 216.297L326.864 216.041C327.109 216.734 327.285 217.284 327.392 217.689H331.968V218.761H327.312V219.657H331.568V220.649H327.312V221.529H331.568V222.553H327.312V223.449H332.256V224.553H320.688V220.409ZM322.048 219.657H325.952V218.761H322.048V219.657ZM322.048 221.529H325.952V220.649H322.048V221.529ZM322.048 223.449H325.952V222.553H322.048V223.449ZM332.512 230.281C331.125 229.854 329.957 229.438 329.008 229.033C328.059 228.638 327.232 228.185 326.528 227.673V230.553H325.136V227.737C324.4 228.27 323.547 228.74 322.576 229.145C321.616 229.55 320.496 229.95 319.216 230.345L318.656 229.049C321.291 228.409 323.243 227.652 324.512 226.777H319.248V225.609H325.136V224.745L326.528 224.793V225.609H332.512V226.777H327.184C328.699 227.705 330.656 228.446 333.056 229.001L332.512 230.281ZM319.568 252.585V238.761H332.112V252.585H330.624V251.769H321.056V252.585H319.568ZM321.056 240.121V250.489H330.624V240.121H321.056ZM330.048 242.265V243.529H328.288V247.977C328.288 248.436 328.224 248.788 328.096 249.033C327.979 249.278 327.776 249.454 327.488 249.561C327.211 249.668 326.8 249.742 326.256 249.785L325.008 249.881L324.56 248.553L325.968 248.457C326.331 248.425 326.571 248.345 326.688 248.217C326.805 248.089 326.869 247.86 326.88 247.529V244.457C325.696 246.121 324.091 247.604 322.064 248.905L321.2 247.737C323.248 246.564 324.832 245.161 325.952 243.529H321.792V242.265H326.88V240.617L328.288 240.681V242.265H330.048Z" fill="#203C63"/>
<path d="M254.196 261.211V263.103H247.948V265.963H252.942V279.977H251.006V278.613H238.532V279.955H236.552V265.963H241.37V263.103H235.386V261.211H254.196ZM243.306 265.963H245.968V263.103H243.306V265.963ZM238.532 267.899V273.575C239.383 273.018 240.006 272.497 240.402 272.013C240.798 271.514 241.055 270.972 241.172 270.385C241.289 269.798 241.355 268.97 241.37 267.899H238.532ZM238.532 276.721H251.006V273.861H248.762C247.735 273.861 247.009 273.663 246.584 273.267C246.173 272.856 245.968 272.152 245.968 271.155V267.899H243.306C243.291 269.19 243.181 270.246 242.976 271.067C242.785 271.874 242.426 272.6 241.898 273.245C241.37 273.876 240.6 274.499 239.588 275.115L238.532 273.883V276.721ZM251.006 267.899H247.948V270.495C247.948 271.082 248.043 271.47 248.234 271.661C248.425 271.837 248.821 271.925 249.422 271.925H251.006V267.899ZM238.862 294.411V308.381H254.328V310.317H236.75V292.409H253.888V294.411H238.862ZM239.126 305.983C240.989 304.692 242.895 303.079 244.846 301.143C242.705 299.002 241.099 297.454 240.028 296.501L241.458 294.983C242.778 296.142 244.413 297.674 246.364 299.581C247.86 297.953 249.143 296.354 250.214 294.785L251.93 296.083C250.757 297.726 249.407 299.376 247.882 301.033C249.994 303.145 251.578 304.766 252.634 305.895L251.182 307.809C249.847 306.313 248.234 304.597 246.342 302.661C244.333 304.67 242.367 306.372 240.446 307.765L239.126 305.983Z" fill="#203C63"/>
<path d="M236.2 478.227V473.321H253.58V478.139H251.402V475.257H238.29V478.227H236.2ZM241.04 479.855L240.82 482.209H252.48C252.451 483.045 252.399 484.13 252.326 485.465C252.253 486.785 252.194 487.79 252.15 488.479C252.091 489.315 251.93 489.96 251.666 490.415C251.417 490.87 251.028 491.2 250.5 491.405C249.987 491.625 249.253 491.772 248.3 491.845L246.254 491.999L245.638 490.085L247.706 489.953C248.307 489.909 248.762 489.828 249.07 489.711C249.378 489.594 249.605 489.41 249.752 489.161C249.899 488.897 249.994 488.508 250.038 487.995C250.097 487.35 250.155 486.594 250.214 485.729C250.273 484.849 250.302 484.299 250.302 484.079H238.532L239.302 476.115L241.392 476.203L241.216 478.029H251.05V479.855H241.04ZM235.562 486.301H248.872V488.171H235.562V486.301ZM238.092 507.577V510.547H236.046V505.641H243.856C243.607 504.732 243.387 504.006 243.196 503.463L245.396 503.111C245.572 503.639 245.829 504.482 246.166 505.641H253.58V510.569H251.512V507.577H238.092ZM254.35 515.057V516.993H245.924V520.117C245.924 520.88 245.851 521.444 245.704 521.811C245.557 522.192 245.301 522.456 244.934 522.603C244.567 522.764 243.995 522.874 243.218 522.933L241.458 523.065L240.82 521.107L242.514 520.975C242.925 520.946 243.218 520.894 243.394 520.821C243.585 520.733 243.709 520.601 243.768 520.425C243.841 520.234 243.878 519.941 243.878 519.545V516.993H235.188V515.057H243.878V513.891L247.376 511.625H238.774V509.711H250.852V511.669L245.924 514.749V515.057H254.35ZM240.71 545.683C240.299 545.082 239.881 544.524 239.456 544.011V554.197H237.718V544.385C237.058 546.16 236.332 547.7 235.54 549.005L234.242 547.619C234.785 546.739 235.379 545.595 236.024 544.187C236.669 542.764 237.205 541.422 237.63 540.161H235.32V538.291H237.718V534.397L239.456 534.463V538.291H241.392V540.161H239.456V542.427L239.83 542.031C240.329 542.515 240.827 543.072 241.326 543.703L241.216 543.461C242.947 542.742 244.487 541.767 245.836 540.535H241.788V538.841H246.65V534.375L248.476 534.441V538.841H253.778V540.535H249.356C250.764 541.811 252.524 542.83 254.636 543.593L253.976 545.353C252.759 544.81 251.71 544.268 250.83 543.725C249.95 543.168 249.165 542.552 248.476 541.877V544.517H246.65V541.987C245.403 543.248 243.878 544.334 242.074 545.243L241.744 544.561L240.71 545.683ZM243.328 534.771C243.665 535.108 244.069 535.578 244.538 536.179C245.022 536.766 245.396 537.272 245.66 537.697L244.384 538.841C244.135 538.416 243.775 537.895 243.306 537.279C242.851 536.648 242.455 536.157 242.118 535.805L243.328 534.771ZM253.074 535.761C252.781 536.201 252.377 536.736 251.864 537.367C251.351 537.998 250.925 538.489 250.588 538.841L249.334 537.719C249.671 537.382 250.089 536.912 250.588 536.311C251.087 535.71 251.475 535.204 251.754 534.793L253.074 535.761ZM247.178 544.781C247.017 545.236 246.855 545.624 246.694 545.947H254.35V547.707H251.776C251.219 548.968 250.581 549.973 249.862 550.721C250.933 551.146 252.333 551.733 254.064 552.481L253.25 554.153C251.989 553.508 250.346 552.76 248.322 551.909C247.515 552.378 246.525 552.804 245.352 553.185C244.179 553.581 242.727 553.962 240.996 554.329L240.358 552.591C243.071 552.078 245.037 551.564 246.254 551.051L242.426 549.577C242.91 548.858 243.313 548.235 243.636 547.707H240.93V545.947H244.648C244.985 545.272 245.235 544.73 245.396 544.319L247.178 544.781ZM245.792 547.707C245.601 548.059 245.367 548.455 245.088 548.895C245.631 549.086 246.621 549.452 248.058 549.995C248.425 549.702 248.733 549.372 248.982 549.005C249.246 548.638 249.495 548.206 249.73 547.707H245.792Z" fill="#203C63"/>
<path d="M627.6 513.425V509.857H640.24V513.361H638.656V511.265H629.12V513.425H627.6ZM631.12 514.609L630.96 516.321H639.44C639.419 516.929 639.381 517.718 639.328 518.689C639.275 519.649 639.232 520.38 639.2 520.881C639.157 521.489 639.04 521.958 638.848 522.289C638.667 522.62 638.384 522.86 638 523.009C637.627 523.169 637.093 523.276 636.4 523.329L634.912 523.441L634.464 522.049L635.968 521.953C636.405 521.921 636.736 521.862 636.96 521.777C637.184 521.692 637.349 521.558 637.456 521.377C637.563 521.185 637.632 520.902 637.664 520.529C637.707 520.06 637.749 519.51 637.792 518.881C637.835 518.241 637.856 517.841 637.856 517.681H629.296L629.856 511.889L631.376 511.953L631.248 513.281H638.4V514.609H631.12ZM627.136 519.297H636.816V520.657H627.136V519.297ZM628.976 534.225V536.385H627.488V532.817H633.168C632.987 532.156 632.827 531.628 632.688 531.233L634.288 530.977C634.416 531.361 634.603 531.974 634.848 532.817H640.24V536.401H638.736V534.225H628.976ZM640.8 539.665V541.073H634.672V543.345C634.672 543.9 634.619 544.31 634.512 544.577C634.405 544.854 634.219 545.046 633.952 545.153C633.685 545.27 633.269 545.35 632.704 545.393L631.424 545.489L630.96 544.065L632.192 543.969C632.491 543.948 632.704 543.91 632.832 543.857C632.971 543.793 633.061 543.697 633.104 543.569C633.157 543.43 633.184 543.217 633.184 542.929V541.073H626.864V539.665H633.184V538.817L635.728 537.169H629.472V535.777H638.256V537.201L634.672 539.441V539.665H640.8ZM630.88 561.393C630.581 560.956 630.277 560.55 629.968 560.177V567.585H628.704V560.449C628.224 561.74 627.696 562.86 627.12 563.809L626.176 562.801C626.571 562.161 627.003 561.329 627.472 560.305C627.941 559.27 628.331 558.294 628.64 557.377H626.96V556.017H628.704V553.185L629.968 553.233V556.017H631.376V557.377H629.968V559.025L630.24 558.737C630.603 559.089 630.965 559.494 631.328 559.953L631.248 559.777C632.507 559.254 633.627 558.545 634.608 557.649H631.664V556.417H635.2V553.169L636.528 553.217V556.417H640.384V557.649H637.168C638.192 558.577 639.472 559.318 641.008 559.873L640.528 561.153C639.643 560.758 638.88 560.364 638.24 559.969C637.6 559.564 637.029 559.116 636.528 558.625V560.545H635.2V558.705C634.293 559.622 633.184 560.412 631.872 561.073L631.632 560.577L630.88 561.393ZM632.784 553.457C633.029 553.702 633.323 554.044 633.664 554.481C634.016 554.908 634.288 555.276 634.48 555.585L633.552 556.417C633.371 556.108 633.109 555.729 632.768 555.281C632.437 554.822 632.149 554.465 631.904 554.209L632.784 553.457ZM639.872 554.177C639.659 554.497 639.365 554.886 638.992 555.345C638.619 555.804 638.309 556.161 638.064 556.417L637.152 555.601C637.397 555.356 637.701 555.014 638.064 554.577C638.427 554.14 638.709 553.772 638.912 553.473L639.872 554.177ZM635.584 560.737C635.467 561.068 635.349 561.35 635.232 561.585H640.8V562.865H638.928C638.523 563.782 638.059 564.513 637.536 565.057C638.315 565.366 639.333 565.793 640.592 566.337L640 567.553C639.083 567.084 637.888 566.54 636.416 565.921C635.829 566.262 635.109 566.572 634.256 566.849C633.403 567.137 632.347 567.414 631.088 567.681L630.624 566.417C632.597 566.044 634.027 565.67 634.912 565.297L632.128 564.225C632.48 563.702 632.773 563.249 633.008 562.865H631.04V561.585H633.744C633.989 561.094 634.171 560.7 634.288 560.401L635.584 560.737ZM634.576 562.865C634.437 563.121 634.267 563.409 634.064 563.729C634.459 563.868 635.179 564.134 636.224 564.529C636.491 564.316 636.715 564.076 636.896 563.809C637.088 563.542 637.269 563.228 637.44 562.865H634.576Z" fill="#203C63"/>
<path d="M667.128 433.737H661.928V438.489C661.928 438.98 661.859 439.353 661.72 439.609C661.581 439.865 661.357 440.052 661.048 440.169C660.749 440.286 660.312 440.366 659.736 440.409L658.744 440.489L658.28 439.001L659.304 438.905C659.613 438.884 659.837 438.846 659.976 438.793C660.125 438.74 660.221 438.66 660.264 438.553C660.317 438.436 660.344 438.26 660.344 438.025V433.737H654.936L655.592 427.257C657.352 427.204 659.187 427.097 661.096 426.937C663.016 426.766 664.664 426.564 666.04 426.329L666.344 427.817C665.075 428.009 663.592 428.185 661.896 428.345C660.2 428.505 658.573 428.628 657.016 428.713L656.616 432.281H660.344V429.113L661.928 429.161V432.281H667.128V433.737ZM658.472 435.257C658.045 435.94 657.48 436.713 656.776 437.577C656.083 438.441 655.389 439.225 654.696 439.929L653.544 438.937C654.248 438.254 654.931 437.502 655.592 436.681C656.264 435.86 656.797 435.113 657.192 434.441L658.472 435.257ZM664.2 434.441C664.787 435.07 665.427 435.785 666.12 436.585C666.824 437.374 667.427 438.089 667.928 438.729L666.776 439.913C666.275 439.22 665.661 438.436 664.936 437.561C664.211 436.686 663.581 435.966 663.048 435.401L664.2 434.441ZM661.688 455.081C662.125 456.425 662.856 457.572 663.88 458.521C664.904 459.46 666.275 460.308 667.992 461.065L667.144 462.617C665.459 461.732 664.12 460.846 663.128 459.961C662.136 459.065 661.389 458.036 660.888 456.873C659.885 459.028 657.789 460.926 654.6 462.569L653.704 461.161C655.517 460.297 656.936 459.369 657.96 458.377C658.984 457.385 659.624 456.286 659.88 455.081H654.2V453.673H659.992V450.537H655.048V449.113H666.552V450.537H661.544V453.673H667.4V455.081H661.688ZM667.72 472.265H661.48C661.341 472.884 661.187 473.518 661.016 474.169H666.056V484.489H664.616V483.577H657.096V484.505H655.656V474.169H659.384C659.512 473.764 659.683 473.129 659.896 472.265H653.944V470.857H667.72V472.265ZM657.096 478.169H664.616V475.593H657.096V478.169ZM657.096 479.561V482.185H664.616V479.561H657.096ZM656.44 495.897C655.832 496.43 655.192 496.948 654.52 497.449L653.832 496.217C654.664 495.62 655.443 494.953 656.168 494.217C656.904 493.47 657.523 492.718 658.024 491.961L659.128 492.681C658.755 493.268 658.333 493.849 657.864 494.425V498.825H656.44V495.897ZM658.2 495.737C659.171 495.502 660.131 495.23 661.08 494.921V492.217L662.552 492.281V494.393C663.789 493.924 665.059 493.321 666.36 492.585L666.968 493.849C665.581 494.649 664.109 495.337 662.552 495.913V496.297C662.552 496.638 662.611 496.868 662.728 496.985C662.856 497.092 663.075 497.156 663.384 497.177C663.704 497.209 664.029 497.225 664.36 497.225C664.701 497.225 665.021 497.209 665.32 497.177C665.661 497.156 665.891 497.097 666.008 497.001C666.136 496.905 666.227 496.713 666.28 496.425C666.355 496.116 666.397 495.748 666.408 495.321L667.768 495.801C667.725 496.249 667.661 496.67 667.576 497.065C667.491 497.449 667.379 497.737 667.24 497.929C667.101 498.121 666.909 498.26 666.664 498.345C666.419 498.43 666.067 498.484 665.608 498.505C664.989 498.526 664.509 498.537 664.168 498.537C663.827 498.537 663.347 498.526 662.728 498.505C662.131 498.473 661.704 498.334 661.448 498.089C661.203 497.844 661.08 497.406 661.08 496.777V496.409C660.227 496.686 659.411 496.921 658.632 497.113L658.2 495.737ZM665.928 499.497V503.673H664.472V500.777H657.336V503.673H655.864V499.497H665.928ZM661.672 501.273C661.597 502.009 661.533 502.494 661.48 502.729C661.331 503.358 661.043 503.897 660.616 504.345C660.189 504.782 659.485 505.198 658.504 505.593C657.533 505.988 656.168 506.372 654.408 506.745L653.816 505.353C655.288 505.076 656.461 504.788 657.336 504.489C658.211 504.18 658.845 503.854 659.24 503.513C659.635 503.172 659.88 502.788 659.976 502.361C660.051 502.073 660.099 501.678 660.12 501.177L661.672 501.273ZM661.976 503.257C662.84 503.524 663.784 503.854 664.808 504.249C665.843 504.633 666.808 505.017 667.704 505.401L667.24 506.889C666.44 506.484 665.501 506.057 664.424 505.609C663.357 505.172 662.36 504.793 661.432 504.473L661.976 503.257Z" fill="#203C63"/>
<path d="M664.592 216.153L664.352 226.217C664.331 226.964 664.139 227.492 663.776 227.801C663.413 228.121 662.811 228.318 661.968 228.393L660.976 228.473L660.512 227.065L661.616 226.985C662.021 226.953 662.315 226.9 662.496 226.825C662.688 226.75 662.821 226.628 662.896 226.457C662.971 226.276 663.013 225.988 663.024 225.593C663.056 224.644 663.088 223.3 663.12 221.561C663.163 219.822 663.189 218.473 663.2 217.513H658.88C658.485 218.334 658.117 219.038 657.776 219.625L656.688 218.953V224.249H655.456V216.425H652.816V224.313H651.568V215.081H656.688V218.777C657.125 218.062 657.531 217.278 657.904 216.425C658.288 215.561 658.597 214.734 658.832 213.945L660.128 214.249C659.947 214.889 659.728 215.524 659.472 216.153H664.592ZM654.768 217.561V222.425C654.768 223.374 654.661 224.185 654.448 224.857C654.235 225.529 653.899 226.153 653.44 226.729C652.981 227.305 652.336 227.94 651.504 228.633L650.56 227.577C651.328 227.044 651.92 226.532 652.336 226.041C652.763 225.55 653.072 224.996 653.264 224.377C653.456 223.758 653.552 222.996 653.552 222.089V217.497L654.768 217.561ZM661.856 225.529C661.845 225.465 661.76 225.161 661.6 224.617C660.597 224.702 659.493 224.82 658.288 224.969L657.376 225.129L656.96 223.833C657.184 223.716 657.371 223.502 657.52 223.193C657.744 222.745 658.027 222.046 658.368 221.097C658.709 220.137 658.992 219.268 659.216 218.489L660.464 218.857C660.229 219.668 659.936 220.553 659.584 221.513C659.232 222.473 658.933 223.182 658.688 223.641L661.184 223.401C660.811 222.324 660.453 221.438 660.112 220.745L661.232 220.265C661.509 220.873 661.824 221.646 662.176 222.585C662.528 223.513 662.789 224.276 662.96 224.873L661.856 225.529ZM655.056 224.649C655.941 225.513 656.683 226.334 657.28 227.113L656.416 228.217C655.797 227.3 655.067 226.404 654.224 225.529L655.056 224.649ZM664.368 238.489L664.256 241.241C664.117 245.156 664.027 247.369 663.984 247.881C663.952 248.404 663.845 248.809 663.664 249.097C663.483 249.396 663.221 249.614 662.88 249.753C662.539 249.892 662.08 249.982 661.504 250.025L660.256 250.121L659.808 248.761L661.104 248.665C661.509 248.633 661.813 248.58 662.016 248.505C662.229 248.42 662.384 248.286 662.48 248.105C662.587 247.913 662.651 247.63 662.672 247.257C662.715 246.361 662.773 245.124 662.848 243.545C662.933 241.956 662.992 240.724 663.024 239.849H662.32C662.085 241.438 661.787 242.798 661.424 243.929C661.072 245.06 660.555 246.137 659.872 247.161C659.2 248.185 658.277 249.22 657.104 250.265L656.16 249.209C657.248 248.27 658.112 247.332 658.752 246.393C659.392 245.454 659.883 244.478 660.224 243.465C660.576 242.452 660.875 241.246 661.12 239.849H660.048C659.739 241.374 659.259 242.734 658.608 243.929C657.957 245.113 657.045 246.276 655.872 247.417L654.976 246.345C656.021 245.428 656.848 244.457 657.456 243.433C658.075 242.409 658.533 241.214 658.832 239.849H657.776C657.307 240.83 656.821 241.689 656.32 242.425L655.216 241.593C655.749 240.889 656.251 240.02 656.72 238.985C657.2 237.95 657.579 236.926 657.856 235.913L659.168 236.297C658.912 237.108 658.651 237.838 658.384 238.489H664.368ZM656.16 244.249C655.605 244.494 655.067 244.724 654.544 244.937V250.473H653.248V245.465C652.373 245.828 651.573 246.148 650.848 246.425L650.464 245.017C651.061 244.825 651.989 244.484 653.248 243.993V240.537H652.256C652.096 241.7 651.936 242.665 651.776 243.433L650.528 243.209C650.72 242.398 650.891 241.465 651.04 240.409C651.189 239.353 651.291 238.34 651.344 237.369L652.576 237.481C652.555 237.801 652.501 238.366 652.416 239.177H653.248V236.041L654.544 236.105V239.177H655.888V240.537H654.544V243.481L655.968 242.889L656.064 243.561L656.16 244.249ZM658.624 260.969H663.92V267.961H658.624V272.537H657.088V267.961H651.744V260.969H657.088V258.025L658.624 258.089V260.969ZM653.28 262.441V266.521H657.088V262.441H653.28ZM658.624 266.521H662.4V262.441H658.624V266.521ZM657.072 280.089C658.171 281.433 659.307 283.028 660.48 284.873L659.232 285.897C658.283 284.212 657.184 282.558 655.936 280.937L657.072 280.089ZM654.576 283.449L656.144 283.529V291.593C656.144 291.956 656.208 292.206 656.336 292.345C656.464 292.473 656.725 292.558 657.12 292.601C657.408 292.633 657.733 292.649 658.096 292.649C658.523 292.649 658.901 292.633 659.232 292.601C659.541 292.569 659.771 292.516 659.92 292.441C660.08 292.366 660.187 292.265 660.24 292.137C660.304 292.009 660.357 291.817 660.4 291.561C660.485 291.06 660.549 290.484 660.592 289.833L662.096 290.345C662.043 290.974 661.963 291.577 661.856 292.153C661.76 292.644 661.632 293.017 661.472 293.273C661.312 293.54 661.083 293.732 660.784 293.849C660.496 293.977 660.091 294.057 659.568 294.089C659.184 294.121 658.72 294.137 658.176 294.137C657.643 294.137 657.152 294.121 656.704 294.089C656.171 294.057 655.749 293.966 655.44 293.817C655.141 293.678 654.923 293.449 654.784 293.129C654.645 292.82 654.576 292.393 654.576 291.849V283.449ZM662.576 284.409C663.013 285.23 663.461 286.169 663.92 287.225C664.389 288.27 664.816 289.3 665.2 290.313L663.824 291.049C663.44 289.961 663.019 288.884 662.56 287.817C662.112 286.75 661.68 285.817 661.264 285.017L662.576 284.409ZM650.528 290.953C650.848 290.11 651.168 289.113 651.488 287.961C651.819 286.809 652.091 285.726 652.304 284.713L653.76 285.065C653.536 286.121 653.269 287.225 652.96 288.377C652.651 289.518 652.331 290.532 652 291.417L650.528 290.953Z" fill="#203C63"/>
<path d="M640.584 169.297H635.896V173.489C635.896 173.99 635.837 174.364 635.72 174.609C635.603 174.865 635.405 175.046 635.128 175.153C634.861 175.26 634.456 175.334 633.912 175.377L632.904 175.473L632.456 174.033L633.512 173.953C633.8 173.932 634.008 173.9 634.136 173.857C634.264 173.804 634.349 173.724 634.392 173.617C634.435 173.51 634.456 173.334 634.456 173.089V169.297H629.32V167.857C629.971 166.982 630.675 165.841 631.432 164.433H628.216V163.041H632.168C632.573 162.252 632.915 161.516 633.192 160.833L634.648 161.425C634.467 161.862 634.221 162.401 633.912 163.041H641.336V164.433H633.192C632.819 165.148 632.44 165.825 632.056 166.465C631.672 167.094 631.357 167.574 631.112 167.905H634.456V165.185L635.896 165.249V167.905H640.584V169.297ZM632.568 170.929C632.077 171.612 631.464 172.332 630.728 173.089C629.992 173.836 629.256 174.508 628.52 175.105L627.512 173.905C628.237 173.35 628.952 172.721 629.656 172.017C630.36 171.313 630.941 170.625 631.4 169.953L632.568 170.929ZM638.104 169.985C638.68 170.476 639.315 171.062 640.008 171.745C640.712 172.428 641.363 173.094 641.96 173.745L640.968 174.993C640.339 174.268 639.672 173.548 638.968 172.833C638.275 172.118 637.651 171.526 637.096 171.057L638.104 169.985ZM630.536 185.377V195.537H641.784V196.945H629V183.921H641.464V185.377H630.536ZM630.728 193.793C632.083 192.854 633.469 191.681 634.888 190.273C633.331 188.716 632.163 187.59 631.384 186.897L632.424 185.793C633.384 186.636 634.573 187.75 635.992 189.137C637.08 187.953 638.013 186.79 638.792 185.649L640.04 186.593C639.187 187.788 638.205 188.988 637.096 190.193C638.632 191.729 639.784 192.908 640.552 193.729L639.496 195.121C638.525 194.033 637.352 192.785 635.976 191.377C634.515 192.838 633.085 194.076 631.688 195.089L630.728 193.793Z" fill="#203C63"/>
<path d="M904.674 344.815H909.558V349.259C909.558 350.095 909.389 350.689 909.052 351.041C908.715 351.408 908.084 351.628 907.16 351.701L906.346 351.767L905.752 350.007L906.764 349.941C907.189 349.912 907.461 349.824 907.578 349.677C907.695 349.516 907.754 349.193 907.754 348.709V346.597H904.674V353.131H902.914V346.597H900.12V351.525H898.338V344.815H902.914V342.967H898.844V335.135H902.1C902.423 334.108 902.621 333.426 902.694 333.089L904.674 333.463L904.146 335.135H908.876V342.967H904.674V344.815ZM895.72 333.771C895.515 334.358 895.221 335.054 894.84 335.861L897.92 335.905V337.665H893.938C893.542 338.398 893.124 339.102 892.684 339.777H897.458V341.581H895.192V344.067H897.7V345.849H895.192V349.413L897.458 347.807L897.876 349.809C897.583 349.97 897.077 350.286 896.358 350.755C895.639 351.224 895.023 351.642 894.51 352.009L894.136 352.295L893.674 352.669L892.728 350.997C892.977 350.865 893.139 350.718 893.212 350.557C893.285 350.381 893.322 350.146 893.322 349.853V345.849H891.166V344.067H893.322V341.581H892.332V340.305L891.87 340.943L890.374 339.601C891.137 338.589 891.819 337.526 892.42 336.411C893.021 335.282 893.461 334.196 893.74 333.155L895.72 333.771ZM907.028 338.259V336.763H900.692V338.259H907.028ZM907.028 339.865H900.692V341.383H907.028V339.865ZM932.49 348.335L932.424 348.819C932.292 349.567 932.175 350.168 932.072 350.623C931.896 351.503 931.632 352.112 931.28 352.449C930.928 352.801 930.518 352.977 930.048 352.977C929.594 352.977 929.168 352.808 928.772 352.471C928.391 352.148 928.01 351.569 927.628 350.733C927.467 350.381 927.306 349.97 927.144 349.501C926.25 350.733 925.201 351.914 923.998 353.043L922.678 351.701C924.248 350.278 925.516 348.819 926.484 347.323C925.883 344.947 925.443 342.014 925.164 338.523H920.984V341.361H924.592C924.563 342.241 924.526 343.407 924.482 344.859C924.438 346.296 924.394 347.462 924.35 348.357C924.336 348.958 924.255 349.428 924.108 349.765C923.962 350.088 923.72 350.33 923.382 350.491C923.06 350.638 922.59 350.74 921.974 350.799L921.182 350.887L920.588 348.929L921.49 348.841C921.842 348.797 922.092 348.746 922.238 348.687C922.385 348.614 922.488 348.496 922.546 348.335C922.605 348.159 922.656 347.858 922.7 347.433C922.73 347.154 922.759 346.531 922.788 345.563C922.832 344.58 922.854 343.818 922.854 343.275H920.984C920.97 344.771 920.867 346.054 920.676 347.125C920.5 348.196 920.207 349.208 919.796 350.161C919.4 351.1 918.836 352.148 918.102 353.307L916.32 352.427C917.112 351.312 917.699 350.308 918.08 349.413C918.476 348.504 918.748 347.514 918.894 346.443C919.041 345.358 919.114 343.942 919.114 342.197V336.631H925.032L924.79 333.221L926.66 333.309C926.66 333.969 926.712 335.076 926.814 336.631H929.476C928.948 335.898 928.259 335.106 927.408 334.255L928.618 333.089C928.941 333.368 929.308 333.734 929.718 334.189C930.144 334.629 930.503 335.032 930.796 335.399L929.63 336.631H931.742V338.523H926.946C927.137 341.06 927.401 343.231 927.738 345.035C928.413 343.642 929.007 341.97 929.52 340.019L931.192 340.503C930.371 343.378 929.425 345.754 928.354 347.631C928.574 348.394 928.816 349.076 929.08 349.677C929.403 350.484 929.718 350.887 930.026 350.887C930.158 350.887 930.268 350.777 930.356 350.557C930.459 350.337 930.562 349.978 930.664 349.479C930.782 348.98 930.884 348.386 930.972 347.697L932.49 348.335ZM918.212 347.257L918.3 348.357C915.851 349.222 913.959 349.868 912.624 350.293L912.25 348.269C913.116 348.049 913.959 347.814 914.78 347.565V340.569H912.844V338.655H914.78V333.485L916.65 333.573V338.655H918.432V340.569H916.65V346.927L918.146 346.355L918.212 347.257ZM953.619 335.927V337.841H938.966V341.383C938.966 343.246 938.871 344.808 938.681 346.069C938.49 347.33 938.182 348.489 937.757 349.545C937.331 350.586 936.723 351.782 935.931 353.131L934.038 352.119C934.831 350.887 935.425 349.794 935.821 348.841C936.231 347.873 936.517 346.839 936.679 345.739C936.855 344.624 936.943 343.238 936.943 341.581V335.927H944.709C944.371 334.754 944.115 333.954 943.939 333.529L945.963 333.177C946.285 334.013 946.586 334.93 946.865 335.927H953.619ZM966.299 340.481H974.461C974.402 341.566 974.307 343.224 974.175 345.453C974.057 347.682 973.977 349.098 973.933 349.699C973.874 350.447 973.742 351.012 973.537 351.393C973.331 351.774 973.001 352.046 972.547 352.207C972.107 352.368 971.432 352.486 970.523 352.559L969.291 352.669L968.675 350.711L970.105 350.601C970.647 350.557 971.036 350.491 971.271 350.403C971.52 350.315 971.696 350.168 971.799 349.963C971.916 349.758 971.997 349.435 972.041 348.995C972.129 348.188 972.283 345.966 972.503 342.329H970.567C970.229 344.852 969.635 346.934 968.785 348.577C967.934 350.205 966.643 351.752 964.913 353.219L963.329 351.987C964.443 351.063 965.345 350.154 966.035 349.259C966.724 348.35 967.281 347.352 967.707 346.267C968.132 345.182 968.491 343.869 968.785 342.329H966.871C966.46 344.089 965.815 345.68 964.935 347.103C964.055 348.511 962.874 349.816 961.393 351.019L959.919 349.809C960.667 349.222 961.334 348.606 961.921 347.961C960.41 348.518 958.489 349.178 956.157 349.941L955.739 347.983C956.736 347.704 957.697 347.418 958.621 347.125V340.261H956.333V338.325H958.621V333.177L960.579 333.265V338.325H962.735V340.261H960.579V346.465C961.429 346.172 962.009 345.959 962.317 345.827L962.405 346.751L962.471 347.345C963.101 346.582 963.622 345.798 964.033 344.991C964.443 344.17 964.781 343.282 965.045 342.329H962.801V340.657L969.731 336.301H963.417V334.365H973.141V336.345L966.299 340.481Z" fill="#203C63"/>
<path d="M410.364 679.405L409.792 677.623C409.983 677.55 410.137 677.462 410.254 677.359C410.386 677.242 410.518 677.095 410.65 676.919C411.002 676.435 411.471 675.614 412.058 674.455C412.659 673.282 413.151 672.189 413.532 671.177L415.16 671.859C414.749 672.827 414.243 673.883 413.642 675.027C413.055 676.156 412.593 676.948 412.256 677.403C412.52 677.374 413.29 677.322 414.566 677.249C415.197 676.09 415.644 675.218 415.908 674.631L417.382 675.533C416.883 676.604 416.201 677.88 415.336 679.361C414.471 680.828 413.781 681.935 413.268 682.683L416.612 682.111L416.634 683.981C416.077 684.069 415.343 684.194 414.434 684.355C413.539 684.502 412.747 684.634 412.058 684.751C411.691 684.795 411.303 684.876 410.892 684.993L410.342 683.123C410.797 682.962 411.149 682.69 411.398 682.309C412.014 681.458 412.711 680.388 413.488 679.097L411.376 679.251C410.965 679.28 410.628 679.332 410.364 679.405ZM417.646 676.281L417.36 674.455L419.384 674.147C419.135 673.164 418.915 672.248 418.724 671.397L420.55 671.221C420.77 672.292 420.975 673.172 421.166 673.861L428.14 672.783L428.382 674.565L421.716 675.621C421.907 676.149 422.178 676.75 422.53 677.425L422.706 677.755C424.349 676.992 425.72 676.149 426.82 675.225L427.722 676.567C426.549 677.564 425.221 678.437 423.74 679.185C424.444 679.889 425.17 680.241 425.918 680.241C426.343 680.241 426.637 680.168 426.798 680.021C426.974 679.874 427.121 679.632 427.238 679.295C427.326 679.06 427.399 678.811 427.458 678.547C427.531 678.283 427.59 678.085 427.634 677.953L429.064 678.855C428.873 679.486 428.661 680.036 428.426 680.505C428.177 681.077 427.861 681.48 427.48 681.715C427.113 681.95 426.571 682.067 425.852 682.067C425.207 682.067 424.547 681.891 423.872 681.539C423.212 681.172 422.596 680.652 422.024 679.977C420.543 680.608 418.944 681.15 417.228 681.605L416.634 679.823C418.174 679.471 419.641 679.016 421.034 678.459L420.902 678.217C420.506 677.425 420.183 676.655 419.934 675.907L417.646 676.281ZM429.284 686.885C429.269 687.428 429.189 688.051 429.042 688.755C428.939 689.239 428.815 689.606 428.668 689.855C428.521 690.119 428.309 690.31 428.03 690.427C427.766 690.544 427.377 690.618 426.864 690.647C426.453 690.676 426.153 690.691 425.962 690.691C425.771 690.691 425.471 690.676 425.06 690.647C424.312 690.618 423.784 690.434 423.476 690.097C423.183 689.76 423.036 689.188 423.036 688.381V684.465H420.924L420.902 684.619C420.799 685.91 420.601 686.936 420.308 687.699C420.015 688.462 419.567 689.114 418.966 689.657C418.379 690.2 417.521 690.764 416.392 691.351L415.314 689.767C416.385 689.312 417.191 688.858 417.734 688.403C418.277 687.948 418.651 687.428 418.856 686.841C419.076 686.254 419.193 685.492 419.208 684.553V684.465H417.294V682.661H428.712V684.465H424.774V687.831C424.774 688.154 424.796 688.388 424.84 688.535C424.899 688.682 424.979 688.777 425.082 688.821C425.199 688.865 425.383 688.894 425.632 688.909C425.94 688.924 426.248 688.924 426.556 688.909C426.82 688.894 427.003 688.865 427.106 688.821C427.209 688.777 427.282 688.704 427.326 688.601C427.37 688.484 427.421 688.271 427.48 687.963C427.583 687.376 427.634 686.804 427.634 686.247L429.284 686.885ZM417.206 687.105L417.25 688.029C416.487 688.19 415.336 688.425 413.796 688.733C412.256 689.026 410.936 689.268 409.836 689.459L409.572 687.721C410.393 687.589 411.633 687.354 413.29 687.017C414.962 686.68 416.26 686.401 417.184 686.181L417.206 687.105ZM495.49 686.335L495.424 686.819C495.292 687.567 495.175 688.168 495.072 688.623C494.896 689.503 494.632 690.112 494.28 690.449C493.928 690.801 493.518 690.977 493.048 690.977C492.594 690.977 492.168 690.808 491.772 690.471C491.391 690.148 491.01 689.569 490.628 688.733C490.467 688.381 490.306 687.97 490.144 687.501C489.25 688.733 488.201 689.914 486.998 691.043L485.678 689.701C487.248 688.278 488.516 686.819 489.484 685.323C488.883 682.947 488.443 680.014 488.164 676.523H483.984V679.361H487.592C487.563 680.241 487.526 681.407 487.482 682.859C487.438 684.296 487.394 685.462 487.35 686.357C487.336 686.958 487.255 687.428 487.108 687.765C486.962 688.088 486.72 688.33 486.382 688.491C486.06 688.638 485.59 688.74 484.974 688.799L484.182 688.887L483.588 686.929L484.49 686.841C484.842 686.797 485.092 686.746 485.238 686.687C485.385 686.614 485.488 686.496 485.546 686.335C485.605 686.159 485.656 685.858 485.7 685.433C485.73 685.154 485.759 684.531 485.788 683.563C485.832 682.58 485.854 681.818 485.854 681.275H483.984C483.97 682.771 483.867 684.054 483.676 685.125C483.5 686.196 483.207 687.208 482.796 688.161C482.4 689.1 481.836 690.148 481.102 691.307L479.32 690.427C480.112 689.312 480.699 688.308 481.08 687.413C481.476 686.504 481.748 685.514 481.894 684.443C482.041 683.358 482.114 681.942 482.114 680.197V674.631H488.032L487.79 671.221L489.66 671.309C489.66 671.969 489.712 673.076 489.814 674.631H492.476C491.948 673.898 491.259 673.106 490.408 672.255L491.618 671.089C491.941 671.368 492.308 671.734 492.718 672.189C493.144 672.629 493.503 673.032 493.796 673.399L492.63 674.631H494.742V676.523H489.946C490.137 679.06 490.401 681.231 490.738 683.035C491.413 681.642 492.007 679.97 492.52 678.019L494.192 678.503C493.371 681.378 492.425 683.754 491.354 685.631C491.574 686.394 491.816 687.076 492.08 687.677C492.403 688.484 492.718 688.887 493.026 688.887C493.158 688.887 493.268 688.777 493.356 688.557C493.459 688.337 493.562 687.978 493.664 687.479C493.782 686.98 493.884 686.386 493.972 685.697L495.49 686.335ZM481.212 685.257L481.3 686.357C478.851 687.222 476.959 687.868 475.624 688.293L475.25 686.269C476.116 686.049 476.959 685.814 477.78 685.565V678.569H475.844V676.655H477.78V671.485L479.65 671.573V676.655H481.432V678.569H479.65V684.927L481.146 684.355L481.212 685.257ZM560.707 673.069V674.675H541.545V673.069H550.191C550.015 672.453 549.846 671.918 549.685 671.463L551.665 671.133C551.738 671.353 551.951 671.998 552.303 673.069H560.707ZM544.713 680.285V675.995H557.539V680.285H544.713ZM546.671 678.855H555.537V677.403H546.671V678.855ZM542.887 691.065V681.561H559.365V688.447C559.365 689.078 559.291 689.547 559.145 689.855C559.013 690.178 558.771 690.412 558.419 690.559C558.067 690.72 557.546 690.838 556.857 690.911L555.515 691.065L554.921 689.283L556.153 689.151C556.534 689.107 556.805 689.056 556.967 688.997C557.128 688.938 557.238 688.843 557.297 688.711C557.355 688.564 557.385 688.337 557.385 688.029V683.079H544.845V691.065H542.887ZM546.869 684.311H555.361V688.799H546.869V684.311ZM548.805 687.303H553.469V685.829H548.805V687.303ZM612.393 685.829C613.39 685.345 614.329 684.78 615.209 684.135C616.103 683.475 616.859 682.786 617.475 682.067H613.493V676.567H618.113V675.027H612.767V673.245H618.113V671.331L620.071 671.397V673.245H625.549V675.027H620.071V676.567H624.801V682.067H620.071V688.315H618.113V683.915C616.969 685.22 615.443 686.43 613.537 687.545L612.393 685.829ZM610.391 677.095C610.156 676.523 609.76 675.79 609.203 674.895C608.66 674 608.183 673.304 607.773 672.805L609.335 671.749C609.716 672.218 610.178 672.871 610.721 673.707C611.263 674.528 611.696 675.24 612.019 675.841L610.391 677.095ZM618.113 678.195H615.341V680.439H618.113V678.195ZM622.975 680.439V678.195H620.071V680.439H622.975ZM619.939 688.887C622.227 688.887 624.456 688.821 626.627 688.689L626.143 690.603C623.913 690.72 621.728 690.779 619.587 690.779L617.541 690.757C616.294 690.728 615.289 690.64 614.527 690.493C613.779 690.361 613.097 690.112 612.481 689.745C611.879 689.393 611.271 688.858 610.655 688.139L609.951 688.931C609.819 689.078 609.555 689.371 609.159 689.811C608.777 690.251 608.389 690.654 607.993 691.021L606.739 689.393L609.687 686.467V680.725H607.333V678.767H611.623V686.445C612.136 687.09 612.657 687.582 613.185 687.919C613.713 688.256 614.314 688.491 614.989 688.623C615.663 688.755 616.543 688.836 617.629 688.865C618.142 688.88 618.912 688.887 619.939 688.887ZM621.237 682.507C621.911 682.947 622.681 683.482 623.547 684.113C624.412 684.729 625.138 685.286 625.725 685.785L624.779 687.501C624.177 686.944 623.407 686.298 622.469 685.565C621.53 684.832 620.767 684.274 620.181 683.893L621.237 682.507Z" fill="#253D5E"/>
<path d="M138.674 44.8151H143.558V49.2591C143.558 50.0951 143.389 50.6891 143.052 51.0411C142.715 51.4078 142.084 51.6278 141.16 51.7011L140.346 51.7671L139.752 50.0071L140.764 49.9411C141.189 49.9118 141.461 49.8238 141.578 49.6771C141.695 49.5158 141.754 49.1931 141.754 48.7091V46.5971H138.674V53.1311H136.914V46.5971H134.12V51.5251H132.338V44.8151H136.914V42.9671H132.844V35.1351H136.1C136.423 34.1085 136.621 33.4265 136.694 33.0891L138.674 33.4631L138.146 35.1351H142.876V42.9671H138.674V44.8151ZM129.72 33.7711C129.515 34.3578 129.221 35.0545 128.84 35.8611L131.92 35.9051V37.6651H127.938C127.542 38.3985 127.124 39.1025 126.684 39.7771H131.458V41.5811H129.192V44.0671H131.7V45.8491H129.192V49.4131L131.458 47.8071L131.876 49.8091C131.583 49.9705 131.077 50.2858 130.358 50.7551C129.639 51.2245 129.023 51.6425 128.51 52.0091L128.136 52.2951L127.674 52.6691L126.728 50.9971C126.977 50.8651 127.139 50.7185 127.212 50.5571C127.285 50.3811 127.322 50.1465 127.322 49.8531V45.8491H125.166V44.0671H127.322V41.5811H126.332V40.3051L125.87 40.9431L124.374 39.6011C125.137 38.5891 125.819 37.5258 126.42 36.4111C127.021 35.2818 127.461 34.1965 127.74 33.1551L129.72 33.7711ZM141.028 38.2591V36.7631H134.692V38.2591H141.028ZM141.028 39.8651H134.692V41.3831H141.028V39.8651ZM210.468 48.5331C210.424 49.6331 210.358 50.4251 210.27 50.9091C210.168 51.5838 209.948 52.0385 209.61 52.2731C209.273 52.5225 208.701 52.6618 207.894 52.6911C207.689 52.7058 207.366 52.7131 206.926 52.7131C206.486 52.7131 206.156 52.7058 205.936 52.6911C205.203 52.6618 204.675 52.4931 204.352 52.1851C204.044 51.8918 203.89 51.3565 203.89 50.5791V45.1891H201.954C201.94 45.3358 201.932 45.5411 201.932 45.8051C201.859 47.0518 201.668 48.0931 201.36 48.9291C201.067 49.7651 200.598 50.5205 199.952 51.1951C199.322 51.8698 198.42 52.5958 197.246 53.3731L195.948 51.7671C197.048 51.1658 197.87 50.6085 198.412 50.0951C198.955 49.5671 199.336 48.9805 199.556 48.3351C199.776 47.6898 199.93 46.8098 200.018 45.6951L200.04 45.1891H197.84V40.2171L196.872 41.2291C196.403 40.3051 195.882 39.3958 195.31 38.5011V53.0211H193.44V33.2871L195.31 33.3751V37.3571L196.036 36.7631C196.667 37.6138 197.268 38.5305 197.84 39.5131V37.5771H200.502C200.238 37.0785 199.908 36.5065 199.512 35.8611C199.131 35.2011 198.808 34.6731 198.544 34.2771L200.04 33.3531C200.319 33.7345 200.686 34.2845 201.14 35.0031C201.61 35.7071 201.991 36.3158 202.284 36.8291L201.338 37.5771H203.67C204.462 36.3305 205.254 34.9078 206.046 33.3091L207.806 34.1451C207.249 35.1865 206.604 36.3305 205.87 37.5771H208.488V45.1891H205.804V49.9411C205.804 50.3371 205.856 50.5938 205.958 50.7111C206.076 50.8138 206.325 50.8798 206.706 50.9091C206.985 50.9385 207.271 50.9385 207.564 50.9091C207.858 50.8798 208.063 50.8431 208.18 50.7991C208.312 50.7405 208.4 50.6598 208.444 50.5571C208.488 50.4398 208.532 50.2418 208.576 49.9631C208.635 49.6111 208.679 48.9438 208.708 47.9611L210.468 48.5331ZM190.184 44.6831C190.404 43.6125 190.639 42.3071 190.888 40.7671C191.138 39.2125 191.314 37.8998 191.416 36.8291L193.044 37.0271C192.942 38.1565 192.773 39.5058 192.538 41.0751C192.304 42.6298 192.076 43.9278 191.856 44.9691L190.184 44.6831ZM206.574 39.4471H199.754V43.3411H206.574V39.4471ZM275.509 34.2111V36.1031H269.261V38.9631H274.255V52.9771H272.319V51.6131H259.845V52.9551H257.865V38.9631H262.683V36.1031H256.699V34.2111H275.509ZM264.619 38.9631H267.281V36.1031H264.619V38.9631ZM259.845 40.8991V46.5751C260.695 46.0178 261.319 45.4971 261.715 45.0131C262.111 44.5145 262.367 43.9718 262.485 43.3851C262.602 42.7985 262.668 41.9698 262.683 40.8991H259.845ZM259.845 49.7211H272.319V46.8611H270.075C269.048 46.8611 268.322 46.6631 267.897 46.2671C267.486 45.8565 267.281 45.1525 267.281 44.1551V40.8991H264.619C264.604 42.1898 264.494 43.2458 264.289 44.0671C264.098 44.8738 263.739 45.5998 263.211 46.2451C262.683 46.8758 261.913 47.4991 260.901 48.1151L259.845 46.8831V49.7211ZM272.319 40.8991H269.261V43.4951C269.261 44.0818 269.356 44.4705 269.547 44.6611C269.737 44.8371 270.133 44.9251 270.735 44.9251H272.319V40.8991ZM341.407 42.8571L340.681 44.6831C338.539 43.9351 336.772 43.0771 335.379 42.1091C334.073 43.0771 332.394 43.9571 330.341 44.7491L329.461 42.9671C331.206 42.3511 332.68 41.6545 333.883 40.8771C333.164 40.1731 332.497 39.3518 331.881 38.4131C331.543 38.8385 331.089 39.3371 330.517 39.9091L329.439 38.4131C330.216 37.6065 330.942 36.7118 331.617 35.7291C332.291 34.7318 332.812 33.7638 333.179 32.8251L334.983 33.3091C334.792 33.8078 334.543 34.3431 334.235 34.9151H339.889V36.6751C339.067 38.3325 338.041 39.7478 336.809 40.9211C338.011 41.6838 339.544 42.3291 341.407 42.8571ZM330.055 50.6231C326.725 51.1658 323.975 51.5838 321.805 51.8771L321.585 50.0071L322.751 49.8751V42.4611L324.467 42.5271V49.6331L326.007 49.4131V41.0091H323.059V34.1671H329.417V41.0091H327.767V43.9791H329.901V45.7831H327.767V49.1271L330.011 48.7311L330.055 50.6231ZM327.723 35.9491H324.753V39.2271H327.723V35.9491ZM335.335 39.8211C336.361 38.9265 337.227 37.8705 337.931 36.6531H333.223L333.025 36.9391C333.67 38.0538 334.44 39.0145 335.335 39.8211ZM332.673 52.8671H330.847V44.8151H339.361V52.8671H337.535V51.8111H332.673V52.8671ZM337.535 50.0951V46.5971H332.673V50.0951H337.535Z" fill="#253D5E"/>
<path d="M64.7586 232.217L64.6318 234.017L46.834 232.763L46.9608 230.963L52.2277 231.334C51.6061 230.35 50.9055 229.337 50.126 228.297L51.8273 227.314C52.1129 227.643 52.5293 228.202 53.0766 228.99C53.6238 229.779 54.0293 230.388 54.2931 230.818L53.4128 231.418L57.2532 231.689C57.7 231.191 58.2292 230.566 58.8408 229.815C59.4524 229.065 59.9774 228.396 60.4157 227.809L62.1237 228.922C61.5832 229.707 60.7936 230.688 59.755 231.865L64.7586 232.217ZM61.9157 245.647L64.3736 245.82L64.2499 247.576L45.2889 246.24L45.4126 244.484L47.9144 244.66L48.3397 238.625C47.5187 239.008 47.0095 239.245 46.8121 239.334L45.9498 237.486C47.1604 236.998 48.454 236.376 49.8305 235.621C51.2081 234.85 52.302 234.141 53.1123 233.492L54.2784 235.096C52.9596 236.076 51.3001 237.091 49.3 238.141L61.9187 239.031C60.0667 237.562 58.3664 236.34 56.8179 235.363L58.0092 233.793C59.2587 234.631 60.4984 235.505 61.7281 236.415C62.9735 237.311 63.9774 238.088 64.7398 238.744L63.6694 240.477C62.9342 239.852 62.497 239.483 62.358 239.37L61.9157 245.647ZM52.2895 240.161L50.1169 240.008L49.7798 244.792L51.9524 244.945L52.2895 240.161ZM53.7739 245.073L56.0343 245.232L56.3714 240.448L54.111 240.289L53.7739 245.073ZM57.8777 245.362L60.0723 245.517L60.4094 240.733L58.2148 240.578L57.8777 245.362ZM55.2281 328.353L57.1766 328.557L55.822 347.781L53.8689 347.643L54.4596 339.26L52.8677 339.942C52.6359 339.058 52.3251 338.044 51.9353 336.899C51.5455 335.754 51.1683 334.742 50.8038 333.864L49.8807 346.965L47.9275 346.828L48.4888 338.862L47.0067 339.551C46.4154 337.51 45.784 335.62 45.1125 333.882L45.046 334.826C44.8841 337.123 44.6362 338.972 44.3021 340.375C43.968 341.778 43.4707 342.992 42.8103 344.019C42.1498 345.046 41.202 346.082 39.9668 347.127L38.3416 345.777C39.5465 344.745 40.4526 343.78 41.0599 342.881C41.6818 341.984 42.1395 340.914 42.433 339.67C42.7411 338.427 42.9699 336.745 43.1194 334.624L43.6189 327.535L45.5454 327.737L45.1558 333.267L46.5643 332.683C46.9068 333.457 47.2614 334.372 47.6281 335.427C47.9949 336.482 48.2947 337.444 48.5275 338.313L49.2233 328.437L51.1703 328.663L50.8115 333.754L52.4238 333.096C52.7788 333.9 53.146 334.845 53.5253 335.93C53.9193 337.017 54.2394 338.002 54.4859 338.887L55.2281 328.353ZM42.4796 332.748C42.2245 333.656 41.8447 334.769 41.3402 336.086C40.8367 337.389 40.3623 338.487 39.917 339.382L38.2924 338.65C38.767 337.758 39.2378 336.71 39.7048 335.508C40.1718 334.306 40.5427 333.214 40.8177 332.234L42.4796 332.748ZM50.6289 445.899L49.1715 447.803C47.1962 446.414 45.5511 444.931 44.236 443.353C42.9366 441.762 41.9941 440.115 41.4083 438.412C40.5718 440.059 39.3862 441.548 37.8514 442.881C36.3176 444.199 34.4943 445.453 32.3815 446.642L31.0723 444.565C36.6394 441.928 39.7355 438.574 40.3606 434.501L32.5919 433.953L32.7357 431.912L40.5483 432.463L40.9055 427.394L43.0939 427.636L42.7429 432.618L50.6872 433.177L50.5434 435.218L42.5771 434.657L42.5039 435.071C42.8844 437.391 43.7494 439.408 45.0991 441.12C46.4498 442.818 48.293 444.411 50.6289 445.899ZM35.2961 532.672C35.5619 532.029 35.7506 531.542 35.8621 531.212L30.5074 530.834L30.6249 529.167L34.202 529.419C33.7602 528.594 33.3651 527.941 33.0167 527.461L34.5378 526.531C35.129 527.323 35.6245 528.115 36.0244 528.908L35.2334 529.491L37.8889 529.678C38.2542 529.293 38.6697 528.822 39.1352 528.267C39.6007 527.711 39.9629 527.266 40.2217 526.932L41.8685 527.974C41.6233 528.324 41.0941 528.949 40.2809 529.847L44.0995 530.116L43.9819 531.784L37.9469 531.359C37.653 532.191 37.479 532.678 37.4248 532.822L42.2748 533.163L41.5465 543.5L30.9029 542.75L31.6312 532.413L35.2961 532.672ZM28.2753 532.464C28.024 531.858 27.6298 531.088 27.0928 530.153C26.5569 529.203 26.0938 528.472 25.7035 527.96L27.3436 526.906C27.7077 527.373 28.1525 528.051 28.6779 528.941C29.218 529.832 29.6492 530.598 29.9717 531.238L28.2753 532.464ZM33.4195 535.517L40.069 535.985L40.171 534.537L33.5215 534.068L33.4195 535.517ZM36.6541 544.699C39.1266 544.873 41.4345 544.984 43.5778 545.032L43.0717 546.893C40.9285 546.845 38.6425 546.736 36.2139 546.564C34.9118 546.473 33.9394 546.397 33.2967 546.337C32.2746 546.235 31.4463 546.096 30.8119 545.919C30.1774 545.742 29.6092 545.46 29.1072 545.071C28.6053 544.683 28.1157 544.119 27.6385 543.38L26.6691 544.304C25.9112 545.045 25.313 545.605 24.8745 545.986L23.7411 544.23L26.7573 541.487L27.1547 535.847L24.8285 535.683L24.9723 533.642L29.1859 533.939L28.6478 541.576C29.0392 542.28 29.4567 542.824 29.9001 543.208C30.3582 543.594 30.8747 543.88 31.4496 544.067C32.0402 544.241 32.7953 544.375 33.7149 544.47C34.3576 544.53 35.3374 544.606 36.6541 544.699ZM39.9638 537.478L33.3143 537.009L33.2138 538.436L39.8633 538.904L39.9638 537.478ZM33.1087 539.928L33.0081 541.354L39.6577 541.823L39.7582 540.396L33.1087 539.928Z" fill="#253D5E"/>
<path d="M751.674 44.8151H756.558V49.2591C756.558 50.0951 756.389 50.6891 756.052 51.0411C755.715 51.4078 755.084 51.6278 754.16 51.7011L753.346 51.7671L752.752 50.0071L753.764 49.9411C754.189 49.9118 754.461 49.8238 754.578 49.6771C754.695 49.5158 754.754 49.1931 754.754 48.7091V46.5971H751.674V53.1311H749.914V46.5971H747.12V51.5251H745.338V44.8151H749.914V42.9671H745.844V35.1351H749.1C749.423 34.1085 749.621 33.4265 749.694 33.0891L751.674 33.4631L751.146 35.1351H755.876V42.9671H751.674V44.8151ZM742.72 33.7711C742.515 34.3578 742.221 35.0545 741.84 35.8611L744.92 35.9051V37.6651H740.938C740.542 38.3985 740.124 39.1025 739.684 39.7771H744.458V41.5811H742.192V44.0671H744.7V45.8491H742.192V49.4131L744.458 47.8071L744.876 49.8091C744.583 49.9705 744.077 50.2858 743.358 50.7551C742.639 51.2245 742.023 51.6425 741.51 52.0091L741.136 52.2951L740.674 52.6691L739.728 50.9971C739.977 50.8651 740.139 50.7185 740.212 50.5571C740.285 50.3811 740.322 50.1465 740.322 49.8531V45.8491H738.166V44.0671H740.322V41.5811H739.332V40.3051L738.87 40.9431L737.374 39.6011C738.137 38.5891 738.819 37.5258 739.42 36.4111C740.021 35.2818 740.461 34.1965 740.74 33.1551L742.72 33.7711ZM754.028 38.2591V36.7631H747.692V38.2591H754.028ZM754.028 39.8651H747.692V41.3831H754.028V39.8651ZM823.468 48.5331C823.424 49.6331 823.358 50.4251 823.27 50.9091C823.168 51.5838 822.948 52.0385 822.61 52.2731C822.273 52.5225 821.701 52.6618 820.894 52.6911C820.689 52.7058 820.366 52.7131 819.926 52.7131C819.486 52.7131 819.156 52.7058 818.936 52.6911C818.203 52.6618 817.675 52.4931 817.352 52.1851C817.044 51.8918 816.89 51.3565 816.89 50.5791V45.1891H814.954C814.94 45.3358 814.932 45.5411 814.932 45.8051C814.859 47.0518 814.668 48.0931 814.36 48.9291C814.067 49.7651 813.598 50.5205 812.952 51.1951C812.322 51.8698 811.42 52.5958 810.246 53.3731L808.948 51.7671C810.048 51.1658 810.87 50.6085 811.412 50.0951C811.955 49.5671 812.336 48.9805 812.556 48.3351C812.776 47.6898 812.93 46.8098 813.018 45.6951L813.04 45.1891H810.84V40.2171L809.872 41.2291C809.403 40.3051 808.882 39.3958 808.31 38.5011V53.0211H806.44V33.2871L808.31 33.3751V37.3571L809.036 36.7631C809.667 37.6138 810.268 38.5305 810.84 39.5131V37.5771H813.502C813.238 37.0785 812.908 36.5065 812.512 35.8611C812.131 35.2011 811.808 34.6731 811.544 34.2771L813.04 33.3531C813.319 33.7345 813.686 34.2845 814.14 35.0031C814.61 35.7071 814.991 36.3158 815.284 36.8291L814.338 37.5771H816.67C817.462 36.3305 818.254 34.9078 819.046 33.3091L820.806 34.1451C820.249 35.1865 819.604 36.3305 818.87 37.5771H821.488V45.1891H818.804V49.9411C818.804 50.3371 818.856 50.5938 818.958 50.7111C819.076 50.8138 819.325 50.8798 819.706 50.9091C819.985 50.9385 820.271 50.9385 820.564 50.9091C820.858 50.8798 821.063 50.8431 821.18 50.7991C821.312 50.7405 821.4 50.6598 821.444 50.5571C821.488 50.4398 821.532 50.2418 821.576 49.9631C821.635 49.6111 821.679 48.9438 821.708 47.9611L823.468 48.5331ZM803.184 44.6831C803.404 43.6125 803.639 42.3071 803.888 40.7671C804.138 39.2125 804.314 37.8998 804.416 36.8291L806.044 37.0271C805.942 38.1565 805.773 39.5058 805.538 41.0751C805.304 42.6298 805.076 43.9278 804.856 44.9691L803.184 44.6831ZM819.574 39.4471H812.754V43.3411H819.574V39.4471ZM889.169 44.1551L888.487 46.2451C886.536 45.7025 884.798 45.1378 883.273 44.5511C881.747 43.9645 880.369 43.3118 879.137 42.5931C876.746 43.8985 873.644 45.1818 869.831 46.4431L869.038 44.4631C872.177 43.5538 874.913 42.5271 877.245 41.3831C876.042 40.5325 874.957 39.5718 873.989 38.5011C873.079 39.4838 872.038 40.4518 870.865 41.4051L869.677 39.8211C870.821 38.9118 871.95 37.8045 873.065 36.4991C874.194 35.1938 875.067 33.9838 875.683 32.8691L877.641 33.6611C877.186 34.3798 876.885 34.8491 876.739 35.0691H886.331L886.353 36.8951C884.827 38.6405 883.06 40.1658 881.051 41.4711C882.987 42.4391 885.693 43.3338 889.169 44.1551ZM879.115 40.3931C881.051 39.2491 882.539 38.0685 883.581 36.8511H875.419C875.404 36.8805 875.367 36.9245 875.309 36.9831C876.453 38.3471 877.721 39.4838 879.115 40.3931ZM875.023 44.5511C876.167 44.7565 877.604 45.0571 879.335 45.4531C881.08 45.8491 882.481 46.2085 883.537 46.5311L883.207 48.5331C882.077 48.1665 880.655 47.7851 878.939 47.3891C877.237 46.9931 875.793 46.6998 874.605 46.5091L875.023 44.5511ZM872.669 48.4451C874.253 48.6798 876.291 49.0611 878.785 49.5891C881.293 50.1171 883.346 50.6011 884.945 51.0411L884.615 53.1751C883.06 52.6765 881.021 52.1411 878.499 51.5691C875.976 50.9971 873.901 50.5938 872.273 50.3591L872.669 48.4451ZM954.407 42.8571L953.681 44.6831C951.539 43.9351 949.772 43.0771 948.379 42.1091C947.073 43.0771 945.394 43.9571 943.341 44.7491L942.461 42.9671C944.206 42.3511 945.68 41.6545 946.883 40.8771C946.164 40.1731 945.497 39.3518 944.881 38.4131C944.543 38.8385 944.089 39.3371 943.517 39.9091L942.439 38.4131C943.216 37.6065 943.942 36.7118 944.617 35.7291C945.291 34.7318 945.812 33.7638 946.179 32.8251L947.983 33.3091C947.792 33.8078 947.543 34.3431 947.235 34.9151H952.889V36.6751C952.067 38.3325 951.041 39.7478 949.809 40.9211C951.011 41.6838 952.544 42.3291 954.407 42.8571ZM943.055 50.6231C939.725 51.1658 936.975 51.5838 934.805 51.8771L934.585 50.0071L935.751 49.8751V42.4611L937.467 42.5271V49.6331L939.007 49.4131V41.0091H936.059V34.1671H942.417V41.0091H940.767V43.9791H942.901V45.7831H940.767V49.1271L943.011 48.7311L943.055 50.6231ZM940.723 35.9491H937.753V39.2271H940.723V35.9491ZM948.335 39.8211C949.361 38.9265 950.227 37.8705 950.931 36.6531H946.223L946.025 36.9391C946.67 38.0538 947.44 39.0145 948.335 39.8211ZM945.673 52.8671H943.847V44.8151H952.361V52.8671H950.535V51.8111H945.673V52.8671ZM950.535 50.0951V46.5971H945.673V50.0951H950.535Z" fill="#253D5E"/>
<path d="M295.04 144.025V140.121L296.544 140.185V154.409H295.04V151.529C293.909 152.084 292.629 152.66 291.2 153.257L290.608 151.753C291.109 151.572 291.824 151.278 292.752 150.873C293.68 150.468 294.443 150.116 295.04 149.817V145.529H291.28V144.025H295.04ZM304.864 150.201C304.864 150.798 304.811 151.486 304.704 152.265C304.64 152.734 304.539 153.086 304.4 153.321C304.261 153.566 304.059 153.737 303.792 153.833C303.536 153.94 303.168 153.998 302.688 154.009H300.624C300.112 153.998 299.717 153.929 299.44 153.801C299.173 153.684 298.981 153.486 298.864 153.209C298.747 152.932 298.688 152.537 298.688 152.025V140.137L300.208 140.201V145.065C301.52 144.286 302.704 143.46 303.76 142.585L304.656 143.945C304.08 144.361 303.365 144.846 302.512 145.401C301.669 145.956 300.901 146.436 300.208 146.841V151.785C300.208 152.084 300.256 152.286 300.352 152.393C300.459 152.5 300.661 152.558 300.96 152.569H302.304C302.549 152.558 302.731 152.532 302.848 152.489C302.965 152.436 303.051 152.361 303.104 152.265C303.157 152.158 303.205 151.998 303.248 151.785C303.28 151.55 303.307 151.225 303.328 150.809C303.349 150.382 303.36 150.014 303.36 149.705L304.864 150.201ZM309.286 142.377V152.537H320.534V153.945H307.75V140.921H320.214V142.377H309.286ZM309.478 150.793C310.833 149.854 312.219 148.681 313.638 147.273C312.081 145.716 310.913 144.59 310.134 143.897L311.174 142.793C312.134 143.636 313.323 144.75 314.742 146.137C315.83 144.953 316.763 143.79 317.542 142.649L318.79 143.593C317.937 144.788 316.955 145.988 315.846 147.193C317.382 148.729 318.534 149.908 319.302 150.729L318.246 152.121C317.275 151.033 316.102 149.785 314.726 148.377C313.265 149.838 311.835 151.076 310.438 152.089L309.478 150.793Z" fill="#203C63"/>
<path d="M411.6 142.425V138.857H424.24V142.361H422.656V140.265H413.12V142.425H411.6ZM415.12 143.609L414.96 145.321H423.44C423.419 145.929 423.381 146.718 423.328 147.689C423.275 148.649 423.232 149.38 423.2 149.881C423.157 150.489 423.04 150.958 422.848 151.289C422.667 151.62 422.384 151.86 422 152.009C421.627 152.169 421.093 152.276 420.4 152.329L418.912 152.441L418.464 151.049L419.968 150.953C420.405 150.921 420.736 150.862 420.96 150.777C421.184 150.692 421.349 150.558 421.456 150.377C421.563 150.185 421.632 149.902 421.664 149.529C421.707 149.06 421.749 148.51 421.792 147.881C421.835 147.241 421.856 146.841 421.856 146.681H413.296L413.856 140.889L415.376 140.953L415.248 142.281H422.4V143.609H415.12ZM411.136 148.297H420.816V149.657H411.136V148.297ZM428.726 141.225V143.385H427.238V139.817H432.918C432.737 139.156 432.577 138.628 432.438 138.233L434.038 137.977C434.166 138.361 434.353 138.974 434.598 139.817H439.99V143.401H438.486V141.225H428.726ZM440.55 146.665V148.073H434.422V150.345C434.422 150.9 434.369 151.31 434.262 151.577C434.155 151.854 433.969 152.046 433.702 152.153C433.435 152.27 433.019 152.35 432.454 152.393L431.174 152.489L430.71 151.065L431.942 150.969C432.241 150.948 432.454 150.91 432.582 150.857C432.721 150.793 432.811 150.697 432.854 150.569C432.907 150.43 432.934 150.217 432.934 149.929V148.073H426.614V146.665H432.934V145.817L435.478 144.169H429.222V142.777H438.006V144.201L434.422 146.441V146.665H440.55ZM446.38 146.393C446.081 145.956 445.777 145.55 445.468 145.177V152.585H444.204V145.449C443.724 146.74 443.196 147.86 442.62 148.809L441.676 147.801C442.071 147.161 442.503 146.329 442.972 145.305C443.441 144.27 443.831 143.294 444.14 142.377H442.46V141.017H444.204V138.185L445.468 138.233V141.017H446.876V142.377H445.468V144.025L445.74 143.737C446.103 144.089 446.465 144.494 446.828 144.953L446.748 144.777C448.007 144.254 449.127 143.545 450.108 142.649H447.164V141.417H450.7V138.169L452.028 138.217V141.417H455.884V142.649H452.668C453.692 143.577 454.972 144.318 456.508 144.873L456.028 146.153C455.143 145.758 454.38 145.364 453.74 144.969C453.1 144.564 452.529 144.116 452.028 143.625V145.545H450.7V143.705C449.793 144.622 448.684 145.412 447.372 146.073L447.132 145.577L446.38 146.393ZM448.284 138.457C448.529 138.702 448.823 139.044 449.164 139.481C449.516 139.908 449.788 140.276 449.98 140.585L449.052 141.417C448.871 141.108 448.609 140.729 448.268 140.281C447.937 139.822 447.649 139.465 447.404 139.209L448.284 138.457ZM455.372 139.177C455.159 139.497 454.865 139.886 454.492 140.345C454.119 140.804 453.809 141.161 453.564 141.417L452.652 140.601C452.897 140.356 453.201 140.014 453.564 139.577C453.927 139.14 454.209 138.772 454.412 138.473L455.372 139.177ZM451.084 145.737C450.967 146.068 450.849 146.35 450.732 146.585H456.3V147.865H454.428C454.023 148.782 453.559 149.513 453.036 150.057C453.815 150.366 454.833 150.793 456.092 151.337L455.5 152.553C454.583 152.084 453.388 151.54 451.916 150.921C451.329 151.262 450.609 151.572 449.756 151.849C448.903 152.137 447.847 152.414 446.588 152.681L446.124 151.417C448.097 151.044 449.527 150.67 450.412 150.297L447.628 149.225C447.98 148.702 448.273 148.249 448.508 147.865H446.54V146.585H449.244C449.489 146.094 449.671 145.7 449.788 145.401L451.084 145.737ZM450.076 147.865C449.937 148.121 449.767 148.409 449.564 148.729C449.959 148.868 450.679 149.134 451.724 149.529C451.991 149.316 452.215 149.076 452.396 148.809C452.588 148.542 452.769 148.228 452.94 147.865H450.076Z" fill="#203C63"/>
<path d="M389.6 571.425V567.857H402.24V571.361H400.656V569.265H391.12V571.425H389.6ZM393.12 572.609L392.96 574.321H401.44C401.419 574.929 401.381 575.718 401.328 576.689C401.275 577.649 401.232 578.38 401.2 578.881C401.157 579.489 401.04 579.958 400.848 580.289C400.667 580.62 400.384 580.86 400 581.009C399.627 581.169 399.093 581.276 398.4 581.329L396.912 581.441L396.464 580.049L397.968 579.953C398.405 579.921 398.736 579.862 398.96 579.777C399.184 579.692 399.349 579.558 399.456 579.377C399.563 579.185 399.632 578.902 399.664 578.529C399.707 578.06 399.749 577.51 399.792 576.881C399.835 576.241 399.856 575.841 399.856 575.681H391.296L391.856 569.889L393.376 569.953L393.248 571.281H400.4V572.609H393.12ZM389.136 577.297H398.816V578.657H389.136V577.297ZM406.726 570.225V572.385H405.238V568.817H410.918C410.737 568.156 410.577 567.628 410.438 567.233L412.038 566.977C412.166 567.361 412.353 567.974 412.598 568.817H417.99V572.401H416.486V570.225H406.726ZM418.55 575.665V577.073H412.422V579.345C412.422 579.9 412.369 580.31 412.262 580.577C412.155 580.854 411.969 581.046 411.702 581.153C411.435 581.27 411.019 581.35 410.454 581.393L409.174 581.489L408.71 580.065L409.942 579.969C410.241 579.948 410.454 579.91 410.582 579.857C410.721 579.793 410.811 579.697 410.854 579.569C410.907 579.43 410.934 579.217 410.934 578.929V577.073H404.614V575.665H410.934V574.817L413.478 573.169H407.222V571.777H416.006V573.201L412.422 575.441V575.665H418.55ZM424.38 575.393C424.081 574.956 423.777 574.55 423.468 574.177V581.585H422.204V574.449C421.724 575.74 421.196 576.86 420.62 577.809L419.676 576.801C420.071 576.161 420.503 575.329 420.972 574.305C421.441 573.27 421.831 572.294 422.14 571.377H420.46V570.017H422.204V567.185L423.468 567.233V570.017H424.876V571.377H423.468V573.025L423.74 572.737C424.103 573.089 424.465 573.494 424.828 573.953L424.748 573.777C426.007 573.254 427.127 572.545 428.108 571.649H425.164V570.417H428.7V567.169L430.028 567.217V570.417H433.884V571.649H430.668C431.692 572.577 432.972 573.318 434.508 573.873L434.028 575.153C433.143 574.758 432.38 574.364 431.74 573.969C431.1 573.564 430.529 573.116 430.028 572.625V574.545H428.7V572.705C427.793 573.622 426.684 574.412 425.372 575.073L425.132 574.577L424.38 575.393ZM426.284 567.457C426.529 567.702 426.823 568.044 427.164 568.481C427.516 568.908 427.788 569.276 427.98 569.585L427.052 570.417C426.871 570.108 426.609 569.729 426.268 569.281C425.937 568.822 425.649 568.465 425.404 568.209L426.284 567.457ZM433.372 568.177C433.159 568.497 432.865 568.886 432.492 569.345C432.119 569.804 431.809 570.161 431.564 570.417L430.652 569.601C430.897 569.356 431.201 569.014 431.564 568.577C431.927 568.14 432.209 567.772 432.412 567.473L433.372 568.177ZM429.084 574.737C428.967 575.068 428.849 575.35 428.732 575.585H434.3V576.865H432.428C432.023 577.782 431.559 578.513 431.036 579.057C431.815 579.366 432.833 579.793 434.092 580.337L433.5 581.553C432.583 581.084 431.388 580.54 429.916 579.921C429.329 580.262 428.609 580.572 427.756 580.849C426.903 581.137 425.847 581.414 424.588 581.681L424.124 580.417C426.097 580.044 427.527 579.67 428.412 579.297L425.628 578.225C425.98 577.702 426.273 577.249 426.508 576.865H424.54V575.585H427.244C427.489 575.094 427.671 574.7 427.788 574.401L429.084 574.737ZM428.076 576.865C427.937 577.121 427.767 577.409 427.564 577.729C427.959 577.868 428.679 578.134 429.724 578.529C429.991 578.316 430.215 578.076 430.396 577.809C430.588 577.542 430.769 577.228 430.94 576.865H428.076Z" fill="#203C63"/>
<path d="M482.776 157.329C483.128 157.553 483.587 157.884 484.152 158.321C484.717 158.748 485.171 159.116 485.512 159.425L484.76 160.721C484.461 160.401 484.019 160.001 483.432 159.521C482.856 159.041 482.381 158.678 482.008 158.433L482.776 157.329ZM495.88 157.777V159.089H492.248V160.801H495.064V171.409H493.768V170.721H487.112V171.409H485.816V160.801H488.488V159.089H485.352V157.777H495.88ZM489.72 160.801H491.016V159.089H489.72V160.801ZM482.424 160.705C482.861 161.014 483.357 161.398 483.912 161.857C484.477 162.305 484.92 162.689 485.24 163.009L484.456 164.305C484.061 163.91 483.576 163.462 483 162.961C482.424 162.449 481.96 162.065 481.608 161.809L482.424 160.705ZM487.112 162.097V165.265C487.517 164.966 487.811 164.7 487.992 164.465C488.173 164.23 488.296 163.942 488.36 163.601C488.435 163.26 488.477 162.758 488.488 162.097H487.112ZM492.456 165.601C492.083 165.601 491.795 165.558 491.592 165.473C491.389 165.377 491.24 165.217 491.144 164.993C491.059 164.758 491.016 164.412 491.016 163.953V162.097H489.72C489.699 162.897 489.629 163.537 489.512 164.017C489.405 164.486 489.224 164.886 488.968 165.217C488.723 165.548 488.355 165.91 487.864 166.305L487.112 165.441V166.801H493.768V165.601H492.456ZM493.768 162.097H492.248V163.553C492.248 163.852 492.296 164.054 492.392 164.161C492.488 164.257 492.653 164.305 492.888 164.305H493.768V162.097ZM484.584 165.473L485.08 165.601C484.888 166.497 484.637 167.468 484.328 168.513C484.029 169.548 483.715 170.492 483.384 171.345L481.976 170.961C482.307 170.108 482.632 169.164 482.952 168.129C483.272 167.094 483.528 166.129 483.72 165.233L484.584 165.473ZM487.112 168.065V169.457H493.768V168.065H487.112ZM511.454 158.657V160.241H500.638V163.393C500.638 164.78 500.585 165.921 500.478 166.817C500.371 167.702 500.185 168.502 499.918 169.217C499.662 169.921 499.283 170.684 498.782 171.505L497.31 170.833C497.822 170.054 498.206 169.334 498.462 168.673C498.729 168.012 498.91 167.292 499.006 166.513C499.113 165.724 499.166 164.726 499.166 163.521L499.182 158.657H504.718C504.558 158.124 504.425 157.718 504.318 157.441L505.838 157.185C505.977 157.526 506.153 158.017 506.366 158.657H511.454ZM504.782 160.625L506.286 160.689V161.921H511.23V163.281H506.286V165.217H510.286V171.473H508.782V170.657H503.166V171.473H501.694V165.217H504.782V160.625ZM503.166 169.313H508.782V166.625H503.166V169.313ZM516.036 159.377V169.537H527.284V170.945H514.5V157.921H526.964V159.377H516.036ZM516.228 167.793C517.583 166.854 518.969 165.681 520.388 164.273C518.831 162.716 517.663 161.59 516.884 160.897L517.924 159.793C518.884 160.636 520.073 161.75 521.492 163.137C522.58 161.953 523.513 160.79 524.292 159.649L525.54 160.593C524.687 161.788 523.705 162.988 522.596 164.193C524.132 165.729 525.284 166.908 526.052 167.729L524.996 169.121C524.025 168.033 522.852 166.785 521.476 165.377C520.015 166.838 518.585 168.076 517.188 169.089L516.228 167.793Z" fill="#203C63"/>
<path d="M354.84 263.257V266.553C354.84 267.812 354.781 268.884 354.664 269.769C354.547 270.654 354.355 271.47 354.088 272.217C353.832 272.953 353.469 273.764 353 274.649L351.656 273.977C352.147 273.145 352.515 272.388 352.76 271.705C353.016 271.022 353.192 270.292 353.288 269.513C353.395 268.734 353.448 267.764 353.448 266.601V261.865H359.064C358.893 261.246 358.712 260.676 358.52 260.153L359.992 259.897C360.227 260.473 360.451 261.129 360.664 261.865H365.656V263.257H354.84ZM359.96 270.489C359.821 269.572 359.629 268.516 359.384 267.321C359.149 266.126 358.936 265.188 358.744 264.505L360.104 264.233C360.285 264.894 360.499 265.801 360.744 266.953C360.989 268.094 361.192 269.124 361.352 270.041L359.96 270.489ZM365.96 272.409V273.769H354.664V272.409H361.016C361.464 271.246 361.923 269.94 362.392 268.489C362.872 267.028 363.261 265.742 363.56 264.633L364.92 265.001C364.664 265.95 364.296 267.14 363.816 268.569C363.347 269.988 362.893 271.268 362.456 272.409H365.96ZM357.192 271.385C356.957 270.478 356.643 269.396 356.248 268.137C355.864 266.878 355.533 265.881 355.256 265.145L356.504 264.729C356.792 265.444 357.133 266.409 357.528 267.625C357.923 268.841 358.248 269.913 358.504 270.841L357.192 271.385ZM369.47 264.681L368.638 265.289L367.774 264.201C368.681 263.593 369.507 262.926 370.254 262.201C371.001 261.465 371.614 260.713 372.094 259.945L373.566 260.345C373.363 260.633 373.145 260.932 372.91 261.241H378.478V262.345L378.174 262.681L377.054 263.881H380.062V269.513H374.798C375.363 270.174 375.859 270.825 376.286 271.465L375.31 272.361C375.086 272.009 374.803 271.604 374.462 271.145C374.121 270.676 373.822 270.297 373.566 270.009L374.238 269.513H369.07V268.313H378.718V267.257H369.646V266.121H378.718V265.097H369.47V264.681ZM371.886 262.473C371.459 262.942 370.979 263.412 370.446 263.881H375.262C375.721 263.401 376.142 262.932 376.526 262.473H371.886ZM379.422 269.881C379.753 270.276 380.142 270.798 380.59 271.449C381.038 272.089 381.401 272.644 381.678 273.113L380.542 273.977C380.275 273.497 379.923 272.926 379.486 272.265C379.059 271.604 378.675 271.06 378.334 270.633L379.422 269.881ZM367.326 273.305C368.041 272.356 368.665 271.321 369.198 270.201L370.43 270.729C369.769 272.02 369.113 273.145 368.462 274.105L367.326 273.305ZM376.99 271.113L378.302 271.657C378.259 272.137 378.195 272.569 378.11 272.953C378.046 273.305 377.939 273.572 377.79 273.753C377.651 273.934 377.454 274.062 377.198 274.137C376.953 274.212 376.601 274.265 376.142 274.297C375.79 274.318 375.267 274.329 374.574 274.329C373.87 274.329 373.342 274.318 372.99 274.297C372.521 274.265 372.158 274.19 371.902 274.073C371.657 273.966 371.475 273.78 371.358 273.513C371.241 273.257 371.182 272.889 371.182 272.409V270.281L372.638 270.345V272.121C372.638 272.462 372.691 272.692 372.798 272.809C372.915 272.926 373.155 273.001 373.518 273.033C373.774 273.054 374.153 273.065 374.654 273.065C375.166 273.065 375.545 273.054 375.79 273.033C376.067 273.012 376.27 272.98 376.398 272.937C376.537 272.894 376.633 272.83 376.686 272.745C376.75 272.649 376.803 272.505 376.846 272.313C376.889 272.089 376.937 271.689 376.99 271.113ZM388.292 266.841L388.436 267.657C388.137 267.774 387.583 267.977 386.772 268.265V272.745C386.772 273.182 386.719 273.508 386.612 273.721C386.516 273.934 386.34 274.084 386.084 274.169C385.839 274.265 385.46 274.334 384.948 274.377L384.164 274.457L383.716 273.049L384.484 272.985C384.825 272.953 385.049 272.894 385.156 272.809C385.263 272.724 385.316 272.542 385.316 272.265V268.761C384.569 269.017 383.924 269.214 383.38 269.353L383.076 267.897C383.513 267.79 384.26 267.566 385.316 267.225V264.265H383.54V262.873H385.316V260.169L386.772 260.233V262.873H388.372V264.265H386.772V266.713C387.391 266.5 387.855 266.329 388.164 266.201L388.292 266.841ZM397.236 263.577C397.225 263.78 397.177 264.105 397.092 264.553C396.996 264.98 396.884 265.3 396.756 265.513C396.628 265.726 396.441 265.876 396.196 265.961C395.951 266.046 395.593 266.105 395.124 266.137C394.185 266.18 393.46 266.201 392.948 266.201C392.457 266.201 391.732 266.18 390.772 266.137C390.281 266.105 389.897 266.036 389.62 265.929C389.353 265.812 389.156 265.62 389.028 265.353C388.911 265.076 388.852 264.686 388.852 264.185V260.233L390.276 260.297V262.345C391.14 262.153 392.132 261.908 393.252 261.609C394.372 261.3 395.311 261.017 396.068 260.761L396.436 262.073C395.647 262.318 394.681 262.585 393.54 262.873C392.399 263.161 391.311 263.422 390.276 263.657V263.945C390.276 264.286 390.324 264.516 390.42 264.633C390.527 264.74 390.745 264.804 391.076 264.825C391.865 264.868 392.452 264.889 392.836 264.889C393.241 264.889 393.828 264.868 394.596 264.825C394.905 264.804 395.129 264.772 395.268 264.729C395.417 264.676 395.524 264.596 395.588 264.489C395.663 264.372 395.721 264.19 395.764 263.945C395.807 263.689 395.828 263.412 395.828 263.113L397.236 263.577ZM390.26 274.521H388.868V267.177H396.308V274.489H394.852V273.769H390.26V274.521ZM394.852 269.897V268.425H390.26V269.897H394.852ZM390.26 271.145V272.585H394.852V271.145H390.26ZM403.962 267.625C403.429 267.86 402.922 268.068 402.442 268.249V272.729C402.442 273.166 402.389 273.492 402.282 273.705C402.175 273.929 401.999 274.089 401.754 274.185C401.509 274.292 401.141 274.366 400.65 274.409L399.898 274.473L399.482 273.049L400.282 273.001C400.602 272.969 400.81 272.91 400.906 272.825C401.002 272.729 401.05 272.526 401.05 272.217V268.777C400.154 269.097 399.519 269.31 399.146 269.417L398.826 267.993C399.423 267.79 400.165 267.529 401.05 267.209V264.377H399.37V262.921H401.05V260.153L402.442 260.201V262.921H403.818V264.377H402.442V266.665L403.658 266.153L403.834 267.033L403.962 267.625ZM411.242 262.249H405.546V263.641H404.138V260.905H412.65V263.641H411.242V262.249ZM413.21 270.809V272.169H409.37V274.521H407.93V272.169H403.37V270.809H407.93V269.257H404.314V267.945C404.741 267.337 405.221 266.553 405.754 265.593H403.994V264.281H406.458C406.81 263.588 407.098 262.969 407.322 262.425L408.538 262.953L408.394 263.289L407.946 264.281H412.522V265.593H407.29C406.842 266.457 406.389 267.241 405.93 267.945H407.93V266.073L409.37 266.121V267.945H412.362V269.257H409.37V270.809H413.21ZM422.624 262.969H427.92V269.961H422.624V274.537H421.088V269.961H415.744V262.969H421.088V260.025L422.624 260.089V262.969ZM417.28 264.441V268.521H421.088V264.441H417.28ZM422.624 268.521H426.4V264.441H422.624V268.521ZM436.822 260.089C437.921 261.433 439.057 263.028 440.23 264.873L438.982 265.897C438.033 264.212 436.934 262.558 435.686 260.937L436.822 260.089ZM434.326 263.449L435.894 263.529V271.593C435.894 271.956 435.958 272.206 436.086 272.345C436.214 272.473 436.475 272.558 436.87 272.601C437.158 272.633 437.483 272.649 437.846 272.649C438.273 272.649 438.651 272.633 438.982 272.601C439.291 272.569 439.521 272.516 439.67 272.441C439.83 272.366 439.937 272.265 439.99 272.137C440.054 272.009 440.107 271.817 440.15 271.561C440.235 271.06 440.299 270.484 440.342 269.833L441.846 270.345C441.793 270.974 441.713 271.577 441.606 272.153C441.51 272.644 441.382 273.017 441.222 273.273C441.062 273.54 440.833 273.732 440.534 273.849C440.246 273.977 439.841 274.057 439.318 274.089C438.934 274.121 438.47 274.137 437.926 274.137C437.393 274.137 436.902 274.121 436.454 274.089C435.921 274.057 435.499 273.966 435.19 273.817C434.891 273.678 434.673 273.449 434.534 273.129C434.395 272.82 434.326 272.393 434.326 271.849V263.449ZM442.326 264.409C442.763 265.23 443.211 266.169 443.67 267.225C444.139 268.27 444.566 269.3 444.95 270.313L443.574 271.049C443.19 269.961 442.769 268.884 442.31 267.817C441.862 266.75 441.43 265.817 441.014 265.017L442.326 264.409ZM430.278 270.953C430.598 270.11 430.918 269.113 431.238 267.961C431.569 266.809 431.841 265.726 432.054 264.713L433.51 265.065C433.286 266.121 433.019 267.225 432.71 268.377C432.401 269.518 432.081 270.532 431.75 271.417L430.278 270.953Z" fill="#203C63"/>
<path d="M517.776 226.329C518.128 226.553 518.587 226.884 519.152 227.321C519.717 227.748 520.171 228.116 520.512 228.425L519.76 229.721C519.461 229.401 519.019 229.001 518.432 228.521C517.856 228.041 517.381 227.678 517.008 227.433L517.776 226.329ZM530.88 226.777V228.089H527.248V229.801H530.064V240.409H528.768V239.721H522.112V240.409H520.816V229.801H523.488V228.089H520.352V226.777H530.88ZM524.72 229.801H526.016V228.089H524.72V229.801ZM517.424 229.705C517.861 230.014 518.357 230.398 518.912 230.857C519.477 231.305 519.92 231.689 520.24 232.009L519.456 233.305C519.061 232.91 518.576 232.462 518 231.961C517.424 231.449 516.96 231.065 516.608 230.809L517.424 229.705ZM522.112 231.097V234.265C522.517 233.966 522.811 233.7 522.992 233.465C523.173 233.23 523.296 232.942 523.36 232.601C523.435 232.26 523.477 231.758 523.488 231.097H522.112ZM527.456 234.601C527.083 234.601 526.795 234.558 526.592 234.473C526.389 234.377 526.24 234.217 526.144 233.993C526.059 233.758 526.016 233.412 526.016 232.953V231.097H524.72C524.699 231.897 524.629 232.537 524.512 233.017C524.405 233.486 524.224 233.886 523.968 234.217C523.723 234.548 523.355 234.91 522.864 235.305L522.112 234.441V235.801H528.768V234.601H527.456ZM528.768 231.097H527.248V232.553C527.248 232.852 527.296 233.054 527.392 233.161C527.488 233.257 527.653 233.305 527.888 233.305H528.768V231.097ZM519.584 234.473L520.08 234.601C519.888 235.497 519.637 236.468 519.328 237.513C519.029 238.548 518.715 239.492 518.384 240.345L516.976 239.961C517.307 239.108 517.632 238.164 517.952 237.129C518.272 236.094 518.528 235.129 518.72 234.233L519.584 234.473ZM522.112 237.065V238.457H528.768V237.065H522.112ZM530.704 249.657V251.241H519.888V254.393C519.888 255.78 519.835 256.921 519.728 257.817C519.621 258.702 519.435 259.502 519.168 260.217C518.912 260.921 518.533 261.684 518.032 262.505L516.56 261.833C517.072 261.054 517.456 260.334 517.712 259.673C517.979 259.012 518.16 258.292 518.256 257.513C518.363 256.724 518.416 255.726 518.416 254.521L518.432 249.657H523.968C523.808 249.124 523.675 248.718 523.568 248.441L525.088 248.185C525.227 248.526 525.403 249.017 525.616 249.657H530.704ZM524.032 251.625L525.536 251.689V252.921H530.48V254.281H525.536V256.217H529.536V262.473H528.032V261.657H522.416V262.473H520.944V256.217H524.032V251.625ZM522.416 260.313H528.032V257.625H522.416V260.313ZM519.536 272.377V282.537H530.784V283.945H518V270.921H530.464V272.377H519.536ZM519.728 280.793C521.083 279.854 522.469 278.681 523.888 277.273C522.331 275.716 521.163 274.59 520.384 273.897L521.424 272.793C522.384 273.636 523.573 274.75 524.992 276.137C526.08 274.953 527.013 273.79 527.792 272.649L529.04 273.593C528.187 274.788 527.205 275.988 526.096 277.193C527.632 278.729 528.784 279.908 529.552 280.729L528.496 282.121C527.525 281.033 526.352 279.785 524.976 278.377C523.515 279.838 522.085 281.076 520.688 282.089L519.728 280.793Z" fill="#203C63"/>
<path d="M514.776 509.329C515.128 509.553 515.587 509.884 516.152 510.321C516.717 510.748 517.171 511.116 517.512 511.425L516.76 512.721C516.461 512.401 516.019 512.001 515.432 511.521C514.856 511.041 514.381 510.678 514.008 510.433L514.776 509.329ZM527.88 509.777V511.089H524.248V512.801H527.064V523.409H525.768V522.721H519.112V523.409H517.816V512.801H520.488V511.089H517.352V509.777H527.88ZM521.72 512.801H523.016V511.089H521.72V512.801ZM514.424 512.705C514.861 513.014 515.357 513.398 515.912 513.857C516.477 514.305 516.92 514.689 517.24 515.009L516.456 516.305C516.061 515.91 515.576 515.462 515 514.961C514.424 514.449 513.96 514.065 513.608 513.809L514.424 512.705ZM519.112 514.097V517.265C519.517 516.966 519.811 516.7 519.992 516.465C520.173 516.23 520.296 515.942 520.36 515.601C520.435 515.26 520.477 514.758 520.488 514.097H519.112ZM524.456 517.601C524.083 517.601 523.795 517.558 523.592 517.473C523.389 517.377 523.24 517.217 523.144 516.993C523.059 516.758 523.016 516.412 523.016 515.953V514.097H521.72C521.699 514.897 521.629 515.537 521.512 516.017C521.405 516.486 521.224 516.886 520.968 517.217C520.723 517.548 520.355 517.91 519.864 518.305L519.112 517.441V518.801H525.768V517.601H524.456ZM525.768 514.097H524.248V515.553C524.248 515.852 524.296 516.054 524.392 516.161C524.488 516.257 524.653 516.305 524.888 516.305H525.768V514.097ZM516.584 517.473L517.08 517.601C516.888 518.497 516.637 519.468 516.328 520.513C516.029 521.548 515.715 522.492 515.384 523.345L513.976 522.961C514.307 522.108 514.632 521.164 514.952 520.129C515.272 519.094 515.528 518.129 515.72 517.233L516.584 517.473ZM519.112 520.065V521.457H525.768V520.065H519.112ZM527.704 532.657V534.241H516.888V537.393C516.888 538.78 516.835 539.921 516.728 540.817C516.621 541.702 516.435 542.502 516.168 543.217C515.912 543.921 515.533 544.684 515.032 545.505L513.56 544.833C514.072 544.054 514.456 543.334 514.712 542.673C514.979 542.012 515.16 541.292 515.256 540.513C515.363 539.724 515.416 538.726 515.416 537.521L515.432 532.657H520.968C520.808 532.124 520.675 531.718 520.568 531.441L522.088 531.185C522.227 531.526 522.403 532.017 522.616 532.657H527.704ZM521.032 534.625L522.536 534.689V535.921H527.48V537.281H522.536V539.217H526.536V545.473H525.032V544.657H519.416V545.473H517.944V539.217H521.032V534.625ZM519.416 543.313H525.032V540.625H519.416V543.313ZM516.536 555.377V565.537H527.784V566.945H515V553.921H527.464V555.377H516.536ZM516.728 563.793C518.083 562.854 519.469 561.681 520.888 560.273C519.331 558.716 518.163 557.59 517.384 556.897L518.424 555.793C519.384 556.636 520.573 557.75 521.992 559.137C523.08 557.953 524.013 556.79 524.792 555.649L526.04 556.593C525.187 557.788 524.205 558.988 523.096 560.193C524.632 561.729 525.784 562.908 526.552 563.729L525.496 565.121C524.525 564.033 523.352 562.785 521.976 561.377C520.515 562.838 519.085 564.076 517.688 565.089L516.728 563.793Z" fill="#203C63"/>
<path d="M321.088 415.793V411.665H330.592V415.793H321.088ZM329.088 412.961H322.592V414.529H329.088V412.961ZM320.576 422.289V417.009H331.104V422.225H329.632V418.385H322.064V422.289H320.576ZM318.88 424.225C320.779 423.873 322.203 423.441 323.152 422.929C324.112 422.417 324.688 421.74 324.88 420.897C325.008 420.417 325.099 419.788 325.152 419.009L326.656 419.073C326.635 419.318 326.587 419.692 326.512 420.193C326.448 420.694 326.379 421.116 326.304 421.457C326.101 422.364 325.429 423.185 324.288 423.921C323.157 424.646 321.525 425.233 319.392 425.681L318.88 424.225ZM326.784 421.729C329.205 422.678 331.104 423.494 332.48 424.177L331.936 425.665C329.995 424.652 328.085 423.761 326.208 422.993L326.784 421.729ZM326.672 429.825V439.105H332.8V440.529H318.896V439.105H325.008V429.825H319.984V428.321H331.728V429.825H326.672ZM322.24 446.913C321.899 446.593 321.424 446.198 320.816 445.729C320.219 445.26 319.733 444.908 319.36 444.673L320.144 443.505C320.528 443.729 321.024 444.065 321.632 444.513C322.24 444.95 322.709 445.313 323.04 445.601L322.24 446.913ZM332.912 449.185H328.432V451.297H331.68V457.553H330.176V456.737H325.2V457.553H323.696V451.297H326.928V449.185H322.96V447.745H326.928V445.473C325.531 445.58 324.395 445.649 323.52 445.681L323.392 444.289C324.704 444.246 326.165 444.15 327.776 444.001C329.397 443.852 330.704 443.692 331.696 443.521L331.968 444.913C330.912 445.073 329.733 445.217 328.432 445.345V447.745H332.912V449.185ZM321.696 450.769C321.301 450.406 320.784 449.974 320.144 449.473C319.504 448.961 318.981 448.572 318.576 448.305L319.408 447.121C319.877 447.42 320.421 447.798 321.04 448.257C321.659 448.705 322.144 449.089 322.496 449.409L321.696 450.769ZM321.936 451.841L322.56 452.065C322.432 452.566 322.128 453.457 321.648 454.737C321.168 456.017 320.811 456.897 320.576 457.377L319.152 456.881C319.376 456.444 319.728 455.585 320.208 454.305C320.688 453.014 321.003 452.102 321.152 451.569L321.936 451.841ZM325.2 455.377H330.176V452.737H325.2V455.377ZM332.352 462.049C332.341 462.785 332.256 465.164 332.096 469.185L332.032 471.105C332.011 471.628 331.931 472.017 331.792 472.273C331.653 472.54 331.424 472.732 331.104 472.849C330.795 472.966 330.32 473.057 329.68 473.121L328.704 473.217L328.224 471.777L329.184 471.697C329.621 471.654 329.936 471.601 330.128 471.537C330.32 471.462 330.453 471.345 330.528 471.185C330.603 471.025 330.651 470.764 330.672 470.401C330.715 469.505 330.757 468.358 330.8 466.961C330.853 465.553 330.896 464.385 330.928 463.457H328.576C328.491 465.601 328.389 467.18 328.272 468.193C328.155 469.206 327.915 470.14 327.552 470.993C327.189 471.846 326.597 472.785 325.776 473.809L324.48 472.913C325.003 472.305 325.408 471.772 325.696 471.313L324.704 471.953C324.523 471.409 324.432 471.137 324.432 471.137C323.184 471.318 321.877 471.521 320.512 471.745C320.331 471.766 320.133 471.804 319.92 471.857C319.707 471.9 319.557 471.932 319.472 471.953L318.928 470.449C319.109 470.364 319.237 470.278 319.312 470.193C319.387 470.097 319.483 469.937 319.6 469.713C319.792 469.35 320.043 468.769 320.352 467.969C320.661 467.158 320.933 466.38 321.168 465.633H318.848V464.209H325.824V465.633H322.688C322.432 466.497 322.133 467.393 321.792 468.321C321.461 469.238 321.189 469.873 320.976 470.225L323.936 469.777C323.499 468.668 323.147 467.82 322.88 467.233L324.192 466.737C324.448 467.281 324.741 467.969 325.072 468.801C325.403 469.622 325.675 470.353 325.888 470.993C326.219 470.417 326.469 469.809 326.64 469.169C326.811 468.518 326.928 467.782 326.992 466.961C327.067 466.129 327.131 464.961 327.184 463.457H325.424V462.049H327.216L327.28 459.073L328.672 459.137L328.624 462.049H332.352ZM319.632 460.241H325.296V461.633H319.632V460.241ZM326.624 477.969H331.92V484.961H326.624V489.537H325.088V484.961H319.744V477.969H325.088V475.025L326.624 475.089V477.969ZM321.28 479.441V483.521H325.088V479.441H321.28ZM326.624 483.521H330.4V479.441H326.624V483.521ZM325.072 491.089C326.171 492.433 327.307 494.028 328.48 495.873L327.232 496.897C326.283 495.212 325.184 493.558 323.936 491.937L325.072 491.089ZM322.576 494.449L324.144 494.529V502.593C324.144 502.956 324.208 503.206 324.336 503.345C324.464 503.473 324.725 503.558 325.12 503.601C325.408 503.633 325.733 503.649 326.096 503.649C326.523 503.649 326.901 503.633 327.232 503.601C327.541 503.569 327.771 503.516 327.92 503.441C328.08 503.366 328.187 503.265 328.24 503.137C328.304 503.009 328.357 502.817 328.4 502.561C328.485 502.06 328.549 501.484 328.592 500.833L330.096 501.345C330.043 501.974 329.963 502.577 329.856 503.153C329.76 503.644 329.632 504.017 329.472 504.273C329.312 504.54 329.083 504.732 328.784 504.849C328.496 504.977 328.091 505.057 327.568 505.089C327.184 505.121 326.72 505.137 326.176 505.137C325.643 505.137 325.152 505.121 324.704 505.089C324.171 505.057 323.749 504.966 323.44 504.817C323.141 504.678 322.923 504.449 322.784 504.129C322.645 503.82 322.576 503.393 322.576 502.849V494.449ZM330.576 495.409C331.013 496.23 331.461 497.169 331.92 498.225C332.389 499.27 332.816 500.3 333.2 501.313L331.824 502.049C331.44 500.961 331.019 499.884 330.56 498.817C330.112 497.75 329.68 496.817 329.264 496.017L330.576 495.409ZM318.528 501.953C318.848 501.11 319.168 500.113 319.488 498.961C319.819 497.809 320.091 496.726 320.304 495.713L321.76 496.065C321.536 497.121 321.269 498.225 320.96 499.377C320.651 500.518 320.331 501.532 320 502.417L318.528 501.953Z" fill="#203C63"/>
<rect x="703" y="266.953" width="41" height="145" fill="#A7634E"/>
<rect x="744" y="266.953" width="8" height="145" fill="#6A5427"/>
<rect x="760" y="266.953" width="8" height="145" fill="#CE9E57"/>
<path d="M337 254.953L339.919 263.936H349.364L341.723 269.488L344.641 278.47L337 272.919L329.359 278.47L332.277 269.488L324.636 263.936H334.081L337 254.953Z" fill="#E74F4F"/>
</svg>
